<?xml version="1.0" encoding="us-ascii" standalone="no"?><svg xmlns="http://www.w3.org/2000/svg" xmlns:xlink="http://www.w3.org/1999/xlink" contentStyleType="text/css" height="1613px" preserveAspectRatio="none" style="width:2399px;height:1613px;background:#FFFFFF;" version="1.1" viewBox="0 0 2399 1613" width="2399px" zoomAndPan="magnify"><defs/><g><!--class ERC721--><g id="elem_ERC721"><rect codeLine="1" fill="#F1F1F1" height="677.875" id="ERC721" rx="2.5" ry="2.5" style="stroke:#181818;stroke-width:0.5;" width="631" x="9" y="929"/><text fill="#000000" font-family="sans-serif" font-size="14" font-style="italic" lengthAdjust="spacing" textLength="56" x="296.5" y="946.9951">ERC721</text><line style="stroke:#181818;stroke-width:0.5;" x1="10" x2="639" y1="955.2969" y2="955.2969"/><rect fill="none" height="6" style="stroke:#C82930;stroke-width:1.0;" width="6" x="17" y="965.9453"/><text fill="#000000" font-family="sans-serif" font-size="14" lengthAdjust="spacing" textLength="98" x="29" y="972.292">_name: string</text><rect fill="none" height="6" style="stroke:#C82930;stroke-width:1.0;" width="6" x="17" y="982.2422"/><text fill="#000000" font-family="sans-serif" font-size="14" lengthAdjust="spacing" textLength="110" x="29" y="988.5889">_symbol: string</text><rect fill="none" height="6" style="stroke:#C82930;stroke-width:1.0;" width="6" x="17" y="998.5391"/><text fill="#000000" font-family="sans-serif" font-size="14" lengthAdjust="spacing" textLength="280" x="29" y="1004.8857">_owners: mapping(uint256 =&gt; address)</text><rect fill="none" height="6" style="stroke:#C82930;stroke-width:1.0;" width="6" x="17" y="1014.8359"/><text fill="#000000" font-family="sans-serif" font-size="14" lengthAdjust="spacing" textLength="292" x="29" y="1021.1826">_balances: mapping(address =&gt; uint256)</text><rect fill="none" height="6" style="stroke:#C82930;stroke-width:1.0;" width="6" x="17" y="1031.1328"/><text fill="#000000" font-family="sans-serif" font-size="14" lengthAdjust="spacing" textLength="344" x="29" y="1037.4795">_tokenApprovals: mapping(uint256 =&gt; address)</text><rect fill="none" height="6" style="stroke:#C82930;stroke-width:1.0;" width="6" x="17" y="1047.4297"/><text fill="#000000" font-family="sans-serif" font-size="14" lengthAdjust="spacing" textLength="502" x="29" y="1053.7764">_operatorApprovals: mapping(address =&gt; mapping(address =&gt; bool))</text><line style="stroke:#181818;stroke-width:0.5;" x1="10" x2="639" y1="1061.0781" y2="1061.0781"/><ellipse cx="20" cy="1074.7266" fill="#84BE84" rx="3" ry="3" style="stroke:#038048;stroke-width:1.0;"/><text fill="#000000" font-family="sans-serif" font-size="14" lengthAdjust="spacing" textLength="310" x="29" y="1078.0732">constructor(_name: string, _symbol: string)</text><ellipse cx="20" cy="1091.0234" fill="#84BE84" rx="3" ry="3" style="stroke:#038048;stroke-width:1.0;"/><text fill="#000000" font-family="sans-serif" font-size="14" lengthAdjust="spacing" textLength="318" x="29" y="1094.3701">supportsInterface(interfaceId: bytes4): bool</text><ellipse cx="20" cy="1107.3203" fill="#84BE84" rx="3" ry="3" style="stroke:#038048;stroke-width:1.0;"/><text fill="#000000" font-family="sans-serif" font-size="14" lengthAdjust="spacing" textLength="254" x="29" y="1110.667">balanceOf(owner: address): uint256</text><ellipse cx="20" cy="1123.6172" fill="#84BE84" rx="3" ry="3" style="stroke:#038048;stroke-width:1.0;"/><text fill="#000000" font-family="sans-serif" font-size="14" lengthAdjust="spacing" textLength="254" x="29" y="1126.9639">ownerOf(tokenId: uint256): address</text><ellipse cx="20" cy="1139.9141" fill="#84BE84" rx="3" ry="3" style="stroke:#038048;stroke-width:1.0;"/><text fill="#000000" font-family="sans-serif" font-size="14" lengthAdjust="spacing" textLength="101" x="29" y="1143.2607">name(): string</text><ellipse cx="20" cy="1156.2109" fill="#84BE84" rx="3" ry="3" style="stroke:#038048;stroke-width:1.0;"/><text fill="#000000" font-family="sans-serif" font-size="14" lengthAdjust="spacing" textLength="113" x="29" y="1159.5576">symbol(): string</text><polygon fill="#FFFF44" points="20,1167.5078,24,1171.5078,20,1175.5078,16,1171.5078" style="stroke:#B38D22;stroke-width:1.0;"/><text fill="#000000" font-family="sans-serif" font-size="14" lengthAdjust="spacing" textLength="125" x="29" y="1175.8545">_baseURI(): string</text><ellipse cx="20" cy="1188.8047" fill="#84BE84" rx="3" ry="3" style="stroke:#038048;stroke-width:1.0;"/><text fill="#000000" font-family="sans-serif" font-size="14" lengthAdjust="spacing" textLength="246" x="29" y="1192.1514">tokenURI(tokenId: uint256): string</text><ellipse cx="20" cy="1205.1016" fill="#84BE84" rx="3" ry="3" style="stroke:#038048;stroke-width:1.0;"/><text fill="#000000" font-family="sans-serif" font-size="14" lengthAdjust="spacing" textLength="277" x="29" y="1208.4482">approve(to: address, tokenId: uint256)</text><ellipse cx="20" cy="1221.3984" fill="#84BE84" rx="3" ry="3" style="stroke:#038048;stroke-width:1.0;"/><text fill="#000000" font-family="sans-serif" font-size="14" lengthAdjust="spacing" textLength="289" x="29" y="1224.7451">getApproved(tokenId: uint256): address</text><ellipse cx="20" cy="1237.6953" fill="#84BE84" rx="3" ry="3" style="stroke:#038048;stroke-width:1.0;"/><text fill="#000000" font-family="sans-serif" font-size="14" lengthAdjust="spacing" textLength="385" x="29" y="1241.042">setApprovalForAll(operator: address, approved: bool)</text><ellipse cx="20" cy="1253.9922" fill="#84BE84" rx="3" ry="3" style="stroke:#038048;stroke-width:1.0;"/><text fill="#000000" font-family="sans-serif" font-size="14" lengthAdjust="spacing" textLength="418" x="29" y="1257.3389">isApprovedForAll(owner: address, operator: address): bool</text><ellipse cx="20" cy="1270.2891" fill="#84BE84" rx="3" ry="3" style="stroke:#038048;stroke-width:1.0;"/><text fill="#000000" font-family="sans-serif" font-size="14" lengthAdjust="spacing" textLength="419" x="29" y="1273.6357">transferFrom(from: address, to: address, tokenId: uint256)</text><ellipse cx="20" cy="1286.5859" fill="#84BE84" rx="3" ry="3" style="stroke:#038048;stroke-width:1.0;"/><text fill="#000000" font-family="sans-serif" font-size="14" lengthAdjust="spacing" textLength="451" x="29" y="1289.9326">safeTransferFrom(from: address, to: address, tokenId: uint256)</text><ellipse cx="20" cy="1302.8828" fill="#84BE84" rx="3" ry="3" style="stroke:#038048;stroke-width:1.0;"/><text fill="#000000" font-family="sans-serif" font-size="14" lengthAdjust="spacing" textLength="548" x="29" y="1306.2295">safeTransferFrom(from: address, to: address, tokenId: uint256, _data: bytes)</text><polygon fill="#FFFF44" points="20,1314.1797,24,1318.1797,20,1322.1797,16,1318.1797" style="stroke:#B38D22;stroke-width:1.0;"/><text fill="#000000" font-family="sans-serif" font-size="14" lengthAdjust="spacing" textLength="261" x="29" y="1322.5264">_ownerOf(tokenId: uint256): address</text><polygon fill="#FFFF44" points="20,1330.4766,24,1334.4766,20,1338.4766,16,1334.4766" style="stroke:#B38D22;stroke-width:1.0;"/><text fill="#000000" font-family="sans-serif" font-size="14" lengthAdjust="spacing" textLength="296" x="29" y="1338.8232">_getApproved(tokenId: uint256): address</text><polygon fill="#FFFF44" points="20,1346.7734,24,1350.7734,20,1354.7734,16,1350.7734" style="stroke:#B38D22;stroke-width:1.0;"/><text fill="#000000" font-family="sans-serif" font-size="14" lengthAdjust="spacing" textLength="514" x="29" y="1355.1201">_isAuthorized(owner: address, spender: address, tokenId: uint256): bool</text><polygon fill="#FFFF44" points="20,1363.0703,24,1367.0703,20,1371.0703,16,1367.0703" style="stroke:#B38D22;stroke-width:1.0;"/><text fill="#000000" font-family="sans-serif" font-size="14" lengthAdjust="spacing" textLength="505" x="29" y="1371.417">_checkAuthorized(owner: address, spender: address, tokenId: uint256)</text><polygon fill="#FFFF44" points="20,1379.3672,24,1383.3672,20,1387.3672,16,1383.3672" style="stroke:#B38D22;stroke-width:1.0;"/><text fill="#000000" font-family="sans-serif" font-size="14" lengthAdjust="spacing" textLength="361" x="29" y="1387.7139">_increaseBalance(account: address, value: uint128)</text><polygon fill="#FFFF44" points="20,1395.6641,24,1399.6641,20,1403.6641,16,1399.6641" style="stroke:#B38D22;stroke-width:1.0;"/><text fill="#000000" font-family="sans-serif" font-size="14" lengthAdjust="spacing" textLength="443" x="29" y="1404.0107">_update(to: address, tokenId: uint256, auth: address): address</text><polygon fill="#FFFF44" points="20,1411.9609,24,1415.9609,20,1419.9609,16,1415.9609" style="stroke:#B38D22;stroke-width:1.0;"/><text fill="#000000" font-family="sans-serif" font-size="14" lengthAdjust="spacing" textLength="258" x="29" y="1420.3076">_mint(to: address, tokenId: uint256)</text><polygon fill="#FFFF44" points="20,1428.2578,24,1432.2578,20,1436.2578,16,1432.2578" style="stroke:#B38D22;stroke-width:1.0;"/><text fill="#000000" font-family="sans-serif" font-size="14" lengthAdjust="spacing" textLength="286" x="29" y="1436.6045">_safeMint(to: address, tokenId: uint256)</text><polygon fill="#FFFF44" points="20,1444.5547,24,1448.5547,20,1452.5547,16,1448.5547" style="stroke:#B38D22;stroke-width:1.0;"/><text fill="#000000" font-family="sans-serif" font-size="14" lengthAdjust="spacing" textLength="376" x="29" y="1452.9014">_safeMint(to: address, tokenId: uint256, data: bytes)</text><polygon fill="#FFFF44" points="20,1460.8516,24,1464.8516,20,1468.8516,16,1464.8516" style="stroke:#B38D22;stroke-width:1.0;"/><text fill="#000000" font-family="sans-serif" font-size="14" lengthAdjust="spacing" textLength="169" x="29" y="1469.1982">_burn(tokenId: uint256)</text><polygon fill="#FFFF44" points="20,1477.1484,24,1481.1484,20,1485.1484,16,1481.1484" style="stroke:#B38D22;stroke-width:1.0;"/><text fill="#000000" font-family="sans-serif" font-size="14" lengthAdjust="spacing" textLength="389" x="29" y="1485.4951">_transfer(from: address, to: address, tokenId: uint256)</text><polygon fill="#FFFF44" points="20,1493.4453,24,1497.4453,20,1501.4453,16,1497.4453" style="stroke:#B38D22;stroke-width:1.0;"/><text fill="#000000" font-family="sans-serif" font-size="14" lengthAdjust="spacing" textLength="421" x="29" y="1501.792">_safeTransfer(from: address, to: address, tokenId: uint256)</text><polygon fill="#FFFF44" points="20,1509.7422,24,1513.7422,20,1517.7422,16,1513.7422" style="stroke:#B38D22;stroke-width:1.0;"/><text fill="#000000" font-family="sans-serif" font-size="14" lengthAdjust="spacing" textLength="511" x="29" y="1518.0889">_safeTransfer(from: address, to: address, tokenId: uint256, data: bytes)</text><polygon fill="#FFFF44" points="20,1526.0391,24,1530.0391,20,1534.0391,16,1530.0391" style="stroke:#B38D22;stroke-width:1.0;"/><text fill="#000000" font-family="sans-serif" font-size="14" lengthAdjust="spacing" textLength="388" x="29" y="1534.3857">_approve(to: address, tokenId: uint256, auth: address)</text><polygon fill="#FFFF44" points="20,1542.3359,24,1546.3359,20,1550.3359,16,1546.3359" style="stroke:#B38D22;stroke-width:1.0;"/><text fill="#000000" font-family="sans-serif" font-size="14" lengthAdjust="spacing" textLength="513" x="29" y="1550.6826">_approve(to: address, tokenId: uint256, auth: address, emitEvent: bool)</text><polygon fill="#FFFF44" points="20,1558.6328,24,1562.6328,20,1566.6328,16,1562.6328" style="stroke:#B38D22;stroke-width:1.0;"/><text fill="#000000" font-family="sans-serif" font-size="14" lengthAdjust="spacing" textLength="508" x="29" y="1566.9795">_setApprovalForAll(owner: address, operator: address, approved: bool)</text><polygon fill="#FFFF44" points="20,1574.9297,24,1578.9297,20,1582.9297,16,1578.9297" style="stroke:#B38D22;stroke-width:1.0;"/><text fill="#000000" font-family="sans-serif" font-size="14" lengthAdjust="spacing" textLength="300" x="29" y="1583.2764">_requireOwned(tokenId: uint256): address</text><ellipse cx="20" cy="1596.2266" fill="#84BE84" rx="3" ry="3" style="stroke:#038048;stroke-width:1.0;"/><text fill="#000000" font-family="sans-serif" font-size="14" lengthAdjust="spacing" textLength="605" x="29" y="1599.5732">_checkOnERC721Received(from: address, to: address, tokenId: uint256, data: bytes)</text></g><!--class ERC721Enumerable--><g id="elem_ERC721Enumerable"><rect codeLine="43" fill="#F1F1F1" height="303.0469" id="ERC721Enumerable" rx="2.5" ry="2.5" style="stroke:#181818;stroke-width:0.5;" width="544" x="675.5" y="1116.5"/><text fill="#000000" font-family="sans-serif" font-size="14" font-style="italic" lengthAdjust="spacing" textLength="143" x="876" y="1134.4951">ERC721Enumerable</text><line style="stroke:#181818;stroke-width:0.5;" x1="676.5" x2="1218.5" y1="1142.7969" y2="1142.7969"/><rect fill="none" height="6" style="stroke:#C82930;stroke-width:1.0;" width="6" x="683.5" y="1153.4453"/><text fill="#000000" font-family="sans-serif" font-size="14" lengthAdjust="spacing" textLength="486" x="695.5" y="1159.792">_ownedTokens: mapping(address =&gt; mapping(uint256 =&gt; uint256))</text><rect fill="none" height="6" style="stroke:#C82930;stroke-width:1.0;" width="6" x="683.5" y="1169.7422"/><text fill="#000000" font-family="sans-serif" font-size="14" lengthAdjust="spacing" textLength="366" x="695.5" y="1176.0889">_ownedTokensIndex: mapping(uint256 =&gt; uint256)</text><rect fill="none" height="6" style="stroke:#C82930;stroke-width:1.0;" width="6" x="683.5" y="1186.0391"/><text fill="#000000" font-family="sans-serif" font-size="14" lengthAdjust="spacing" textLength="148" x="695.5" y="1192.3857">_allTokens: uint256[]</text><rect fill="none" height="6" style="stroke:#C82930;stroke-width:1.0;" width="6" x="683.5" y="1202.3359"/><text fill="#000000" font-family="sans-serif" font-size="14" lengthAdjust="spacing" textLength="335" x="695.5" y="1208.6826">_allTokensIndex: mapping(uint256 =&gt; uint256)</text><line style="stroke:#181818;stroke-width:0.5;" x1="676.5" x2="1218.5" y1="1215.9844" y2="1215.9844"/><ellipse cx="686.5" cy="1229.6328" fill="#84BE84" rx="3" ry="3" style="stroke:#038048;stroke-width:1.0;"/><text fill="#000000" font-family="sans-serif" font-size="14" lengthAdjust="spacing" textLength="463" x="695.5" y="1232.9795">&#171;error&#187; ERC721OutOfBoundsIndex(address owner, uint256 index)</text><ellipse cx="686.5" cy="1245.9297" fill="#84BE84" rx="3" ry="3" style="stroke:#038048;stroke-width:1.0;"/><text fill="#000000" font-family="sans-serif" font-size="14" lengthAdjust="spacing" textLength="354" x="695.5" y="1249.2764">&#171;error&#187; ERC721EnumerableForbiddenBatchMint()</text><ellipse cx="686.5" cy="1262.2266" fill="#84BE84" rx="3" ry="3" style="stroke:#038048;stroke-width:1.0;"/><text fill="#000000" font-family="sans-serif" font-size="14" lengthAdjust="spacing" textLength="318" x="695.5" y="1265.5732">supportsInterface(interfaceId: bytes4): bool</text><ellipse cx="686.5" cy="1278.5234" fill="#84BE84" rx="3" ry="3" style="stroke:#038048;stroke-width:1.0;"/><text fill="#000000" font-family="sans-serif" font-size="14" lengthAdjust="spacing" textLength="454" x="695.5" y="1281.8701">tokenOfOwnerByIndex(owner: address, index: uint256): uint256</text><ellipse cx="686.5" cy="1294.8203" fill="#84BE84" rx="3" ry="3" style="stroke:#038048;stroke-width:1.0;"/><text fill="#000000" font-family="sans-serif" font-size="14" lengthAdjust="spacing" textLength="157" x="695.5" y="1298.167">totalSupply(): uint256</text><ellipse cx="686.5" cy="1311.1172" fill="#84BE84" rx="3" ry="3" style="stroke:#038048;stroke-width:1.0;"/><text fill="#000000" font-family="sans-serif" font-size="14" lengthAdjust="spacing" textLength="275" x="695.5" y="1314.4639">tokenByIndex(index: uint256): uint256</text><polygon fill="#FFFF44" points="686.5,1322.4141,690.5,1326.4141,686.5,1330.4141,682.5,1326.4141" style="stroke:#B38D22;stroke-width:1.0;"/><text fill="#000000" font-family="sans-serif" font-size="14" lengthAdjust="spacing" textLength="443" x="695.5" y="1330.7607">_update(to: address, tokenId: uint256, auth: address): address</text><polygon fill="#FFFF44" points="686.5,1338.7109,690.5,1342.7109,686.5,1346.7109,682.5,1342.7109" style="stroke:#B38D22;stroke-width:1.0;"/><text fill="#000000" font-family="sans-serif" font-size="14" lengthAdjust="spacing" textLength="451" x="695.5" y="1347.0576">_addTokenToOwnerEnumeration(to: address, tokenId: uint256)</text><polygon fill="#FFFF44" points="686.5,1355.0078,690.5,1359.0078,686.5,1363.0078,682.5,1359.0078" style="stroke:#B38D22;stroke-width:1.0;"/><text fill="#000000" font-family="sans-serif" font-size="14" lengthAdjust="spacing" textLength="387" x="695.5" y="1363.3545">_addTokenToAllTokensEnumeration(tokenId: uint256)</text><polygon fill="#FFFF44" points="686.5,1371.3047,690.5,1375.3047,686.5,1379.3047,682.5,1375.3047" style="stroke:#B38D22;stroke-width:1.0;"/><text fill="#000000" font-family="sans-serif" font-size="14" lengthAdjust="spacing" textLength="518" x="695.5" y="1379.6514">_removeTokenFromOwnerEnumeration(from: address, tokenId: uint256)</text><polygon fill="#FFFF44" points="686.5,1387.6016,690.5,1391.6016,686.5,1395.6016,682.5,1391.6016" style="stroke:#B38D22;stroke-width:1.0;"/><text fill="#000000" font-family="sans-serif" font-size="14" lengthAdjust="spacing" textLength="435" x="695.5" y="1395.9482">_removeTokenFromAllTokensEnumeration(tokenId: uint256)</text><polygon fill="#FFFF44" points="686.5,1403.8984,690.5,1407.8984,686.5,1411.8984,682.5,1407.8984" style="stroke:#B38D22;stroke-width:1.0;"/><text fill="#000000" font-family="sans-serif" font-size="14" lengthAdjust="spacing" textLength="379" x="695.5" y="1412.2451">_increaseBalance(account: address, amount: uint128)</text></g><!--class ERC721Burnable--><g id="elem_ERC721Burnable"><rect codeLine="62" fill="#F1F1F1" height="58.5938" id="ERC721Burnable" rx="2.5" ry="2.5" style="stroke:#181818;stroke-width:0.5;" width="162" x="1254.5" y="1238.5"/><text fill="#000000" font-family="sans-serif" font-size="14" font-style="italic" lengthAdjust="spacing" textLength="121" x="1275" y="1256.4951">ERC721Burnable</text><line style="stroke:#181818;stroke-width:0.5;" x1="1255.5" x2="1415.5" y1="1264.7969" y2="1264.7969"/><line style="stroke:#181818;stroke-width:0.5;" x1="1255.5" x2="1415.5" y1="1272.7969" y2="1272.7969"/><ellipse cx="1265.5" cy="1286.4453" fill="#84BE84" rx="3" ry="3" style="stroke:#038048;stroke-width:1.0;"/><text fill="#000000" font-family="sans-serif" font-size="14" lengthAdjust="spacing" textLength="136" x="1274.5" y="1289.792">burn(tokenId: uint)</text></g><!--class ERC721Pausable--><g id="elem_ERC721Pausable"><rect codeLine="66" fill="#F1F1F1" height="58.5938" id="ERC721Pausable" rx="2.5" ry="2.5" style="stroke:#181818;stroke-width:0.5;" width="469" x="1452" y="1238.5"/><text fill="#000000" font-family="sans-serif" font-size="14" font-style="italic" lengthAdjust="spacing" textLength="120" x="1626.5" y="1256.4951">ERC721Pausable</text><line style="stroke:#181818;stroke-width:0.5;" x1="1453" x2="1920" y1="1264.7969" y2="1264.7969"/><line style="stroke:#181818;stroke-width:0.5;" x1="1453" x2="1920" y1="1272.7969" y2="1272.7969"/><polygon fill="#FFFF44" points="1463,1281.4453,1467,1285.4453,1463,1289.4453,1459,1285.4453" style="stroke:#B38D22;stroke-width:1.0;"/><text fill="#000000" font-family="sans-serif" font-size="14" lengthAdjust="spacing" textLength="443" x="1472" y="1289.792">_update(to: address, tokenId: uint256, auth: address): address</text></g><!--class AccessControl--><g id="elem_AccessControl"><rect codeLine="70" fill="#F1F1F1" height="270.4531" id="AccessControl" rx="2.5" ry="2.5" style="stroke:#181818;stroke-width:0.5;" width="436" x="1956.5" y="1133"/><text fill="#000000" font-family="sans-serif" font-size="14" font-style="italic" lengthAdjust="spacing" textLength="101" x="2124" y="1150.9951">AccessControl</text><line style="stroke:#181818;stroke-width:0.5;" x1="1957.5" x2="2391.5" y1="1159.2969" y2="1159.2969"/><rect fill="none" height="6" style="stroke:#C82930;stroke-width:1.0;" width="6" x="1964.5" y="1169.9453"/><text fill="#000000" font-family="sans-serif" font-size="14" lengthAdjust="spacing" textLength="279" x="1976.5" y="1176.292">_roles: mapping(bytes32 =&gt; RoleData)</text><ellipse cx="1967.5" cy="1189.2422" fill="none" rx="3" ry="3" style="stroke:#038048;stroke-width:1.0;"/><text fill="#000000" font-family="sans-serif" font-size="14" lengthAdjust="spacing" textLength="230" x="1976.5" y="1192.5889">DEFAULT_ADMIN_ROLE: bytes32</text><line style="stroke:#181818;stroke-width:0.5;" x1="1957.5" x2="2391.5" y1="1199.8906" y2="1199.8906"/><ellipse cx="1967.5" cy="1213.5391" fill="#84BE84" rx="3" ry="3" style="stroke:#038048;stroke-width:1.0;"/><text fill="#000000" font-family="sans-serif" font-size="14" lengthAdjust="spacing" textLength="248" x="1976.5" y="1216.8857">&#171;modifier&#187; onlyRole(role: bytes32)</text><ellipse cx="1967.5" cy="1229.8359" fill="#84BE84" rx="3" ry="3" style="stroke:#038048;stroke-width:1.0;"/><text fill="#000000" font-family="sans-serif" font-size="14" lengthAdjust="spacing" textLength="318" x="1976.5" y="1233.1826">supportsInterface(interfaceId: bytes4): bool</text><ellipse cx="1967.5" cy="1246.1328" fill="#84BE84" rx="3" ry="3" style="stroke:#038048;stroke-width:1.0;"/><text fill="#000000" font-family="sans-serif" font-size="14" lengthAdjust="spacing" textLength="331" x="1976.5" y="1249.4795">hasRole(role: bytes32, account: address): bool</text><polygon fill="#FFFF44" points="1967.5,1257.4297,1971.5,1261.4297,1967.5,1265.4297,1963.5,1261.4297" style="stroke:#B38D22;stroke-width:1.0;"/><text fill="#000000" font-family="sans-serif" font-size="14" lengthAdjust="spacing" textLength="187" x="1976.5" y="1265.7764">_checkRole(role: bytes32)</text><polygon fill="#FFFF44" points="1967.5,1273.7266,1971.5,1277.7266,1967.5,1281.7266,1963.5,1277.7266" style="stroke:#B38D22;stroke-width:1.0;"/><text fill="#000000" font-family="sans-serif" font-size="14" lengthAdjust="spacing" textLength="316" x="1976.5" y="1282.0732">_checkRole(role: bytes32, account: address)</text><ellipse cx="1967.5" cy="1295.0234" fill="#84BE84" rx="3" ry="3" style="stroke:#038048;stroke-width:1.0;"/><text fill="#000000" font-family="sans-serif" font-size="14" lengthAdjust="spacing" textLength="275" x="1976.5" y="1298.3701">getRoleAdmin(role: bytes32): bytes32</text><ellipse cx="1967.5" cy="1311.3203" fill="#84BE84" rx="3" ry="3" style="stroke:#038048;stroke-width:1.0;"/><text fill="#000000" font-family="sans-serif" font-size="14" lengthAdjust="spacing" textLength="305" x="1976.5" y="1314.667">grantRole(role: bytes32, account: address)</text><ellipse cx="1967.5" cy="1327.6172" fill="#84BE84" rx="3" ry="3" style="stroke:#038048;stroke-width:1.0;"/><text fill="#000000" font-family="sans-serif" font-size="14" lengthAdjust="spacing" textLength="316" x="1976.5" y="1330.9639">revokeRole(role: bytes32, account: address)</text><ellipse cx="1967.5" cy="1343.9141" fill="#84BE84" rx="3" ry="3" style="stroke:#038048;stroke-width:1.0;"/><text fill="#000000" font-family="sans-serif" font-size="14" lengthAdjust="spacing" textLength="410" x="1976.5" y="1347.2607">renounceRole(role: bytes32, callerConfirmation: address)</text><rect fill="#F24D5C" height="6" style="stroke:#C82930;stroke-width:1.0;" width="6" x="1964.5" y="1357.2109"/><text fill="#000000" font-family="sans-serif" font-size="14" lengthAdjust="spacing" textLength="364" x="1976.5" y="1363.5576">_setRoleAdmin(role: bytes32, adminRole: bytes32)</text><rect fill="#F24D5C" height="6" style="stroke:#C82930;stroke-width:1.0;" width="6" x="1964.5" y="1373.5078"/><text fill="#000000" font-family="sans-serif" font-size="14" lengthAdjust="spacing" textLength="353" x="1976.5" y="1379.8545">_grantRole(role: bytes32, account: address): bool</text><rect fill="#F24D5C" height="6" style="stroke:#C82930;stroke-width:1.0;" width="6" x="1964.5" y="1389.8047"/><text fill="#000000" font-family="sans-serif" font-size="14" lengthAdjust="spacing" textLength="364" x="1976.5" y="1396.1514">_revokeRole(role: bytes32, account: address): bool</text></g><!--class PrescriptionTokens--><g id="elem_PrescriptionTokens"><rect codeLine="87" fill="#F1F1F1" height="384.5313" id="PrescriptionTokens" rx="2.5" ry="2.5" style="stroke:#181818;stroke-width:0.5;" width="586" x="979.5" y="7"/><text fill="#000000" font-family="sans-serif" font-size="14" lengthAdjust="spacing" textLength="140" x="1202.5" y="24.9951">PrescriptionTokens</text><line style="stroke:#181818;stroke-width:0.5;" x1="980.5" x2="1564.5" y1="33.2969" y2="33.2969"/><rect fill="none" height="6" style="stroke:#C82930;stroke-width:1.0;" width="6" x="987.5" y="43.9453"/><text fill="#000000" font-family="sans-serif" font-size="14" lengthAdjust="spacing" textLength="231" x="999.5" y="50.292">appointmentsContract: address</text><rect fill="none" height="6" style="stroke:#C82930;stroke-width:1.0;" width="6" x="987.5" y="60.2422"/><text fill="#000000" font-family="sans-serif" font-size="14" lengthAdjust="spacing" textLength="353" x="999.5" y="66.5889">tokenIdToCategory: mapping(uint256 =&gt; uint16)</text><rect fill="none" height="6" style="stroke:#C82930;stroke-width:1.0;" width="6" x="987.5" y="76.5391"/><text fill="#000000" font-family="sans-serif" font-size="14" lengthAdjust="spacing" textLength="166" x="999.5" y="82.8857">MINTER_ROLE: bytes32</text><line style="stroke:#181818;stroke-width:0.5;" x1="980.5" x2="1564.5" y1="90.1875" y2="90.1875"/><ellipse cx="990.5" cy="103.8359" fill="#84BE84" rx="3" ry="3" style="stroke:#038048;stroke-width:1.0;"/><text fill="#000000" font-family="sans-serif" font-size="14" lengthAdjust="spacing" textLength="457" x="999.5" y="107.1826">&#171;event&#187; MintedPrescription(uint256 tokenId, address recipient)</text><ellipse cx="990.5" cy="120.1328" fill="#84BE84" rx="3" ry="3" style="stroke:#038048;stroke-width:1.0;"/><text fill="#000000" font-family="sans-serif" font-size="14" lengthAdjust="spacing" textLength="560" x="999.5" y="123.4795">&#171;event&#187; BookedAppointment(uint256 prescriptionId, uint256 appointmentId)</text><ellipse cx="990.5" cy="136.4297" fill="#84BE84" rx="3" ry="3" style="stroke:#038048;stroke-width:1.0;"/><text fill="#000000" font-family="sans-serif" font-size="14" lengthAdjust="spacing" textLength="224" x="999.5" y="139.7764">&#171;error&#187; CategoriesDontMatch()</text><ellipse cx="990.5" cy="152.7266" fill="#84BE84" rx="3" ry="3" style="stroke:#038048;stroke-width:1.0;"/><text fill="#000000" font-family="sans-serif" font-size="14" lengthAdjust="spacing" textLength="199" x="999.5" y="156.0732">&#171;error&#187; NonContractCaller()</text><ellipse cx="990.5" cy="169.0234" fill="#84BE84" rx="3" ry="3" style="stroke:#038048;stroke-width:1.0;"/><text fill="#000000" font-family="sans-serif" font-size="14" lengthAdjust="spacing" textLength="190" x="999.5" y="172.3701">&#171;error&#187; DisabledFunction()</text><ellipse cx="990.5" cy="185.3203" fill="#84BE84" rx="3" ry="3" style="stroke:#038048;stroke-width:1.0;"/><text fill="#000000" font-family="sans-serif" font-size="14" lengthAdjust="spacing" textLength="310" x="999.5" y="188.667">constructor(_name: string, _symbol: string)</text><ellipse cx="990.5" cy="201.6172" fill="#84BE84" rx="3" ry="3" style="stroke:#038048;stroke-width:1.0;"/><text fill="#000000" font-family="sans-serif" font-size="14" lengthAdjust="spacing" textLength="378" x="999.5" y="204.9639">setAppointmentsAddress(contractAddress: address)</text><ellipse cx="990.5" cy="217.9141" fill="#84BE84" rx="3" ry="3" style="stroke:#038048;stroke-width:1.0;"/><text fill="#000000" font-family="sans-serif" font-size="14" lengthAdjust="spacing" textLength="406" x="999.5" y="221.2607">safeMint(to: address, tokenId: uint256, category: uint16)</text><ellipse cx="990.5" cy="234.2109" fill="#84BE84" rx="3" ry="3" style="stroke:#038048;stroke-width:1.0;"/><text fill="#000000" font-family="sans-serif" font-size="14" lengthAdjust="spacing" textLength="342" x="999.5" y="237.5576">getMyTokens(): (ids: uint[], categories: uint16[])</text><ellipse cx="990.5" cy="250.5078" fill="#84BE84" rx="3" ry="3" style="stroke:#038048;stroke-width:1.0;"/><text fill="#000000" font-family="sans-serif" font-size="14" lengthAdjust="spacing" textLength="275" x="999.5" y="253.8545">getCategory(tokenId: uint256): uint16</text><ellipse cx="990.5" cy="266.8047" fill="#84BE84" rx="3" ry="3" style="stroke:#038048;stroke-width:1.0;"/><text fill="#000000" font-family="sans-serif" font-size="14" lengthAdjust="spacing" textLength="493" x="999.5" y="270.1514">makeAppointment(prescriptionId: uint256, appointmentId: uint256)</text><ellipse cx="990.5" cy="283.1016" fill="#84BE84" rx="3" ry="3" style="stroke:#038048;stroke-width:1.0;"/><text fill="#000000" font-family="sans-serif" font-size="14" lengthAdjust="spacing" textLength="538" x="999.5" y="286.4482">givePrescriptionBack(hospital: address, patient: address, tokenId: uint256)</text><ellipse cx="990.5" cy="299.3984" fill="#84BE84" rx="3" ry="3" style="stroke:#038048;stroke-width:1.0;"/><text fill="#000000" font-family="sans-serif" font-size="14" lengthAdjust="spacing" textLength="259" x="999.5" y="302.7451">transferFrom(address, address, uint)</text><ellipse cx="990.5" cy="315.6953" fill="#84BE84" rx="3" ry="3" style="stroke:#038048;stroke-width:1.0;"/><text fill="#000000" font-family="sans-serif" font-size="14" lengthAdjust="spacing" textLength="52" x="999.5" y="319.042">pause()</text><ellipse cx="990.5" cy="331.9922" fill="#84BE84" rx="3" ry="3" style="stroke:#038048;stroke-width:1.0;"/><text fill="#000000" font-family="sans-serif" font-size="14" lengthAdjust="spacing" textLength="69" x="999.5" y="335.3389">unpause()</text><ellipse cx="990.5" cy="348.2891" fill="#84BE84" rx="3" ry="3" style="stroke:#038048;stroke-width:1.0;"/><text fill="#000000" font-family="sans-serif" font-size="14" lengthAdjust="spacing" textLength="443" x="999.5" y="351.6357">_update(to: address, tokenId: uint256, auth: address): address</text><ellipse cx="990.5" cy="364.5859" fill="#84BE84" rx="3" ry="3" style="stroke:#038048;stroke-width:1.0;"/><text fill="#000000" font-family="sans-serif" font-size="14" lengthAdjust="spacing" textLength="361" x="999.5" y="367.9326">_increaseBalance(account: address, value: uint128)</text><ellipse cx="990.5" cy="380.8828" fill="#84BE84" rx="3" ry="3" style="stroke:#038048;stroke-width:1.0;"/><text fill="#000000" font-family="sans-serif" font-size="14" lengthAdjust="spacing" textLength="318" x="999.5" y="384.2295">supportsInterface(interfaceId: bytes4): bool</text></g><!--class AppointmentTokens--><g id="elem_AppointmentTokens"><rect codeLine="111" fill="#F1F1F1" height="417.125" id="AppointmentTokens" rx="2.5" ry="2.5" style="stroke:#181818;stroke-width:0.5;" width="703" x="921" y="452"/><text fill="#000000" font-family="sans-serif" font-size="14" lengthAdjust="spacing" textLength="150" x="1197.5" y="469.9951">AppointmentTokens</text><line style="stroke:#181818;stroke-width:0.5;" x1="922" x2="1623" y1="478.2969" y2="478.2969"/><rect fill="none" height="6" style="stroke:#C82930;stroke-width:1.0;" width="6" x="929" y="488.9453"/><text fill="#000000" font-family="sans-serif" font-size="14" lengthAdjust="spacing" textLength="224" x="941" y="495.292">prescriptionsContract: address</text><rect fill="none" height="6" style="stroke:#C82930;stroke-width:1.0;" width="6" x="929" y="505.2422"/><text fill="#000000" font-family="sans-serif" font-size="14" lengthAdjust="spacing" textLength="353" x="941" y="511.5889">tokenIdToCategory: mapping(uint256 =&gt; uint16)</text><rect fill="none" height="6" style="stroke:#C82930;stroke-width:1.0;" width="6" x="929" y="521.5391"/><text fill="#000000" font-family="sans-serif" font-size="14" lengthAdjust="spacing" textLength="333" x="941" y="527.8857">tokenIdToHash: mapping(uint256 =&gt; bytes32)</text><rect fill="none" height="6" style="stroke:#C82930;stroke-width:1.0;" width="6" x="929" y="537.8359"/><text fill="#000000" font-family="sans-serif" font-size="14" lengthAdjust="spacing" textLength="396" x="941" y="544.1826">tokenIdToPrescriptionId: mapping(uint256 =&gt; uint256)</text><rect fill="none" height="6" style="stroke:#C82930;stroke-width:1.0;" width="6" x="929" y="554.1328"/><text fill="#000000" font-family="sans-serif" font-size="14" lengthAdjust="spacing" textLength="166" x="941" y="560.4795">MINTER_ROLE: bytes32</text><line style="stroke:#181818;stroke-width:0.5;" x1="922" x2="1623" y1="567.7813" y2="567.7813"/><ellipse cx="932" cy="581.4297" fill="#84BE84" rx="3" ry="3" style="stroke:#038048;stroke-width:1.0;"/><text fill="#000000" font-family="sans-serif" font-size="14" lengthAdjust="spacing" textLength="334" x="941" y="584.7764">&#171;event&#187; MintedAppointment(uint256 tokenId)</text><ellipse cx="932" cy="597.7266" fill="#84BE84" rx="3" ry="3" style="stroke:#038048;stroke-width:1.0;"/><text fill="#000000" font-family="sans-serif" font-size="14" lengthAdjust="spacing" textLength="575" x="941" y="601.0732">&#171;event&#187; CancelledAppointment(uint256 appointmentId, uint256 prescriptionId)</text><ellipse cx="932" cy="614.0234" fill="#84BE84" rx="3" ry="3" style="stroke:#038048;stroke-width:1.0;"/><text fill="#000000" font-family="sans-serif" font-size="14" lengthAdjust="spacing" textLength="199" x="941" y="617.3701">&#171;error&#187; NonContractCaller()</text><ellipse cx="932" cy="630.3203" fill="#84BE84" rx="3" ry="3" style="stroke:#038048;stroke-width:1.0;"/><text fill="#000000" font-family="sans-serif" font-size="14" lengthAdjust="spacing" textLength="190" x="941" y="633.667">&#171;error&#187; DisabledFunction()</text><ellipse cx="932" cy="646.6172" fill="#84BE84" rx="3" ry="3" style="stroke:#038048;stroke-width:1.0;"/><text fill="#000000" font-family="sans-serif" font-size="14" lengthAdjust="spacing" textLength="310" x="941" y="649.9639">constructor(_name: string, _symbol: string)</text><ellipse cx="932" cy="662.9141" fill="#84BE84" rx="3" ry="3" style="stroke:#038048;stroke-width:1.0;"/><text fill="#000000" font-family="sans-serif" font-size="14" lengthAdjust="spacing" textLength="368" x="941" y="666.2607">setPrescriptionsAddress(contractAddress: address)</text><ellipse cx="932" cy="679.2109" fill="#84BE84" rx="3" ry="3" style="stroke:#038048;stroke-width:1.0;"/><text fill="#000000" font-family="sans-serif" font-size="14" lengthAdjust="spacing" textLength="497" x="941" y="682.5576">safeMint(tokenId: uint256, metadataHash: bytes32, category: uint16)</text><ellipse cx="932" cy="695.5078" fill="#84BE84" rx="3" ry="3" style="stroke:#038048;stroke-width:1.0;"/><text fill="#000000" font-family="sans-serif" font-size="14" lengthAdjust="spacing" textLength="476" x="941" y="698.8545">getMyTokens(): (ids: uint[], hashes: bytes32[], categories: uint16[])</text><ellipse cx="932" cy="711.8047" fill="#84BE84" rx="3" ry="3" style="stroke:#038048;stroke-width:1.0;"/><text fill="#000000" font-family="sans-serif" font-size="14" lengthAdjust="spacing" textLength="275" x="941" y="715.1514">getCategory(tokenId: uint256): uint16</text><ellipse cx="932" cy="728.1016" fill="#84BE84" rx="3" ry="3" style="stroke:#038048;stroke-width:1.0;"/><text fill="#000000" font-family="sans-serif" font-size="14" lengthAdjust="spacing" textLength="255" x="941" y="731.4482">getHash(tokenId: uint256): bytes32</text><ellipse cx="932" cy="744.3984" fill="#84BE84" rx="3" ry="3" style="stroke:#038048;stroke-width:1.0;"/><text fill="#000000" font-family="sans-serif" font-size="14" lengthAdjust="spacing" textLength="677" x="941" y="747.7451">exchangeForPrescription(from: address, to: address, tokenId: uint256, prescriptionId: uint256)</text><ellipse cx="932" cy="760.6953" fill="#84BE84" rx="3" ry="3" style="stroke:#038048;stroke-width:1.0;"/><text fill="#000000" font-family="sans-serif" font-size="14" lengthAdjust="spacing" textLength="358" x="941" y="764.042">cancelAppointment(appointmentToken: uint256)</text><ellipse cx="932" cy="776.9922" fill="#84BE84" rx="3" ry="3" style="stroke:#038048;stroke-width:1.0;"/><text fill="#000000" font-family="sans-serif" font-size="14" lengthAdjust="spacing" textLength="259" x="941" y="780.3389">transferFrom(address, address, uint)</text><ellipse cx="932" cy="793.2891" fill="#84BE84" rx="3" ry="3" style="stroke:#038048;stroke-width:1.0;"/><text fill="#000000" font-family="sans-serif" font-size="14" lengthAdjust="spacing" textLength="52" x="941" y="796.6357">pause()</text><ellipse cx="932" cy="809.5859" fill="#84BE84" rx="3" ry="3" style="stroke:#038048;stroke-width:1.0;"/><text fill="#000000" font-family="sans-serif" font-size="14" lengthAdjust="spacing" textLength="69" x="941" y="812.9326">unpause()</text><ellipse cx="932" cy="825.8828" fill="#84BE84" rx="3" ry="3" style="stroke:#038048;stroke-width:1.0;"/><text fill="#000000" font-family="sans-serif" font-size="14" lengthAdjust="spacing" textLength="443" x="941" y="829.2295">_update(to: address, tokenId: uint256, auth: address): address</text><ellipse cx="932" cy="842.1797" fill="#84BE84" rx="3" ry="3" style="stroke:#038048;stroke-width:1.0;"/><text fill="#000000" font-family="sans-serif" font-size="14" lengthAdjust="spacing" textLength="361" x="941" y="845.5264">_increaseBalance(account: address, value: uint128)</text><ellipse cx="932" cy="858.4766" fill="#84BE84" rx="3" ry="3" style="stroke:#038048;stroke-width:1.0;"/><text fill="#000000" font-family="sans-serif" font-size="14" lengthAdjust="spacing" textLength="318" x="941" y="861.8232">supportsInterface(interfaceId: bytes4): bool</text></g><!--link PrescriptionTokens to ERC721--><g id="link_PrescriptionTokens_ERC721"><path codeLine="137" d="M979.495,339.59 C926.546,372.15 874.314,409.83 830.5,452 C689.426,587.77 579.8567,754.9307 493.2577,913.0917 " fill="none" id="PrescriptionTokens-to-ERC721" style="stroke:#181818;stroke-width:1.0;"/><polygon fill="none" points="484.613,928.88,498.5204,915.9733,487.9949,910.2102,484.613,928.88" style="stroke:#181818;stroke-width:1.0;"/></g><!--link PrescriptionTokens to ERC721Enumerable--><g id="link_PrescriptionTokens_ERC721Enumerable"><path codeLine="138" d="M979.315,356.79 C949.006,384.52 922.431,416.19 903.5,452 C792.828,661.363 840.3852,927.4283 890.2332,1098.9343 " fill="none" id="PrescriptionTokens-to-ERC721Enumerable" style="stroke:#181818;stroke-width:1.0;"/><polygon fill="none" points="895.257,1116.219,895.9948,1097.2597,884.4716,1100.6089,895.257,1116.219" style="stroke:#181818;stroke-width:1.0;"/></g><!--link PrescriptionTokens to ERC721Burnable--><g id="link_PrescriptionTokens_ERC721Burnable"><path codeLine="139" d="M1565.68,356.79 C1595.99,384.52 1622.57,416.19 1641.5,452 C1728.11,615.85 1752.82,720.826 1641.5,869 C1583.96,945.581 1502.33,861.364 1434.5,929 C1347.69,1015.568 1336.3892,1155.8689 1335.4592,1220.4379 " fill="none" id="PrescriptionTokens-to-ERC721Burnable" style="stroke:#181818;stroke-width:1.0;"/><polygon fill="none" points="1335.2,1238.436,1341.4586,1220.5243,1329.4599,1220.3515,1335.2,1238.436" style="stroke:#181818;stroke-width:1.0;"/></g><!--link PrescriptionTokens to AccessControl--><g id="link_PrescriptionTokens_AccessControl"><path codeLine="140" d="M1565.61,309.97 C1638.43,347.04 1712.01,394.1 1769.5,452 C1964.3,648.225 2076.6545,939.8454 2131.6545,1115.6114 " fill="none" id="PrescriptionTokens-to-AccessControl" style="stroke:#181818;stroke-width:1.0;"/><polygon fill="none" points="2137.03,1132.79,2137.3807,1113.8196,2125.9283,1117.4032,2137.03,1132.79" style="stroke:#181818;stroke-width:1.0;"/></g><!--link PrescriptionTokens to ERC721Pausable--><g id="link_PrescriptionTokens_ERC721Pausable"><path codeLine="141" d="M1565.62,314.26 C1621.5,349.76 1672.7,395.02 1705.5,452 C1860.48,721.243 1741.6839,1110.9552 1702.9539,1221.4542 " fill="none" id="PrescriptionTokens-to-ERC721Pausable" style="stroke:#181818;stroke-width:1.0;"/><polygon fill="none" points="1697,1238.441,1708.6162,1223.4388,1697.2916,1219.4696,1697,1238.441" style="stroke:#181818;stroke-width:1.0;"/></g><!--link PrescriptionTokens to AppointmentTokens--><g id="link_PrescriptionTokens_AppointmentTokens"><path codeLine="142" d="M1259.91,392.17 C1259.74,411.83 1259.6828,425.8801 1259.7728,445.7101 " fill="none" id="PrescriptionTokens-to-AppointmentTokens" style="stroke:#181818;stroke-width:1.0;"/><polygon fill="#181818" points="1259.8,451.71,1263.7591,442.6919,1259.7773,446.7101,1255.7592,442.7282,1259.8,451.71" style="stroke:#181818;stroke-width:1.0;"/></g><!--link AppointmentTokens to PrescriptionTokens--><g id="link_AppointmentTokens_PrescriptionTokens"><path codeLine="149" d="M1285.95,451.71 C1286.04,431.88 1286.0619,417.8298 1285.8919,398.1698 " fill="none" id="AppointmentTokens-to-PrescriptionTokens" style="stroke:#181818;stroke-width:1.0;"/><polygon fill="#181818" points="1285.84,392.17,1281.918,401.2043,1285.8832,397.1698,1289.9177,401.1351,1285.84,392.17" style="stroke:#181818;stroke-width:1.0;"/></g><!--link AppointmentTokens to ERC721--><g id="link_AppointmentTokens_ERC721"><path codeLine="144" d="M920.687,787.067 C831.229,826.249 737.775,873.897 657.5,929 C651.727,932.963 660.5293,926.4494 654.7943,930.6194 " fill="none" id="AppointmentTokens-to-ERC721" style="stroke:#181818;stroke-width:1.0;"/><polygon fill="none" points="640.236,941.205,658.3229,935.4722,651.2658,925.7666,640.236,941.205" style="stroke:#181818;stroke-width:1.0;"/></g><!--link AppointmentTokens to ERC721Enumerable--><g id="link_AppointmentTokens_ERC721Enumerable"><path codeLine="145" d="M1161.11,869.032 C1117.56,950.167 1077.0736,1025.6017 1036.9936,1100.2637 " fill="none" id="AppointmentTokens-to-ERC721Enumerable" style="stroke:#181818;stroke-width:1.0;"/><polygon fill="none" points="1028.48,1116.123,1042.28,1103.1015,1031.7072,1097.4258,1028.48,1116.123" style="stroke:#181818;stroke-width:1.0;"/></g><!--link AppointmentTokens to ERC721Burnable--><g id="link_AppointmentTokens_ERC721Burnable"><path codeLine="146" d="M1294.09,869.032 C1308.38,1006.312 1323.8283,1154.7685 1330.6583,1220.4495 " fill="none" id="AppointmentTokens-to-ERC721Burnable" style="stroke:#181818;stroke-width:1.0;"/><polygon fill="none" points="1332.52,1238.353,1336.6261,1219.829,1324.6904,1221.0701,1332.52,1238.353" style="stroke:#181818;stroke-width:1.0;"/></g><!--link AppointmentTokens to AccessControl--><g id="link_AppointmentTokens_AccessControl"><path codeLine="147" d="M1624.05,759.406 C1732.05,800.4 1846.57,855.926 1938.5,929 C2007.55,983.887 2055.6161,1048.7991 2096.4361,1117.4051 " fill="none" id="AppointmentTokens-to-AccessControl" style="stroke:#181818;stroke-width:1.0;"/><polygon fill="none" points="2105.64,1132.874,2101.5924,1114.3371,2091.2798,1120.473,2105.64,1132.874" style="stroke:#181818;stroke-width:1.0;"/></g><!--link AppointmentTokens to ERC721Pausable--><g id="link_AppointmentTokens_ERC721Pausable"><path codeLine="148" d="M1414.4,869.032 C1508.26,1006.312 1611.8403,1157.8133 1656.7503,1223.4943 " fill="none" id="AppointmentTokens-to-ERC721Pausable" style="stroke:#181818;stroke-width:1.0;"/><polygon fill="none" points="1666.91,1238.353,1661.7031,1220.1078,1651.7974,1226.8809,1666.91,1238.353" style="stroke:#181818;stroke-width:1.0;"/></g><!--SRC=[xLTRRzis57xthn2m5ncn7vBk1gCBO2SEPg2f0yzz2eA0fkYOY2Hgb9JLxVhVTqYHD2bHjXndw1xMXo8Ml_FntCyXMkK5HxW8fekhNoxEWw-z0FuDWwzhIkBeM_2OeeIC0W3HzAb-bc-J5OlRJjbVAU7vA4XGbi5nMDAqkFZfv-2tom154ITvtg-Bh52CKami8OKKGag-8LImPvAEiuop5nGVTn_B24S5unvfwsBFfnLZSR-YEmimIy439GQYqF7NeEuYBP6NMSPuaS_IWl0rmYIa-gzPD0fMsuBaF_P7yXebebmpNuVIhoDZqqWxHW7bCS2aMmIRzfiHKK2XQTXteWUQINrhdtyGaSd9fyMiWPUtY0FFTGuGIHSJm1az1a53I86VI565X4I7xSWr6CKt4Ceu3dLOhPlKzL7bKtqFpVKrMjBnxI1eCBb1WT99ypNXDvmbuHh-SsphO6YErcJvNKaWHoDK89LqVHtlZba4o2DY1MZmU5bi6ATV05xtTfwHD7A-U0YD-u4DRmX-FetGA9PYJY399rMTXGXZLgQ59GhvLP9AyFpYLoDOPk2_0taD-GTAsabKSqi2k2wb0L0HxTktXWy2NnAiIfw6hSmw-L-HiqglvVTXy1lRgK7L0tcAy20W2IscBqHasQuh2SkQ7UrGN_9tEE3YvC-ISZ87WWwzjAgeULfj0mk22HLrVO9tl_LwoDqnfccPWFQhc3It3M5dj1IC-qUnDTkrAVqzN3Fe0fz7-wJhmYYEjHeASl_GYkb8VnQyVqyuP_poKhbYNXRpzGJwJ5Hn65Dbl0TQFA3Yi8ravqz8bXMD8f9EK84tikfFs3XaOEThaJbyigtqg-SXhIpVfPExYnIiGF4VS7My3Js7mA-9znAzLPU5dp9WIoQDKeuhA4ixDjCTmLZ7tYLfaUCaWTAK0c90Dsvlr5StdkEKE3pXK59zC2EkMRmJ60ccT64hRKm8dz0TAdCZT78mRVunXjT2ViNIWhDOqblr2P_ifuJCyNSNeYmNS78DNQelZT02rzERyQSFoyVnzUtiu-DY_c6g2kFTHQygl8H55C2YzbWQRmLDA6unk8hmo68x2pOeRtA11seHsedetSUlGVkfXxEd5cu17aUmYDJuN1yymS0jklDoyW9nFGQVmbVibS3GRmc7MAyfJsIkEy93EJTRh83xnCT5tLCWrDqYu_sXgCJEXYanI5iS8-ZjT_0LSve92whoRSn1o5W6APF0Qb0bD-IwsyrsM5KuItO5DVN4-BPr49qtnbm0YRwSBXgvhiQCM4qWrSKW8P6jjc5Mbm-qRX10J3DAH1-eqqmOWAFnpZJ3abdKWan_jzmmYvhZJnbCINuDFheLCozieZwoLBlmIcQG1tDDPN-ARY3tf7qdFEtbxcQYDwxy4cAbWlfTso2hDroNDHsR8DiHbGLykwsoIKpQa4PgSxb_C4AKv5hi_i4Ir8dZMmyhkC8cw9dOyNFZPhTkEt3Drptib7OsJH1-3ZSipoXi2vRr6HGvSGPKsmlOUOVlnfd-evfB5JI3MKHCVClK_Vq6UyRPQz-IHyuDqq-iYBIq4pjE_se_CRA_etpZbRDwhrVmhfPItLVs8rgPhmSf3Pfjwqg44Fg6Lyf9z5tZSWlZlz2JRB- -fYdLAo0X1HBll2hGren-HNk2xMSZMfDYUSkE1LYXeG_dfWZvZ3SeVH9FA6VG7VVoRMc89d8obUmyGhNQ_R-pLPtDioCDXt_h5- -1uzs3-01GFsPQOSxpuW2PVkJuOPVDDjthDJktRUJUKyl6lJXZOWlAjN0lbJ7GXxhqhRMzteP69C2KuvZy0m00]--></g></svg>