<?xml version="1.0" encoding="us-ascii" standalone="no"?><svg xmlns="http://www.w3.org/2000/svg" xmlns:xlink="http://www.w3.org/1999/xlink" contentStyleType="text/css" height="511px" preserveAspectRatio="none" style="width:966px;height:511px;background:#FFFFFF;" version="1.1" viewBox="0 0 966 511" width="966px" zoomAndPan="magnify"><defs/><g><text fill="#000000" font-family="sans-serif" font-size="14" font-weight="bold" lengthAdjust="spacing" textLength="147" x="409" y="27.9951">Grant Doctor Role</text><rect fill="#90EE90" height="177.6016" style="stroke:#000000;stroke-width:1.5;" width="813.5" x="10" y="235.9922"/><rect fill="#F08080" height="73.0703" style="stroke:none;stroke-width:1.0;" width="813.5" x="10" y="340.5234"/><line style="stroke:#181818;stroke-width:0.5;stroke-dasharray:5.0,5.0;" x1="68" x2="68" y1="118.5938" y2="430.5938"/><line style="stroke:#181818;stroke-width:0.5;stroke-dasharray:5.0,5.0;" x1="155" x2="155" y1="118.5938" y2="430.5938"/><line style="stroke:#181818;stroke-width:0.5;stroke-dasharray:5.0,5.0;" x1="491" x2="491" y1="118.5938" y2="430.5938"/><line style="stroke:#181818;stroke-width:0.5;stroke-dasharray:5.0,5.0;" x1="754.5" x2="754.5" y1="118.5938" y2="430.5938"/><text fill="#000000" font-family="sans-serif" font-size="14" lengthAdjust="spacing" textLength="91" x="20" y="115.292">Government</text><ellipse cx="68.5" cy="50.7969" fill="#E2E2F0" rx="8" ry="8" style="stroke:#181818;stroke-width:0.5;"/><path d="M68.5,58.7969 L68.5,85.7969 M55.5,66.7969 L81.5,66.7969 M68.5,85.7969 L55.5,100.7969 M68.5,85.7969 L81.5,100.7969 " fill="none" style="stroke:#181818;stroke-width:0.5;"/><text fill="#000000" font-family="sans-serif" font-size="14" lengthAdjust="spacing" textLength="91" x="20" y="442.5889">Government</text><ellipse cx="68.5" cy="454.3906" fill="#E2E2F0" rx="8" ry="8" style="stroke:#181818;stroke-width:0.5;"/><path d="M68.5,462.3906 L68.5,489.3906 M55.5,470.3906 L81.5,470.3906 M68.5,489.3906 L55.5,504.3906 M68.5,489.3906 L81.5,504.3906 " fill="none" style="stroke:#181818;stroke-width:0.5;"/><text fill="#000000" font-family="sans-serif" font-size="14" lengthAdjust="spacing" textLength="50" x="127" y="115.292">Doctor</text><ellipse cx="155" cy="50.7969" fill="#E2E2F0" rx="8" ry="8" style="stroke:#181818;stroke-width:0.5;"/><path d="M155,58.7969 L155,85.7969 M142,66.7969 L168,66.7969 M155,85.7969 L142,100.7969 M155,85.7969 L168,100.7969 " fill="none" style="stroke:#181818;stroke-width:0.5;"/><text fill="#000000" font-family="sans-serif" font-size="14" lengthAdjust="spacing" textLength="50" x="127" y="442.5889">Doctor</text><ellipse cx="155" cy="454.3906" fill="#E2E2F0" rx="8" ry="8" style="stroke:#181818;stroke-width:0.5;"/><path d="M155,462.3906 L155,489.3906 M142,470.3906 L168,470.3906 M155,489.3906 L142,504.3906 M155,489.3906 L168,504.3906 " fill="none" style="stroke:#181818;stroke-width:0.5;"/><rect fill="#E2E2F0" height="30.2969" rx="2.5" ry="2.5" style="stroke:#181818;stroke-width:0.5;" width="210" x="386" y="87.2969"/><text fill="#000000" font-family="sans-serif" font-size="14" lengthAdjust="spacing" textLength="196" x="393" y="107.292">PrescriptionSmartContract</text><rect fill="#E2E2F0" height="30.2969" rx="2.5" ry="2.5" style="stroke:#181818;stroke-width:0.5;" width="210" x="386" y="429.5938"/><text fill="#000000" font-family="sans-serif" font-size="14" lengthAdjust="spacing" textLength="196" x="393" y="449.5889">PrescriptionSmartContract</text><rect fill="#E2E2F0" height="30.2969" rx="2.5" ry="2.5" style="stroke:#181818;stroke-width:0.5;" width="117" x="696.5" y="87.2969"/><text fill="#000000" font-family="sans-serif" font-size="14" lengthAdjust="spacing" textLength="103" x="703.5" y="107.292">AccessControl</text><rect fill="#E2E2F0" height="30.2969" rx="2.5" ry="2.5" style="stroke:#181818;stroke-width:0.5;" width="117" x="696.5" y="429.5938"/><text fill="#000000" font-family="sans-serif" font-size="14" lengthAdjust="spacing" textLength="103" x="703.5" y="449.5889">AccessControl</text><polygon fill="#181818" points="479,145.7266,489,149.7266,479,153.7266,483,149.7266" style="stroke:#181818;stroke-width:1.0;"/><line style="stroke:#181818;stroke-width:1.0;" x1="68.5" x2="485" y1="149.7266" y2="149.7266"/><text fill="#000000" font-family="sans-serif" font-size="13" font-weight="bold" lengthAdjust="spacing" textLength="9" x="75.5" y="144.6606">1</text><text fill="#000000" font-family="sans-serif" font-size="13" lengthAdjust="spacing" textLength="128" x="88.5" y="144.6606">Grant role to Doctor</text><polygon fill="#181818" points="743,174.8594,753,178.8594,743,182.8594,747,178.8594" style="stroke:#181818;stroke-width:1.0;"/><line style="stroke:#181818;stroke-width:1.0;" x1="491" x2="749" y1="178.8594" y2="178.8594"/><text fill="#000000" font-family="sans-serif" font-size="13" font-weight="bold" lengthAdjust="spacing" textLength="9" x="498" y="173.7935">2</text><text fill="#000000" font-family="sans-serif" font-size="13" lengthAdjust="spacing" textLength="128" x="511" y="173.7935">Grant role to Doctor</text><line style="stroke:#181818;stroke-width:1.0;" x1="755" x2="797" y1="207.9922" y2="207.9922"/><line style="stroke:#181818;stroke-width:1.0;" x1="797" x2="797" y1="207.9922" y2="220.9922"/><line style="stroke:#181818;stroke-width:1.0;" x1="756" x2="797" y1="220.9922" y2="220.9922"/><polygon fill="#181818" points="766,216.9922,756,220.9922,766,224.9922,762,220.9922" style="stroke:#181818;stroke-width:1.0;"/><text fill="#000000" font-family="sans-serif" font-size="13" font-weight="bold" lengthAdjust="spacing" textLength="8" x="762" y="202.9263">3</text><text fill="#000000" font-family="sans-serif" font-size="13" lengthAdjust="spacing" textLength="185" x="774" y="202.9263">Check if sender is authorized</text><path d="M10,235.9922 L76,235.9922 L76,243.125 L66,253.125 L10,253.125 L10,235.9922 " fill="#EEEEEE" style="stroke:#000000;stroke-width:1.5;"/><rect fill="none" height="177.6016" style="stroke:#000000;stroke-width:1.5;" width="813.5" x="10" y="235.9922"/><text fill="#000000" font-family="sans-serif" font-size="13" font-weight="bold" lengthAdjust="spacing" textLength="21" x="25" y="249.0591">alt</text><text fill="#000000" font-family="sans-serif" font-size="11" font-weight="bold" lengthAdjust="spacing" textLength="144" x="91" y="248.2026">[Valid Public Address]</text><polygon fill="#181818" points="502,270.2578,492,274.2578,502,278.2578,498,274.2578" style="stroke:#181818;stroke-width:1.0;"/><line style="stroke:#181818;stroke-width:1.0;" x1="496" x2="754" y1="274.2578" y2="274.2578"/><text fill="#000000" font-family="sans-serif" font-size="13" font-weight="bold" lengthAdjust="spacing" textLength="9" x="508" y="269.1919">4</text><text fill="#000000" font-family="sans-serif" font-size="13" lengthAdjust="spacing" textLength="125" x="521" y="269.1919">Doctor role granted</text><polygon fill="#181818" points="79.5,299.3906,69.5,303.3906,79.5,307.3906,75.5,303.3906" style="stroke:#181818;stroke-width:1.0;"/><line style="stroke:#181818;stroke-width:1.0;" x1="73.5" x2="754" y1="303.3906" y2="303.3906"/><text fill="#000000" font-family="sans-serif" font-size="13" font-weight="bold" lengthAdjust="spacing" textLength="9" x="85.5" y="298.3247">5</text><text fill="#000000" font-family="sans-serif" font-size="13" lengthAdjust="spacing" textLength="154" x="98.5" y="298.3247">Emit RoleGranted event</text><polygon fill="#181818" points="166,328.5234,156,332.5234,166,336.5234,162,332.5234" style="stroke:#181818;stroke-width:1.0;"/><line style="stroke:#181818;stroke-width:1.0;" x1="160" x2="490" y1="332.5234" y2="332.5234"/><text fill="#000000" font-family="sans-serif" font-size="13" font-weight="bold" lengthAdjust="spacing" textLength="9" x="172" y="327.4575">6</text><text fill="#000000" font-family="sans-serif" font-size="13" lengthAdjust="spacing" textLength="274" x="185" y="327.4575">Doctor enabled to mint prescription tokens</text><line style="stroke:#000000;stroke-width:1.0;stroke-dasharray:2.0,2.0;" x1="10" x2="823.5" y1="341.5234" y2="341.5234"/><text fill="#000000" font-family="sans-serif" font-size="11" font-weight="bold" lengthAdjust="spacing" textLength="154" x="15" y="351.7339">[Invalid Public Address]</text><polygon fill="#181818" points="502,372.4609,492,376.4609,502,380.4609,498,376.4609" style="stroke:#181818;stroke-width:1.0;"/><line style="stroke:#181818;stroke-width:1.0;" x1="496" x2="754" y1="376.4609" y2="376.4609"/><text fill="#000000" font-family="sans-serif" font-size="13" font-weight="bold" lengthAdjust="spacing" textLength="9" x="508" y="371.395">7</text><text fill="#000000" font-family="sans-serif" font-size="13" lengthAdjust="spacing" textLength="227" x="521" y="371.395">Revert and do not grant doctor role</text><polygon fill="#181818" points="166,401.5938,156,405.5938,166,409.5938,162,405.5938" style="stroke:#181818;stroke-width:1.0;"/><line style="stroke:#181818;stroke-width:1.0;" x1="160" x2="490" y1="405.5938" y2="405.5938"/><text fill="#000000" font-family="sans-serif" font-size="13" font-weight="bold" lengthAdjust="spacing" textLength="9" x="172" y="400.5278">8</text><text fill="#000000" font-family="sans-serif" font-size="13" lengthAdjust="spacing" textLength="299" x="185" y="400.5278">Doctor not enabled to mint prescription tokens</text><!--SRC=[hL7DIWD13BxFKmGy-m8z2ANA8dWe5RnFPs8REfiicRG7dzxiTgrTR8k2UzjCljyOMK5eDBB1eoGJXPKK375lmljsZHf27CQD752vHRPnS5mFNLIZH5tFi5IiIQap4dvj_M4XREhhawrvIbZhy2GbXF3D3FSFrpbWDlfq58B9bu7h06URQ5rZc2vTG2ssc7P0xr2HCofG1IzeAqeVcBsWOd3tGfkjDOh8y1OBPLZkruKIp7DsWpK4yE-7qgsqupq6ivlUjsjT93ahS0PFBTbmm-O80JpqD-k1DviQrKwoo75T7EurjUJCtHdOXpjapuIbuXXz8HeBFFFXVyAltBOQHCwG1LZiM87_d4hvUwQUvdUvE7y2]--></g></svg>