<?xml version="1.0" encoding="us-ascii" standalone="no"?><svg xmlns="http://www.w3.org/2000/svg" xmlns:xlink="http://www.w3.org/1999/xlink" contentStyleType="text/css" height="511px" preserveAspectRatio="none" style="width:995px;height:511px;background:#FFFFFF;" version="1.1" viewBox="0 0 995 511" width="995px" zoomAndPan="magnify"><defs/><g><text fill="#000000" font-family="sans-serif" font-size="14" font-weight="bold" lengthAdjust="spacing" textLength="160" x="417.25" y="27.9951">Grant Hospital Role</text><rect fill="#90EE90" height="177.6016" style="stroke:#000000;stroke-width:1.5;" width="843" x="10" y="235.9922"/><rect fill="#F08080" height="73.0703" style="stroke:none;stroke-width:1.0;" width="843" x="10" y="340.5234"/><line style="stroke:#181818;stroke-width:0.5;stroke-dasharray:5.0,5.0;" x1="68" x2="68" y1="118.5938" y2="430.5938"/><line style="stroke:#181818;stroke-width:0.5;stroke-dasharray:5.0,5.0;" x1="159" x2="159" y1="118.5938" y2="430.5938"/><line style="stroke:#181818;stroke-width:0.5;stroke-dasharray:5.0,5.0;" x1="510.5" x2="510.5" y1="118.5938" y2="430.5938"/><line style="stroke:#181818;stroke-width:0.5;stroke-dasharray:5.0,5.0;" x1="784" x2="784" y1="118.5938" y2="430.5938"/><text fill="#000000" font-family="sans-serif" font-size="14" lengthAdjust="spacing" textLength="91" x="20" y="115.292">Government</text><ellipse cx="68.5" cy="50.7969" fill="#E2E2F0" rx="8" ry="8" style="stroke:#181818;stroke-width:0.5;"/><path d="M68.5,58.7969 L68.5,85.7969 M55.5,66.7969 L81.5,66.7969 M68.5,85.7969 L55.5,100.7969 M68.5,85.7969 L81.5,100.7969 " fill="none" style="stroke:#181818;stroke-width:0.5;"/><text fill="#000000" font-family="sans-serif" font-size="14" lengthAdjust="spacing" textLength="91" x="20" y="442.5889">Government</text><ellipse cx="68.5" cy="454.3906" fill="#E2E2F0" rx="8" ry="8" style="stroke:#181818;stroke-width:0.5;"/><path d="M68.5,462.3906 L68.5,489.3906 M55.5,470.3906 L81.5,470.3906 M68.5,489.3906 L55.5,504.3906 M68.5,489.3906 L81.5,504.3906 " fill="none" style="stroke:#181818;stroke-width:0.5;"/><text fill="#000000" font-family="sans-serif" font-size="14" lengthAdjust="spacing" textLength="59" x="127" y="115.292">Hospital</text><ellipse cx="159.5" cy="50.7969" fill="#E2E2F0" rx="8" ry="8" style="stroke:#181818;stroke-width:0.5;"/><path d="M159.5,58.7969 L159.5,85.7969 M146.5,66.7969 L172.5,66.7969 M159.5,85.7969 L146.5,100.7969 M159.5,85.7969 L172.5,100.7969 " fill="none" style="stroke:#181818;stroke-width:0.5;"/><text fill="#000000" font-family="sans-serif" font-size="14" lengthAdjust="spacing" textLength="59" x="127" y="442.5889">Hospital</text><ellipse cx="159.5" cy="454.3906" fill="#E2E2F0" rx="8" ry="8" style="stroke:#181818;stroke-width:0.5;"/><path d="M159.5,462.3906 L159.5,489.3906 M146.5,470.3906 L172.5,470.3906 M159.5,489.3906 L146.5,504.3906 M159.5,489.3906 L172.5,504.3906 " fill="none" style="stroke:#181818;stroke-width:0.5;"/><rect fill="#E2E2F0" height="30.2969" rx="2.5" ry="2.5" style="stroke:#181818;stroke-width:0.5;" width="220" x="400.5" y="87.2969"/><text fill="#000000" font-family="sans-serif" font-size="14" lengthAdjust="spacing" textLength="206" x="407.5" y="107.292">AppointmentSmartContract</text><rect fill="#E2E2F0" height="30.2969" rx="2.5" ry="2.5" style="stroke:#181818;stroke-width:0.5;" width="220" x="400.5" y="429.5938"/><text fill="#000000" font-family="sans-serif" font-size="14" lengthAdjust="spacing" textLength="206" x="407.5" y="449.5889">AppointmentSmartContract</text><rect fill="#E2E2F0" height="30.2969" rx="2.5" ry="2.5" style="stroke:#181818;stroke-width:0.5;" width="117" x="726" y="87.2969"/><text fill="#000000" font-family="sans-serif" font-size="14" lengthAdjust="spacing" textLength="103" x="733" y="107.292">AccessControl</text><rect fill="#E2E2F0" height="30.2969" rx="2.5" ry="2.5" style="stroke:#181818;stroke-width:0.5;" width="117" x="726" y="429.5938"/><text fill="#000000" font-family="sans-serif" font-size="14" lengthAdjust="spacing" textLength="103" x="733" y="449.5889">AccessControl</text><polygon fill="#181818" points="498.5,145.7266,508.5,149.7266,498.5,153.7266,502.5,149.7266" style="stroke:#181818;stroke-width:1.0;"/><line style="stroke:#181818;stroke-width:1.0;" x1="68.5" x2="504.5" y1="149.7266" y2="149.7266"/><text fill="#000000" font-family="sans-serif" font-size="13" font-weight="bold" lengthAdjust="spacing" textLength="9" x="75.5" y="144.6606">1</text><text fill="#000000" font-family="sans-serif" font-size="13" lengthAdjust="spacing" textLength="136" x="88.5" y="144.6606">Grant role to Hospital</text><polygon fill="#181818" points="772.5,174.8594,782.5,178.8594,772.5,182.8594,776.5,178.8594" style="stroke:#181818;stroke-width:1.0;"/><line style="stroke:#181818;stroke-width:1.0;" x1="510.5" x2="778.5" y1="178.8594" y2="178.8594"/><text fill="#000000" font-family="sans-serif" font-size="13" font-weight="bold" lengthAdjust="spacing" textLength="9" x="517.5" y="173.7935">2</text><text fill="#000000" font-family="sans-serif" font-size="13" lengthAdjust="spacing" textLength="136" x="530.5" y="173.7935">Grant role to Hospital</text><line style="stroke:#181818;stroke-width:1.0;" x1="784.5" x2="826.5" y1="207.9922" y2="207.9922"/><line style="stroke:#181818;stroke-width:1.0;" x1="826.5" x2="826.5" y1="207.9922" y2="220.9922"/><line style="stroke:#181818;stroke-width:1.0;" x1="785.5" x2="826.5" y1="220.9922" y2="220.9922"/><polygon fill="#181818" points="795.5,216.9922,785.5,220.9922,795.5,224.9922,791.5,220.9922" style="stroke:#181818;stroke-width:1.0;"/><text fill="#000000" font-family="sans-serif" font-size="13" font-weight="bold" lengthAdjust="spacing" textLength="8" x="791.5" y="202.9263">3</text><text fill="#000000" font-family="sans-serif" font-size="13" lengthAdjust="spacing" textLength="185" x="803.5" y="202.9263">Check if sender is authorized</text><path d="M10,235.9922 L76,235.9922 L76,243.125 L66,253.125 L10,253.125 L10,235.9922 " fill="#EEEEEE" style="stroke:#000000;stroke-width:1.5;"/><rect fill="none" height="177.6016" style="stroke:#000000;stroke-width:1.5;" width="843" x="10" y="235.9922"/><text fill="#000000" font-family="sans-serif" font-size="13" font-weight="bold" lengthAdjust="spacing" textLength="21" x="25" y="249.0591">alt</text><text fill="#000000" font-family="sans-serif" font-size="11" font-weight="bold" lengthAdjust="spacing" textLength="144" x="91" y="248.2026">[Valid Public Address]</text><polygon fill="#181818" points="521.5,270.2578,511.5,274.2578,521.5,278.2578,517.5,274.2578" style="stroke:#181818;stroke-width:1.0;"/><line style="stroke:#181818;stroke-width:1.0;" x1="515.5" x2="783.5" y1="274.2578" y2="274.2578"/><text fill="#000000" font-family="sans-serif" font-size="13" font-weight="bold" lengthAdjust="spacing" textLength="9" x="527.5" y="269.1919">4</text><text fill="#000000" font-family="sans-serif" font-size="13" lengthAdjust="spacing" textLength="133" x="540.5" y="269.1919">Hospital role granted</text><polygon fill="#181818" points="79.5,299.3906,69.5,303.3906,79.5,307.3906,75.5,303.3906" style="stroke:#181818;stroke-width:1.0;"/><line style="stroke:#181818;stroke-width:1.0;" x1="73.5" x2="783.5" y1="303.3906" y2="303.3906"/><text fill="#000000" font-family="sans-serif" font-size="13" font-weight="bold" lengthAdjust="spacing" textLength="9" x="85.5" y="298.3247">5</text><text fill="#000000" font-family="sans-serif" font-size="13" lengthAdjust="spacing" textLength="154" x="98.5" y="298.3247">Emit RoleGranted event</text><polygon fill="#181818" points="170.5,328.5234,160.5,332.5234,170.5,336.5234,166.5,332.5234" style="stroke:#181818;stroke-width:1.0;"/><line style="stroke:#181818;stroke-width:1.0;" x1="164.5" x2="509.5" y1="332.5234" y2="332.5234"/><text fill="#000000" font-family="sans-serif" font-size="13" font-weight="bold" lengthAdjust="spacing" textLength="9" x="176.5" y="327.4575">6</text><text fill="#000000" font-family="sans-serif" font-size="13" lengthAdjust="spacing" textLength="289" x="189.5" y="327.4575">Hospital enabled to mint appointment tokens</text><line style="stroke:#000000;stroke-width:1.0;stroke-dasharray:2.0,2.0;" x1="10" x2="853" y1="341.5234" y2="341.5234"/><text fill="#000000" font-family="sans-serif" font-size="11" font-weight="bold" lengthAdjust="spacing" textLength="154" x="15" y="351.7339">[Invalid Public Address]</text><polygon fill="#181818" points="521.5,372.4609,511.5,376.4609,521.5,380.4609,517.5,376.4609" style="stroke:#181818;stroke-width:1.0;"/><line style="stroke:#181818;stroke-width:1.0;" x1="515.5" x2="783.5" y1="376.4609" y2="376.4609"/><text fill="#000000" font-family="sans-serif" font-size="13" font-weight="bold" lengthAdjust="spacing" textLength="9" x="527.5" y="371.395">7</text><text fill="#000000" font-family="sans-serif" font-size="13" lengthAdjust="spacing" textLength="237" x="540.5" y="371.395">Revert and do not grant Hospital role</text><polygon fill="#181818" points="170.5,401.5938,160.5,405.5938,170.5,409.5938,166.5,405.5938" style="stroke:#181818;stroke-width:1.0;"/><line style="stroke:#181818;stroke-width:1.0;" x1="164.5" x2="509.5" y1="405.5938" y2="405.5938"/><text fill="#000000" font-family="sans-serif" font-size="13" font-weight="bold" lengthAdjust="spacing" textLength="9" x="176.5" y="400.5278">8</text><text fill="#000000" font-family="sans-serif" font-size="13" lengthAdjust="spacing" textLength="314" x="189.5" y="400.5278">Hospital not enabled to mint appointment tokens</text><!--SRC=[hL7DQiCm3BxxAGGxxmLw69Gmii4EeuFT7LjhJ1qfs4eEU_efQTOah2bZp4TPtwyaI4GeaoM19yvj41lXm16DxOIfQofCnbWddA3a7XCrI38DlW6cjKc22-t0iczR3YJ3sbkZyu99akwlbvp3dCSlZiQOcHhk7pOfO3SvLH22y6nW4p6mBRLkKApMhk2A6jq9mWTa98y9GWRjgEOKFj5hHr7WxYKSQoaJ8i6xZS73QrV5u63lVL8oOq3VJwNjl9URZ7wFWtKLkygow707ZqsGyOxb6GBO3tSRWJUwkiWjb95i5PL1oseK1tR6w-o4fB4mPfpI5vmKz4pzl-G_gE-ackJ1Cn3BkODrBt-ADN3zAXhvBm00]--></g></svg>