<?xml version="1.0" encoding="us-ascii" standalone="no"?><svg xmlns="http://www.w3.org/2000/svg" xmlns:xlink="http://www.w3.org/1999/xlink" contentStyleType="text/css" height="965px" preserveAspectRatio="none" style="width:1035px;height:965px;background:#FFFFFF;" version="1.1" viewBox="0 0 1035 965" width="1035px" zoomAndPan="magnify"><defs/><g><text fill="#000000" font-family="sans-serif" font-size="14" font-weight="bold" lengthAdjust="spacing" textLength="44" x="496.75" y="27.9951">Login</text><rect fill="#90EE90" height="265" style="stroke:#000000;stroke-width:1.5;" width="1018.5" x="10" y="222.9922"/><rect fill="#F08080" height="102.2031" style="stroke:none;stroke-width:1.0;" width="1018.5" x="10" y="385.7891"/><rect fill="#90EE90" height="235.8672" style="stroke:#000000;stroke-width:1.5;" width="1018.5" x="10" y="631.5234"/><rect fill="#F08080" height="73.0703" style="stroke:none;stroke-width:1.0;" width="1018.5" x="10" y="794.3203"/><line style="stroke:#181818;stroke-width:0.5;stroke-dasharray:5.0,5.0;" x1="38" x2="38" y1="118.5938" y2="884.3906"/><line style="stroke:#181818;stroke-width:0.5;stroke-dasharray:5.0,5.0;" x1="314.5" x2="314.5" y1="118.5938" y2="884.3906"/><line style="stroke:#181818;stroke-width:0.5;stroke-dasharray:5.0,5.0;" x1="446.5" x2="446.5" y1="118.5938" y2="884.3906"/><line style="stroke:#181818;stroke-width:0.5;stroke-dasharray:5.0,5.0;" x1="727.5" x2="727.5" y1="118.5938" y2="884.3906"/><line style="stroke:#181818;stroke-width:0.5;stroke-dasharray:5.0,5.0;" x1="981.5" x2="981.5" y1="118.5938" y2="884.3906"/><text fill="#000000" font-family="sans-serif" font-size="14" lengthAdjust="spacing" textLength="31" x="20" y="115.292">User</text><ellipse cx="38.5" cy="50.7969" fill="#E2E2F0" rx="8" ry="8" style="stroke:#181818;stroke-width:0.5;"/><path d="M38.5,58.7969 L38.5,85.7969 M25.5,66.7969 L51.5,66.7969 M38.5,85.7969 L25.5,100.7969 M38.5,85.7969 L51.5,100.7969 " fill="none" style="stroke:#181818;stroke-width:0.5;"/><text fill="#000000" font-family="sans-serif" font-size="14" lengthAdjust="spacing" textLength="31" x="20" y="896.3857">User</text><ellipse cx="38.5" cy="908.1875" fill="#E2E2F0" rx="8" ry="8" style="stroke:#181818;stroke-width:0.5;"/><path d="M38.5,916.1875 L38.5,943.1875 M25.5,924.1875 L51.5,924.1875 M38.5,943.1875 L25.5,958.1875 M38.5,943.1875 L51.5,958.1875 " fill="none" style="stroke:#181818;stroke-width:0.5;"/><rect fill="#E2E2F0" height="30.2969" rx="2.5" ry="2.5" style="stroke:#181818;stroke-width:0.5;" width="88" x="270.5" y="87.2969"/><text fill="#000000" font-family="sans-serif" font-size="14" lengthAdjust="spacing" textLength="74" x="277.5" y="107.292">Metamask</text><rect fill="#E2E2F0" height="30.2969" rx="2.5" ry="2.5" style="stroke:#181818;stroke-width:0.5;" width="88" x="270.5" y="883.3906"/><text fill="#000000" font-family="sans-serif" font-size="14" lengthAdjust="spacing" textLength="74" x="277.5" y="903.3857">Metamask</text><text fill="#000000" font-family="sans-serif" font-size="14" lengthAdjust="spacing" textLength="74" x="406.5" y="115.292">LoginPage</text><path d="M426,74.2969 L426,98.2969 M426,86.2969 L443,86.2969 " fill="none" style="stroke:#181818;stroke-width:0.5;"/><ellipse cx="455" cy="86.2969" fill="#E2E2F0" rx="12" ry="12" style="stroke:#181818;stroke-width:0.5;"/><text fill="#000000" font-family="sans-serif" font-size="14" lengthAdjust="spacing" textLength="74" x="406.5" y="896.3857">LoginPage</text><path d="M426,903.6875 L426,927.6875 M426,915.6875 L443,915.6875 " fill="none" style="stroke:#181818;stroke-width:0.5;"/><ellipse cx="455" cy="915.6875" fill="#E2E2F0" rx="12" ry="12" style="stroke:#181818;stroke-width:0.5;"/><text fill="#000000" font-family="sans-serif" font-size="14" lengthAdjust="spacing" textLength="112" x="668.5" y="115.292">LoginController</text><ellipse cx="727.5" cy="86.2969" fill="#E2E2F0" rx="12" ry="12" style="stroke:#181818;stroke-width:0.5;"/><polygon fill="#181818" points="723.5,74.2969,729.5,69.2969,727.5,74.2969,729.5,79.2969,723.5,74.2969" style="stroke:#181818;stroke-width:1.0;"/><text fill="#000000" font-family="sans-serif" font-size="14" lengthAdjust="spacing" textLength="112" x="668.5" y="896.3857">LoginController</text><ellipse cx="727.5" cy="915.6875" fill="#E2E2F0" rx="12" ry="12" style="stroke:#181818;stroke-width:0.5;"/><polygon fill="#181818" points="723.5,903.6875,729.5,898.6875,727.5,903.6875,729.5,908.6875,723.5,903.6875" style="stroke:#181818;stroke-width:1.0;"/><text fill="#000000" font-family="sans-serif" font-size="14" lengthAdjust="spacing" textLength="68" x="944.5" y="115.292">Database</text><path d="M963.5,66.2969 C963.5,56.2969 981.5,56.2969 981.5,56.2969 C981.5,56.2969 999.5,56.2969 999.5,66.2969 L999.5,92.2969 C999.5,102.2969 981.5,102.2969 981.5,102.2969 C981.5,102.2969 963.5,102.2969 963.5,92.2969 L963.5,66.2969 " fill="#E2E2F0" style="stroke:#181818;stroke-width:1.5;"/><path d="M963.5,66.2969 C963.5,76.2969 981.5,76.2969 981.5,76.2969 C981.5,76.2969 999.5,76.2969 999.5,66.2969 " fill="none" style="stroke:#181818;stroke-width:1.5;"/><text fill="#000000" font-family="sans-serif" font-size="14" lengthAdjust="spacing" textLength="68" x="944.5" y="896.3857">Database</text><path d="M963.5,909.6875 C963.5,899.6875 981.5,899.6875 981.5,899.6875 C981.5,899.6875 999.5,899.6875 999.5,909.6875 L999.5,935.6875 C999.5,945.6875 981.5,945.6875 981.5,945.6875 C981.5,945.6875 963.5,945.6875 963.5,935.6875 L963.5,909.6875 " fill="#E2E2F0" style="stroke:#181818;stroke-width:1.5;"/><path d="M963.5,909.6875 C963.5,919.6875 981.5,919.6875 981.5,919.6875 C981.5,919.6875 999.5,919.6875 999.5,909.6875 " fill="none" style="stroke:#181818;stroke-width:1.5;"/><polygon fill="#181818" points="434.5,145.7266,444.5,149.7266,434.5,153.7266,438.5,149.7266" style="stroke:#181818;stroke-width:1.0;"/><line style="stroke:#181818;stroke-width:1.0;" x1="38.5" x2="440.5" y1="149.7266" y2="149.7266"/><text fill="#000000" font-family="sans-serif" font-size="13" font-weight="bold" lengthAdjust="spacing" textLength="9" x="45.5" y="144.6606">1</text><text fill="#000000" font-family="sans-serif" font-size="13" lengthAdjust="spacing" textLength="244" x="58.5" y="144.6606">I want to login with this public address</text><polygon fill="#181818" points="715.5,174.8594,725.5,178.8594,715.5,182.8594,719.5,178.8594" style="stroke:#181818;stroke-width:1.0;"/><line style="stroke:#181818;stroke-width:1.0;" x1="446.5" x2="721.5" y1="178.8594" y2="178.8594"/><text fill="#000000" font-family="sans-serif" font-size="13" font-weight="bold" lengthAdjust="spacing" textLength="9" x="453.5" y="173.7935">2</text><text fill="#000000" font-family="sans-serif" font-size="13" lengthAdjust="spacing" textLength="244" x="466.5" y="173.7935">I want to login with this public address</text><polygon fill="#181818" points="969.5,203.9922,979.5,207.9922,969.5,211.9922,973.5,207.9922" style="stroke:#181818;stroke-width:1.0;"/><line style="stroke:#181818;stroke-width:1.0;" x1="727.5" x2="975.5" y1="207.9922" y2="207.9922"/><text fill="#000000" font-family="sans-serif" font-size="13" font-weight="bold" lengthAdjust="spacing" textLength="8" x="734.5" y="202.9263">3</text><text fill="#000000" font-family="sans-serif" font-size="13" lengthAdjust="spacing" textLength="174" x="746.5" y="202.9263">Is this public address valid?</text><path d="M10,222.9922 L76,222.9922 L76,230.125 L66,240.125 L10,240.125 L10,222.9922 " fill="#EEEEEE" style="stroke:#000000;stroke-width:1.5;"/><rect fill="none" height="265" style="stroke:#000000;stroke-width:1.5;" width="1018.5" x="10" y="222.9922"/><text fill="#000000" font-family="sans-serif" font-size="13" font-weight="bold" lengthAdjust="spacing" textLength="21" x="25" y="236.0591">alt</text><text fill="#000000" font-family="sans-serif" font-size="11" font-weight="bold" lengthAdjust="spacing" textLength="144" x="91" y="235.2026">[Valid Public Address]</text><polygon fill="#181818" points="738.5,257.2578,728.5,261.2578,738.5,265.2578,734.5,261.2578" style="stroke:#181818;stroke-width:1.0;"/><line style="stroke:#181818;stroke-width:1.0;" x1="732.5" x2="980.5" y1="261.2578" y2="261.2578"/><text fill="#000000" font-family="sans-serif" font-size="13" font-weight="bold" lengthAdjust="spacing" textLength="9" x="744.5" y="256.1919">4</text><text fill="#000000" font-family="sans-serif" font-size="13" lengthAdjust="spacing" textLength="198" x="757.5" y="256.1919">Yes, this public address is valid</text><polygon fill="#181818" points="969.5,286.3906,979.5,290.3906,969.5,294.3906,973.5,290.3906" style="stroke:#181818;stroke-width:1.0;"/><line style="stroke:#181818;stroke-width:1.0;" x1="727.5" x2="975.5" y1="290.3906" y2="290.3906"/><text fill="#000000" font-family="sans-serif" font-size="13" font-weight="bold" lengthAdjust="spacing" textLength="9" x="734.5" y="285.3247">5</text><text fill="#000000" font-family="sans-serif" font-size="13" lengthAdjust="spacing" textLength="162" x="747.5" y="285.3247">Generate Random Nonce</text><polygon fill="#181818" points="738.5,315.5234,728.5,319.5234,738.5,323.5234,734.5,319.5234" style="stroke:#181818;stroke-width:1.0;"/><line style="stroke:#181818;stroke-width:1.0;" x1="732.5" x2="980.5" y1="319.5234" y2="319.5234"/><text fill="#000000" font-family="sans-serif" font-size="13" font-weight="bold" lengthAdjust="spacing" textLength="9" x="744.5" y="314.4575">6</text><text fill="#000000" font-family="sans-serif" font-size="13" lengthAdjust="spacing" textLength="92" x="757.5" y="314.4575">Current Nonce</text><polygon fill="#181818" points="457.5,344.6563,447.5,348.6563,457.5,352.6563,453.5,348.6563" style="stroke:#181818;stroke-width:1.0;"/><line style="stroke:#181818;stroke-width:1.0;" x1="451.5" x2="726.5" y1="348.6563" y2="348.6563"/><text fill="#000000" font-family="sans-serif" font-size="13" font-weight="bold" lengthAdjust="spacing" textLength="9" x="463.5" y="343.5903">7</text><text fill="#000000" font-family="sans-serif" font-size="13" lengthAdjust="spacing" textLength="92" x="476.5" y="343.5903">Current Nonce</text><polygon fill="#181818" points="49.5,373.7891,39.5,377.7891,49.5,381.7891,45.5,377.7891" style="stroke:#181818;stroke-width:1.0;"/><line style="stroke:#181818;stroke-width:1.0;" x1="43.5" x2="445.5" y1="377.7891" y2="377.7891"/><text fill="#000000" font-family="sans-serif" font-size="13" font-weight="bold" lengthAdjust="spacing" textLength="9" x="55.5" y="372.7231">8</text><text fill="#000000" font-family="sans-serif" font-size="13" lengthAdjust="spacing" textLength="199" x="68.5" y="372.7231">Sign this Nonce with Metamask</text><line style="stroke:#000000;stroke-width:1.0;stroke-dasharray:2.0,2.0;" x1="10" x2="1028.5" y1="386.7891" y2="386.7891"/><text fill="#000000" font-family="sans-serif" font-size="11" font-weight="bold" lengthAdjust="spacing" textLength="154" x="15" y="396.9995">[Invalid Public Address]</text><polygon fill="#181818" points="738.5,417.7266,728.5,421.7266,738.5,425.7266,734.5,421.7266" style="stroke:#181818;stroke-width:1.0;"/><line style="stroke:#181818;stroke-width:1.0;" x1="732.5" x2="980.5" y1="421.7266" y2="421.7266"/><text fill="#000000" font-family="sans-serif" font-size="13" font-weight="bold" lengthAdjust="spacing" textLength="9" x="744.5" y="416.6606">9</text><text fill="#000000" font-family="sans-serif" font-size="13" lengthAdjust="spacing" textLength="217" x="757.5" y="416.6606">No, this public address is not valid</text><polygon fill="#181818" points="457.5,446.8594,447.5,450.8594,457.5,454.8594,453.5,450.8594" style="stroke:#181818;stroke-width:1.0;"/><line style="stroke:#181818;stroke-width:1.0;" x1="451.5" x2="726.5" y1="450.8594" y2="450.8594"/><text fill="#000000" font-family="sans-serif" font-size="13" font-weight="bold" lengthAdjust="spacing" textLength="19" x="463.5" y="445.7935">10</text><text fill="#000000" font-family="sans-serif" font-size="13" lengthAdjust="spacing" textLength="137" x="486.5" y="445.7935">Invalid public address</text><polygon fill="#181818" points="49.5,475.9922,39.5,479.9922,49.5,483.9922,45.5,479.9922" style="stroke:#181818;stroke-width:1.0;"/><line style="stroke:#181818;stroke-width:1.0;" x1="43.5" x2="445.5" y1="479.9922" y2="479.9922"/><text fill="#000000" font-family="sans-serif" font-size="13" font-weight="bold" lengthAdjust="spacing" textLength="18" x="55.5" y="474.9263">11</text><text fill="#000000" font-family="sans-serif" font-size="13" lengthAdjust="spacing" textLength="137" x="77.5" y="474.9263">Invalid public address</text><line style="stroke:#A80036;stroke-width:2.0;" x1="29.5" x2="47.5" y1="470.9922" y2="488.9922"/><line style="stroke:#A80036;stroke-width:2.0;" x1="29.5" x2="47.5" y1="488.9922" y2="470.9922"/><polygon fill="#181818" points="302.5,512.125,312.5,516.125,302.5,520.125,306.5,516.125" style="stroke:#181818;stroke-width:1.0;"/><line style="stroke:#181818;stroke-width:1.0;" x1="38.5" x2="308.5" y1="516.125" y2="516.125"/><text fill="#000000" font-family="sans-serif" font-size="13" font-weight="bold" lengthAdjust="spacing" textLength="18" x="45.5" y="511.0591">12</text><text fill="#000000" font-family="sans-serif" font-size="13" lengthAdjust="spacing" textLength="230" x="67.5" y="511.0591">Sign this Nonce with my private key</text><polygon fill="#181818" points="434.5,541.2578,444.5,545.2578,434.5,549.2578,438.5,545.2578" style="stroke:#181818;stroke-width:1.0;"/><line style="stroke:#181818;stroke-width:1.0;" x1="314.5" x2="440.5" y1="545.2578" y2="545.2578"/><text fill="#000000" font-family="sans-serif" font-size="13" font-weight="bold" lengthAdjust="spacing" textLength="17" x="321.5" y="540.1919">13</text><text fill="#000000" font-family="sans-serif" font-size="13" lengthAdjust="spacing" textLength="87" x="342.5" y="540.1919">Signed Nonce</text><polygon fill="#181818" points="715.5,570.3906,725.5,574.3906,715.5,578.3906,719.5,574.3906" style="stroke:#181818;stroke-width:1.0;"/><line style="stroke:#181818;stroke-width:1.0;" x1="446.5" x2="721.5" y1="574.3906" y2="574.3906"/><text fill="#000000" font-family="sans-serif" font-size="13" font-weight="bold" lengthAdjust="spacing" textLength="18" x="453.5" y="569.3247">14</text><text fill="#000000" font-family="sans-serif" font-size="13" lengthAdjust="spacing" textLength="87" x="475.5" y="569.3247">Signed Nonce</text><line style="stroke:#181818;stroke-width:1.0;" x1="727.5" x2="769.5" y1="603.5234" y2="603.5234"/><line style="stroke:#181818;stroke-width:1.0;" x1="769.5" x2="769.5" y1="603.5234" y2="616.5234"/><line style="stroke:#181818;stroke-width:1.0;" x1="728.5" x2="769.5" y1="616.5234" y2="616.5234"/><polygon fill="#181818" points="738.5,612.5234,728.5,616.5234,738.5,620.5234,734.5,616.5234" style="stroke:#181818;stroke-width:1.0;"/><text fill="#000000" font-family="sans-serif" font-size="13" font-weight="bold" lengthAdjust="spacing" textLength="18" x="734.5" y="598.4575">15</text><text fill="#000000" font-family="sans-serif" font-size="13" lengthAdjust="spacing" textLength="103" x="756.5" y="598.4575">Verify Signature</text><path d="M10,631.5234 L76,631.5234 L76,638.6563 L66,648.6563 L10,648.6563 L10,631.5234 " fill="#EEEEEE" style="stroke:#000000;stroke-width:1.5;"/><rect fill="none" height="235.8672" style="stroke:#000000;stroke-width:1.5;" width="1018.5" x="10" y="631.5234"/><text fill="#000000" font-family="sans-serif" font-size="13" font-weight="bold" lengthAdjust="spacing" textLength="21" x="25" y="644.5903">alt</text><text fill="#000000" font-family="sans-serif" font-size="11" font-weight="bold" lengthAdjust="spacing" textLength="112" x="91" y="643.7339">[Valid Signature]</text><polygon fill="#181818" points="969.5,665.7891,979.5,669.7891,969.5,673.7891,973.5,669.7891" style="stroke:#181818;stroke-width:1.0;"/><line style="stroke:#181818;stroke-width:1.0;" x1="727.5" x2="975.5" y1="669.7891" y2="669.7891"/><text fill="#000000" font-family="sans-serif" font-size="13" font-weight="bold" lengthAdjust="spacing" textLength="18" x="734.5" y="664.7231">16</text><text fill="#000000" font-family="sans-serif" font-size="13" lengthAdjust="spacing" textLength="105" x="756.5" y="664.7231">Get Session JWT</text><polygon fill="#181818" points="969.5,694.9219,979.5,698.9219,969.5,702.9219,973.5,698.9219" style="stroke:#181818;stroke-width:1.0;"/><line style="stroke:#181818;stroke-width:1.0;" x1="727.5" x2="975.5" y1="698.9219" y2="698.9219"/><text fill="#000000" font-family="sans-serif" font-size="13" font-weight="bold" lengthAdjust="spacing" textLength="18" x="734.5" y="693.856">17</text><text fill="#000000" font-family="sans-serif" font-size="13" lengthAdjust="spacing" textLength="93" x="756.5" y="693.856">Change Nonce</text><polygon fill="#181818" points="738.5,724.0547,728.5,728.0547,738.5,732.0547,734.5,728.0547" style="stroke:#181818;stroke-width:1.0;"/><line style="stroke:#181818;stroke-width:1.0;" x1="732.5" x2="980.5" y1="728.0547" y2="728.0547"/><text fill="#000000" font-family="sans-serif" font-size="13" font-weight="bold" lengthAdjust="spacing" textLength="18" x="744.5" y="722.9888">18</text><text fill="#000000" font-family="sans-serif" font-size="13" lengthAdjust="spacing" textLength="78" x="766.5" y="722.9888">Session JWT</text><polygon fill="#181818" points="457.5,753.1875,447.5,757.1875,457.5,761.1875,453.5,757.1875" style="stroke:#181818;stroke-width:1.0;"/><line style="stroke:#181818;stroke-width:1.0;" x1="451.5" x2="726.5" y1="757.1875" y2="757.1875"/><text fill="#000000" font-family="sans-serif" font-size="13" font-weight="bold" lengthAdjust="spacing" textLength="18" x="463.5" y="752.1216">19</text><text fill="#000000" font-family="sans-serif" font-size="13" lengthAdjust="spacing" textLength="78" x="485.5" y="752.1216">Session JWT</text><polygon fill="#181818" points="49.5,782.3203,39.5,786.3203,49.5,790.3203,45.5,786.3203" style="stroke:#181818;stroke-width:1.0;"/><line style="stroke:#181818;stroke-width:1.0;" x1="43.5" x2="445.5" y1="786.3203" y2="786.3203"/><text fill="#000000" font-family="sans-serif" font-size="13" font-weight="bold" lengthAdjust="spacing" textLength="19" x="55.5" y="781.2544">20</text><text fill="#000000" font-family="sans-serif" font-size="13" lengthAdjust="spacing" textLength="90" x="78.5" y="781.2544">Authenticated</text><line style="stroke:#000000;stroke-width:1.0;stroke-dasharray:2.0,2.0;" x1="10" x2="1028.5" y1="795.3203" y2="795.3203"/><text fill="#000000" font-family="sans-serif" font-size="11" font-weight="bold" lengthAdjust="spacing" textLength="122" x="15" y="805.5308">[Invalid Signature]</text><polygon fill="#181818" points="457.5,826.2578,447.5,830.2578,457.5,834.2578,453.5,830.2578" style="stroke:#181818;stroke-width:1.0;"/><line style="stroke:#181818;stroke-width:1.0;" x1="451.5" x2="726.5" y1="830.2578" y2="830.2578"/><text fill="#000000" font-family="sans-serif" font-size="13" font-weight="bold" lengthAdjust="spacing" textLength="18" x="463.5" y="825.1919">21</text><text fill="#000000" font-family="sans-serif" font-size="13" lengthAdjust="spacing" textLength="106" x="485.5" y="825.1919">Invalid Signature</text><polygon fill="#181818" points="49.5,855.3906,39.5,859.3906,49.5,863.3906,45.5,859.3906" style="stroke:#181818;stroke-width:1.0;"/><line style="stroke:#181818;stroke-width:1.0;" x1="43.5" x2="445.5" y1="859.3906" y2="859.3906"/><text fill="#000000" font-family="sans-serif" font-size="13" font-weight="bold" lengthAdjust="spacing" textLength="18" x="55.5" y="854.3247">22</text><text fill="#000000" font-family="sans-serif" font-size="13" lengthAdjust="spacing" textLength="106" x="77.5" y="854.3247">Invalid Signature</text><line style="stroke:#A80036;stroke-width:2.0;" x1="29.5" x2="47.5" y1="850.3906" y2="868.3906"/><line style="stroke:#A80036;stroke-width:2.0;" x1="29.5" x2="47.5" y1="868.3906" y2="850.3906"/><!--SRC=[dLBBRi8m4BpxAnRrslu0XrQ8IeYA8bHQgXutyJQnS6paR43v-pg441uEQNkphPdPdV6mOaqmiuao0WksfiWYSa9WpDR1H-xF6tIiOhL1m_1AZ1dcQn7PmaXqPKrTO48YjeQTrVNBkBvepvV8665Ey7mu224gONXuRDamX2digX5iGLUli5ES0gSgXqqHQHK3IkaepqLBQXJQQN_MEQ5wjMR5IYOFaM2BMiad7v1ck9kf9EM98pAmgjvXKOD7XmdYg1VSz8lo- -0GTPZJi-A433baWZSqqcOmjoQcdfdZmZdoyTJOWFxfbmJ0JUxx7np2KYMcjh37r64VMo98-ptgcCRMeOQfsVuZgBdjpCbOxixgh5w7oHSI0LU3GIVSEpAohMzZj2k8h8IDKzlgYzPKYYFyOhMAIpAKydKKrzY0vJF6YfpwBlT4vC9HLtTF07srOrZwC9GryFBvteCUfsYycTzqiqVqBB9Bw4KlHmMdlhagzjdB6psyRJhKdvRHqvmJQL-Q7m00]--></g></svg>