<?xml version="1.0" encoding="us-ascii" standalone="no"?><svg xmlns="http://www.w3.org/2000/svg" xmlns:xlink="http://www.w3.org/1999/xlink" contentStyleType="text/css" height="568px" preserveAspectRatio="none" style="width:1175px;height:568px;background:#FFFFFF;" version="1.1" viewBox="0 0 1175 568" width="1175px" zoomAndPan="magnify"><defs/><g><text fill="#000000" font-family="sans-serif" font-size="14" font-weight="bold" lengthAdjust="spacing" textLength="177" x="498.25" y="27.9951">Mint Prescription NFT</text><rect fill="#FFFFFF" height="262.1953" style="stroke:#181818;stroke-width:1.0;" width="10" x="382.5" y="178.8594"/><rect fill="#FFFFFF" height="145.6641" style="stroke:#181818;stroke-width:1.0;" width="10" x="557.5" y="207.9922"/><rect fill="#FFFFFF" height="87.3984" style="stroke:#181818;stroke-width:1.0;" width="10" x="732.5" y="237.125"/><rect fill="#FFFFFF" height="29.1328" style="stroke:#181818;stroke-width:1.0;" width="10" x="907.5" y="266.2578"/><line style="stroke:#181818;stroke-width:0.5;stroke-dasharray:5.0,5.0;" x1="34" x2="34" y1="118.5938" y2="488.1875"/><line style="stroke:#181818;stroke-width:0.5;stroke-dasharray:5.0,5.0;" x1="208.5" x2="208.5" y1="118.5938" y2="488.1875"/><line style="stroke:#181818;stroke-width:0.5;stroke-dasharray:5.0,5.0;" x1="387" x2="387" y1="118.5938" y2="488.1875"/><line style="stroke:#181818;stroke-width:0.5;stroke-dasharray:5.0,5.0;" x1="562" x2="562" y1="118.5938" y2="488.1875"/><line style="stroke:#181818;stroke-width:0.5;stroke-dasharray:5.0,5.0;" x1="737.5" x2="737.5" y1="118.5938" y2="488.1875"/><line style="stroke:#181818;stroke-width:0.5;stroke-dasharray:5.0,5.0;" x1="912.5" x2="912.5" y1="118.5938" y2="488.1875"/><line style="stroke:#181818;stroke-width:0.5;stroke-dasharray:5.0,5.0;" x1="1064.5" x2="1064.5" y1="118.5938" y2="488.1875"/><text fill="#000000" font-family="sans-serif" font-size="14" lengthAdjust="spacing" textLength="53" x="5" y="115.292">Patient</text><ellipse cx="34.5" cy="50.7969" fill="#E2E2F0" rx="8" ry="8" style="stroke:#181818;stroke-width:0.5;"/><path d="M34.5,58.7969 L34.5,85.7969 M21.5,66.7969 L47.5,66.7969 M34.5,85.7969 L21.5,100.7969 M34.5,85.7969 L47.5,100.7969 " fill="none" style="stroke:#181818;stroke-width:0.5;"/><text fill="#000000" font-family="sans-serif" font-size="14" lengthAdjust="spacing" textLength="53" x="5" y="500.1826">Patient</text><ellipse cx="34.5" cy="511.9844" fill="#E2E2F0" rx="8" ry="8" style="stroke:#181818;stroke-width:0.5;"/><path d="M34.5,519.9844 L34.5,546.9844 M21.5,527.9844 L47.5,527.9844 M34.5,546.9844 L21.5,561.9844 M34.5,546.9844 L47.5,561.9844 " fill="none" style="stroke:#181818;stroke-width:0.5;"/><text fill="#000000" font-family="sans-serif" font-size="14" lengthAdjust="spacing" textLength="50" x="180.5" y="115.292">Doctor</text><ellipse cx="208.5" cy="50.7969" fill="#E2E2F0" rx="8" ry="8" style="stroke:#181818;stroke-width:0.5;"/><path d="M208.5,58.7969 L208.5,85.7969 M195.5,66.7969 L221.5,66.7969 M208.5,85.7969 L195.5,100.7969 M208.5,85.7969 L221.5,100.7969 " fill="none" style="stroke:#181818;stroke-width:0.5;"/><text fill="#000000" font-family="sans-serif" font-size="14" lengthAdjust="spacing" textLength="50" x="180.5" y="500.1826">Doctor</text><ellipse cx="208.5" cy="511.9844" fill="#E2E2F0" rx="8" ry="8" style="stroke:#181818;stroke-width:0.5;"/><path d="M208.5,519.9844 L208.5,546.9844 M195.5,527.9844 L221.5,527.9844 M208.5,546.9844 L195.5,561.9844 M208.5,546.9844 L221.5,561.9844 " fill="none" style="stroke:#181818;stroke-width:0.5;"/><text fill="#000000" font-family="sans-serif" font-size="14" lengthAdjust="spacing" textLength="123" x="323" y="115.292">PrescriptionPage</text><path d="M367,74.2969 L367,98.2969 M367,86.2969 L384,86.2969 " fill="none" style="stroke:#181818;stroke-width:0.5;"/><ellipse cx="396" cy="86.2969" fill="#E2E2F0" rx="12" ry="12" style="stroke:#181818;stroke-width:0.5;"/><text fill="#000000" font-family="sans-serif" font-size="14" lengthAdjust="spacing" textLength="123" x="323" y="500.1826">PrescriptionPage</text><path d="M367,507.4844 L367,531.4844 M367,519.4844 L384,519.4844 " fill="none" style="stroke:#181818;stroke-width:0.5;"/><ellipse cx="396" cy="519.4844" fill="#E2E2F0" rx="12" ry="12" style="stroke:#181818;stroke-width:0.5;"/><text fill="#000000" font-family="sans-serif" font-size="14" lengthAdjust="spacing" textLength="161" x="479" y="115.292">PrescriptionController</text><ellipse cx="562.5" cy="86.2969" fill="#E2E2F0" rx="12" ry="12" style="stroke:#181818;stroke-width:0.5;"/><polygon fill="#181818" points="558.5,74.2969,564.5,69.2969,562.5,74.2969,564.5,79.2969,558.5,74.2969" style="stroke:#181818;stroke-width:1.0;"/><text fill="#000000" font-family="sans-serif" font-size="14" lengthAdjust="spacing" textLength="161" x="479" y="500.1826">PrescriptionController</text><ellipse cx="562.5" cy="519.4844" fill="#E2E2F0" rx="12" ry="12" style="stroke:#181818;stroke-width:0.5;"/><polygon fill="#181818" points="558.5,507.4844,564.5,502.4844,562.5,507.4844,564.5,512.4844,558.5,507.4844" style="stroke:#181818;stroke-width:1.0;"/><text fill="#000000" font-family="sans-serif" font-size="14" lengthAdjust="spacing" textLength="88" x="690.5" y="115.292">Prescription</text><ellipse cx="737.5" cy="86.2969" fill="#E2E2F0" rx="12" ry="12" style="stroke:#181818;stroke-width:0.5;"/><line style="stroke:#181818;stroke-width:0.5;" x1="725.5" x2="749.5" y1="100.2969" y2="100.2969"/><text fill="#000000" font-family="sans-serif" font-size="14" lengthAdjust="spacing" textLength="88" x="690.5" y="500.1826">Prescription</text><ellipse cx="737.5" cy="519.4844" fill="#E2E2F0" rx="12" ry="12" style="stroke:#181818;stroke-width:0.5;"/><line style="stroke:#181818;stroke-width:0.5;" x1="725.5" x2="749.5" y1="533.4844" y2="533.4844"/><text fill="#000000" font-family="sans-serif" font-size="14" lengthAdjust="spacing" textLength="68" x="875.5" y="115.292">Database</text><path d="M894.5,66.2969 C894.5,56.2969 912.5,56.2969 912.5,56.2969 C912.5,56.2969 930.5,56.2969 930.5,66.2969 L930.5,92.2969 C930.5,102.2969 912.5,102.2969 912.5,102.2969 C912.5,102.2969 894.5,102.2969 894.5,92.2969 L894.5,66.2969 " fill="#E2E2F0" style="stroke:#181818;stroke-width:1.5;"/><path d="M894.5,66.2969 C894.5,76.2969 912.5,76.2969 912.5,76.2969 C912.5,76.2969 930.5,76.2969 930.5,66.2969 " fill="none" style="stroke:#181818;stroke-width:1.5;"/><text fill="#000000" font-family="sans-serif" font-size="14" lengthAdjust="spacing" textLength="68" x="875.5" y="500.1826">Database</text><path d="M894.5,513.4844 C894.5,503.4844 912.5,503.4844 912.5,503.4844 C912.5,503.4844 930.5,503.4844 930.5,513.4844 L930.5,539.4844 C930.5,549.4844 912.5,549.4844 912.5,549.4844 C912.5,549.4844 894.5,549.4844 894.5,539.4844 L894.5,513.4844 " fill="#E2E2F0" style="stroke:#181818;stroke-width:1.5;"/><path d="M894.5,513.4844 C894.5,523.4844 912.5,523.4844 912.5,523.4844 C912.5,523.4844 930.5,523.4844 930.5,513.4844 " fill="none" style="stroke:#181818;stroke-width:1.5;"/><rect fill="#E2E2F0" height="30.2969" rx="2.5" ry="2.5" style="stroke:#181818;stroke-width:0.5;" width="210" x="959.5" y="87.2969"/><text fill="#000000" font-family="sans-serif" font-size="14" lengthAdjust="spacing" textLength="196" x="966.5" y="107.292">PrescriptionSmartContract</text><rect fill="#E2E2F0" height="30.2969" rx="2.5" ry="2.5" style="stroke:#181818;stroke-width:0.5;" width="210" x="959.5" y="487.1875"/><text fill="#000000" font-family="sans-serif" font-size="14" lengthAdjust="spacing" textLength="196" x="966.5" y="507.1826">PrescriptionSmartContract</text><rect fill="#FFFFFF" height="262.1953" style="stroke:#181818;stroke-width:1.0;" width="10" x="382.5" y="178.8594"/><rect fill="#FFFFFF" height="145.6641" style="stroke:#181818;stroke-width:1.0;" width="10" x="557.5" y="207.9922"/><rect fill="#FFFFFF" height="87.3984" style="stroke:#181818;stroke-width:1.0;" width="10" x="732.5" y="237.125"/><rect fill="#FFFFFF" height="29.1328" style="stroke:#181818;stroke-width:1.0;" width="10" x="907.5" y="266.2578"/><polygon fill="#181818" points="196.5,145.7266,206.5,149.7266,196.5,153.7266,200.5,149.7266" style="stroke:#181818;stroke-width:1.0;"/><line style="stroke:#181818;stroke-width:1.0;" x1="34.5" x2="202.5" y1="149.7266" y2="149.7266"/><text fill="#000000" font-family="sans-serif" font-size="13" font-weight="bold" lengthAdjust="spacing" textLength="9" x="41.5" y="144.6606">1</text><text fill="#000000" font-family="sans-serif" font-size="13" lengthAdjust="spacing" textLength="97" x="54.5" y="144.6606">Give public key</text><polygon fill="#181818" points="370.5,174.8594,380.5,178.8594,370.5,182.8594,374.5,178.8594" style="stroke:#181818;stroke-width:1.0;"/><line style="stroke:#181818;stroke-width:1.0;" x1="208.5" x2="376.5" y1="178.8594" y2="178.8594"/><text fill="#000000" font-family="sans-serif" font-size="13" font-weight="bold" lengthAdjust="spacing" textLength="9" x="215.5" y="173.7935">2</text><text fill="#000000" font-family="sans-serif" font-size="13" lengthAdjust="spacing" textLength="122" x="228.5" y="173.7935">Create prescription</text><polygon fill="#181818" points="545.5,203.9922,555.5,207.9922,545.5,211.9922,549.5,207.9922" style="stroke:#181818;stroke-width:1.0;"/><line style="stroke:#181818;stroke-width:1.0;" x1="392.5" x2="551.5" y1="207.9922" y2="207.9922"/><text fill="#000000" font-family="sans-serif" font-size="13" font-weight="bold" lengthAdjust="spacing" textLength="8" x="399.5" y="202.9263">3</text><text fill="#000000" font-family="sans-serif" font-size="13" lengthAdjust="spacing" textLength="122" x="411.5" y="202.9263">Create prescription</text><polygon fill="#181818" points="720.5,233.125,730.5,237.125,720.5,241.125,724.5,237.125" style="stroke:#181818;stroke-width:1.0;"/><line style="stroke:#181818;stroke-width:1.0;" x1="567.5" x2="726.5" y1="237.125" y2="237.125"/><text fill="#000000" font-family="sans-serif" font-size="13" font-weight="bold" lengthAdjust="spacing" textLength="9" x="574.5" y="232.0591">4</text><text fill="#000000" font-family="sans-serif" font-size="13" lengthAdjust="spacing" textLength="122" x="587.5" y="232.0591">Create prescription</text><polygon fill="#181818" points="895.5,262.2578,905.5,266.2578,895.5,270.2578,899.5,266.2578" style="stroke:#181818;stroke-width:1.0;"/><line style="stroke:#181818;stroke-width:1.0;" x1="742.5" x2="901.5" y1="266.2578" y2="266.2578"/><text fill="#000000" font-family="sans-serif" font-size="13" font-weight="bold" lengthAdjust="spacing" textLength="9" x="749.5" y="261.1919">5</text><text fill="#000000" font-family="sans-serif" font-size="13" lengthAdjust="spacing" textLength="122" x="762.5" y="261.1919">Create Prescription</text><polygon fill="#181818" points="753.5,291.3906,743.5,295.3906,753.5,299.3906,749.5,295.3906" style="stroke:#181818;stroke-width:1.0;"/><line style="stroke:#181818;stroke-width:1.0;" x1="747.5" x2="911.5" y1="295.3906" y2="295.3906"/><text fill="#000000" font-family="sans-serif" font-size="13" font-weight="bold" lengthAdjust="spacing" textLength="9" x="759.5" y="290.3247">6</text><text fill="#000000" font-family="sans-serif" font-size="13" lengthAdjust="spacing" textLength="128" x="772.5" y="290.3247">Prescription created</text><polygon fill="#181818" points="578.5,320.5234,568.5,324.5234,578.5,328.5234,574.5,324.5234" style="stroke:#181818;stroke-width:1.0;"/><line style="stroke:#181818;stroke-width:1.0;" x1="572.5" x2="736.5" y1="324.5234" y2="324.5234"/><text fill="#000000" font-family="sans-serif" font-size="13" font-weight="bold" lengthAdjust="spacing" textLength="9" x="584.5" y="319.4575">7</text><text fill="#000000" font-family="sans-serif" font-size="13" lengthAdjust="spacing" textLength="128" x="597.5" y="319.4575">Prescription created</text><polygon fill="#181818" points="403.5,349.6563,393.5,353.6563,403.5,357.6563,399.5,353.6563" style="stroke:#181818;stroke-width:1.0;"/><line style="stroke:#181818;stroke-width:1.0;" x1="397.5" x2="561.5" y1="353.6563" y2="353.6563"/><text fill="#000000" font-family="sans-serif" font-size="13" font-weight="bold" lengthAdjust="spacing" textLength="9" x="409.5" y="348.5903">8</text><text fill="#000000" font-family="sans-serif" font-size="13" lengthAdjust="spacing" textLength="128" x="422.5" y="348.5903">Prescription created</text><polygon fill="#181818" points="1052.5,378.7891,1062.5,382.7891,1052.5,386.7891,1056.5,382.7891" style="stroke:#181818;stroke-width:1.0;"/><line style="stroke:#181818;stroke-width:1.0;" x1="392.5" x2="1058.5" y1="382.7891" y2="382.7891"/><text fill="#000000" font-family="sans-serif" font-size="13" font-weight="bold" lengthAdjust="spacing" textLength="9" x="399.5" y="377.7231">9</text><text fill="#000000" font-family="sans-serif" font-size="13" lengthAdjust="spacing" textLength="133" x="412.5" y="377.7231">Mint Prescription NFT</text><polygon fill="#181818" points="403.5,407.9219,393.5,411.9219,403.5,415.9219,399.5,411.9219" style="stroke:#181818;stroke-width:1.0;"/><line style="stroke:#181818;stroke-width:1.0;" x1="397.5" x2="1063.5" y1="411.9219" y2="411.9219"/><text fill="#000000" font-family="sans-serif" font-size="13" font-weight="bold" lengthAdjust="spacing" textLength="19" x="409.5" y="406.856">10</text><text fill="#000000" font-family="sans-serif" font-size="13" lengthAdjust="spacing" textLength="70" x="432.5" y="406.856">Emit Event</text><polygon fill="#181818" points="219.5,437.0547,209.5,441.0547,219.5,445.0547,215.5,441.0547" style="stroke:#181818;stroke-width:1.0;"/><line style="stroke:#181818;stroke-width:1.0;" x1="213.5" x2="386.5" y1="441.0547" y2="441.0547"/><text fill="#000000" font-family="sans-serif" font-size="13" font-weight="bold" lengthAdjust="spacing" textLength="18" x="225.5" y="435.9888">11</text><text fill="#000000" font-family="sans-serif" font-size="13" lengthAdjust="spacing" textLength="128" x="247.5" y="435.9888">Prescription created</text><polygon fill="#181818" points="45.5,466.1875,35.5,470.1875,45.5,474.1875,41.5,470.1875" style="stroke:#181818;stroke-width:1.0;"/><line style="stroke:#181818;stroke-width:1.0;" x1="39.5" x2="207.5" y1="470.1875" y2="470.1875"/><text fill="#000000" font-family="sans-serif" font-size="13" font-weight="bold" lengthAdjust="spacing" textLength="18" x="51.5" y="465.1216">12</text><text fill="#000000" font-family="sans-serif" font-size="13" lengthAdjust="spacing" textLength="128" x="73.5" y="465.1216">Prescription created</text><!--SRC=[ZLFBReGm3BpxAtnVyGCSUjb7JwsGkZzWGbHP1OA2MOc_RpPikY4GTNF2ySpOOnnXQJL-S2zOMJqgouEmwV7pSWMQnFHJLsiBfCHON4v5mjhX_Q4nn2lCoKI1momnr6Rg6xApbudALVIjWrfo3ShqOasBAUUutBVQuWxrcGNN6ykC6m7Suq53GZMDlfrJz7qtyGW1mWYAj-2qn7U-QHockcM5Ftg6Hy91DauF1uS_MatY677n3J9XHvvp6WWPGYBrMXFUOPX2p5ZDx0-HrYWAnrZTA4zlDaLoJRyaa7Uv334h0Z2G5LOyKF80lZgNyBfkhTCbMIN__MbhgJBpsFACFKibdZiMFD_k3s-lWR1zMUlHUePbpc5_0G00]--></g></svg>