<?xml version="1.0" encoding="us-ascii" standalone="no"?><svg xmlns="http://www.w3.org/2000/svg" xmlns:xlink="http://www.w3.org/1999/xlink" contentStyleType="text/css" height="510px" preserveAspectRatio="none" style="width:1047px;height:510px;background:#FFFFFF;" version="1.1" viewBox="0 0 1047 510" width="1047px" zoomAndPan="magnify"><defs/><g><text fill="#000000" font-family="sans-serif" font-size="14" font-weight="bold" lengthAdjust="spacing" textLength="184" x="430.75" y="27.9951">Mint Appointment NFT</text><rect fill="#FFFFFF" height="262.1953" style="stroke:#181818;stroke-width:1.0;" width="10" x="220.5" y="149.7266"/><rect fill="#FFFFFF" height="145.6641" style="stroke:#181818;stroke-width:1.0;" width="10" x="403.5" y="178.8594"/><rect fill="#FFFFFF" height="87.3984" style="stroke:#181818;stroke-width:1.0;" width="10" x="586.5" y="207.9922"/><rect fill="#FFFFFF" height="29.1328" style="stroke:#181818;stroke-width:1.0;" width="10" x="769.5" y="237.125"/><line style="stroke:#181818;stroke-width:0.5;stroke-dasharray:5.0,5.0;" x1="37" x2="37" y1="118.5938" y2="429.9219"/><line style="stroke:#181818;stroke-width:0.5;stroke-dasharray:5.0,5.0;" x1="225" x2="225" y1="118.5938" y2="429.9219"/><line style="stroke:#181818;stroke-width:0.5;stroke-dasharray:5.0,5.0;" x1="408" x2="408" y1="118.5938" y2="429.9219"/><line style="stroke:#181818;stroke-width:0.5;stroke-dasharray:5.0,5.0;" x1="591.5" x2="591.5" y1="118.5938" y2="429.9219"/><line style="stroke:#181818;stroke-width:0.5;stroke-dasharray:5.0,5.0;" x1="774.5" x2="774.5" y1="118.5938" y2="429.9219"/><line style="stroke:#181818;stroke-width:0.5;stroke-dasharray:5.0,5.0;" x1="931.5" x2="931.5" y1="118.5938" y2="429.9219"/><text fill="#000000" font-family="sans-serif" font-size="14" lengthAdjust="spacing" textLength="59" x="5" y="115.292">Hospital</text><ellipse cx="37.5" cy="50.7969" fill="#E2E2F0" rx="8" ry="8" style="stroke:#181818;stroke-width:0.5;"/><path d="M37.5,58.7969 L37.5,85.7969 M24.5,66.7969 L50.5,66.7969 M37.5,85.7969 L24.5,100.7969 M37.5,85.7969 L50.5,100.7969 " fill="none" style="stroke:#181818;stroke-width:0.5;"/><text fill="#000000" font-family="sans-serif" font-size="14" lengthAdjust="spacing" textLength="59" x="5" y="441.917">Hospital</text><ellipse cx="37.5" cy="453.7188" fill="#E2E2F0" rx="8" ry="8" style="stroke:#181818;stroke-width:0.5;"/><path d="M37.5,461.7188 L37.5,488.7188 M24.5,469.7188 L50.5,469.7188 M37.5,488.7188 L24.5,503.7188 M37.5,488.7188 L50.5,503.7188 " fill="none" style="stroke:#181818;stroke-width:0.5;"/><text fill="#000000" font-family="sans-serif" font-size="14" lengthAdjust="spacing" textLength="133" x="156" y="115.292">AppointmentPage</text><path d="M205,74.2969 L205,98.2969 M205,86.2969 L222,86.2969 " fill="none" style="stroke:#181818;stroke-width:0.5;"/><ellipse cx="234" cy="86.2969" fill="#E2E2F0" rx="12" ry="12" style="stroke:#181818;stroke-width:0.5;"/><text fill="#000000" font-family="sans-serif" font-size="14" lengthAdjust="spacing" textLength="133" x="156" y="441.917">AppointmentPage</text><path d="M205,449.2188 L205,473.2188 M205,461.2188 L222,461.2188 " fill="none" style="stroke:#181818;stroke-width:0.5;"/><ellipse cx="234" cy="461.2188" fill="#E2E2F0" rx="12" ry="12" style="stroke:#181818;stroke-width:0.5;"/><text fill="#000000" font-family="sans-serif" font-size="14" lengthAdjust="spacing" textLength="171" x="320" y="115.292">AppointmentController</text><ellipse cx="408.5" cy="86.2969" fill="#E2E2F0" rx="12" ry="12" style="stroke:#181818;stroke-width:0.5;"/><polygon fill="#181818" points="404.5,74.2969,410.5,69.2969,408.5,74.2969,410.5,79.2969,404.5,74.2969" style="stroke:#181818;stroke-width:1.0;"/><text fill="#000000" font-family="sans-serif" font-size="14" lengthAdjust="spacing" textLength="171" x="320" y="441.917">AppointmentController</text><ellipse cx="408.5" cy="461.2188" fill="#E2E2F0" rx="12" ry="12" style="stroke:#181818;stroke-width:0.5;"/><polygon fill="#181818" points="404.5,449.2188,410.5,444.2188,408.5,449.2188,410.5,454.2188,404.5,449.2188" style="stroke:#181818;stroke-width:1.0;"/><text fill="#000000" font-family="sans-serif" font-size="14" lengthAdjust="spacing" textLength="98" x="539.5" y="115.292">Appointment</text><ellipse cx="591.5" cy="86.2969" fill="#E2E2F0" rx="12" ry="12" style="stroke:#181818;stroke-width:0.5;"/><line style="stroke:#181818;stroke-width:0.5;" x1="579.5" x2="603.5" y1="100.2969" y2="100.2969"/><text fill="#000000" font-family="sans-serif" font-size="14" lengthAdjust="spacing" textLength="98" x="539.5" y="441.917">Appointment</text><ellipse cx="591.5" cy="461.2188" fill="#E2E2F0" rx="12" ry="12" style="stroke:#181818;stroke-width:0.5;"/><line style="stroke:#181818;stroke-width:0.5;" x1="579.5" x2="603.5" y1="475.2188" y2="475.2188"/><text fill="#000000" font-family="sans-serif" font-size="14" lengthAdjust="spacing" textLength="68" x="737.5" y="115.292">Database</text><path d="M756.5,66.2969 C756.5,56.2969 774.5,56.2969 774.5,56.2969 C774.5,56.2969 792.5,56.2969 792.5,66.2969 L792.5,92.2969 C792.5,102.2969 774.5,102.2969 774.5,102.2969 C774.5,102.2969 756.5,102.2969 756.5,92.2969 L756.5,66.2969 " fill="#E2E2F0" style="stroke:#181818;stroke-width:1.5;"/><path d="M756.5,66.2969 C756.5,76.2969 774.5,76.2969 774.5,76.2969 C774.5,76.2969 792.5,76.2969 792.5,66.2969 " fill="none" style="stroke:#181818;stroke-width:1.5;"/><text fill="#000000" font-family="sans-serif" font-size="14" lengthAdjust="spacing" textLength="68" x="737.5" y="441.917">Database</text><path d="M756.5,455.2188 C756.5,445.2188 774.5,445.2188 774.5,445.2188 C774.5,445.2188 792.5,445.2188 792.5,455.2188 L792.5,481.2188 C792.5,491.2188 774.5,491.2188 774.5,491.2188 C774.5,491.2188 756.5,491.2188 756.5,481.2188 L756.5,455.2188 " fill="#E2E2F0" style="stroke:#181818;stroke-width:1.5;"/><path d="M756.5,455.2188 C756.5,465.2188 774.5,465.2188 774.5,465.2188 C774.5,465.2188 792.5,465.2188 792.5,455.2188 " fill="none" style="stroke:#181818;stroke-width:1.5;"/><rect fill="#E2E2F0" height="30.2969" rx="2.5" ry="2.5" style="stroke:#181818;stroke-width:0.5;" width="220" x="821.5" y="87.2969"/><text fill="#000000" font-family="sans-serif" font-size="14" lengthAdjust="spacing" textLength="206" x="828.5" y="107.292">AppointmentSmartContract</text><rect fill="#E2E2F0" height="30.2969" rx="2.5" ry="2.5" style="stroke:#181818;stroke-width:0.5;" width="220" x="821.5" y="428.9219"/><text fill="#000000" font-family="sans-serif" font-size="14" lengthAdjust="spacing" textLength="206" x="828.5" y="448.917">AppointmentSmartContract</text><rect fill="#FFFFFF" height="262.1953" style="stroke:#181818;stroke-width:1.0;" width="10" x="220.5" y="149.7266"/><rect fill="#FFFFFF" height="145.6641" style="stroke:#181818;stroke-width:1.0;" width="10" x="403.5" y="178.8594"/><rect fill="#FFFFFF" height="87.3984" style="stroke:#181818;stroke-width:1.0;" width="10" x="586.5" y="207.9922"/><rect fill="#FFFFFF" height="29.1328" style="stroke:#181818;stroke-width:1.0;" width="10" x="769.5" y="237.125"/><polygon fill="#181818" points="208.5,145.7266,218.5,149.7266,208.5,153.7266,212.5,149.7266" style="stroke:#181818;stroke-width:1.0;"/><line style="stroke:#181818;stroke-width:1.0;" x1="37.5" x2="214.5" y1="149.7266" y2="149.7266"/><text fill="#000000" font-family="sans-serif" font-size="13" font-weight="bold" lengthAdjust="spacing" textLength="9" x="44.5" y="144.6606">1</text><text fill="#000000" font-family="sans-serif" font-size="13" lengthAdjust="spacing" textLength="129" x="57.5" y="144.6606">Create appointment</text><polygon fill="#181818" points="391.5,174.8594,401.5,178.8594,391.5,182.8594,395.5,178.8594" style="stroke:#181818;stroke-width:1.0;"/><line style="stroke:#181818;stroke-width:1.0;" x1="230.5" x2="397.5" y1="178.8594" y2="178.8594"/><text fill="#000000" font-family="sans-serif" font-size="13" font-weight="bold" lengthAdjust="spacing" textLength="9" x="237.5" y="173.7935">2</text><text fill="#000000" font-family="sans-serif" font-size="13" lengthAdjust="spacing" textLength="129" x="250.5" y="173.7935">Create appointment</text><polygon fill="#181818" points="574.5,203.9922,584.5,207.9922,574.5,211.9922,578.5,207.9922" style="stroke:#181818;stroke-width:1.0;"/><line style="stroke:#181818;stroke-width:1.0;" x1="413.5" x2="580.5" y1="207.9922" y2="207.9922"/><text fill="#000000" font-family="sans-serif" font-size="13" font-weight="bold" lengthAdjust="spacing" textLength="8" x="420.5" y="202.9263">3</text><text fill="#000000" font-family="sans-serif" font-size="13" lengthAdjust="spacing" textLength="129" x="432.5" y="202.9263">Create appointment</text><polygon fill="#181818" points="757.5,233.125,767.5,237.125,757.5,241.125,761.5,237.125" style="stroke:#181818;stroke-width:1.0;"/><line style="stroke:#181818;stroke-width:1.0;" x1="596.5" x2="763.5" y1="237.125" y2="237.125"/><text fill="#000000" font-family="sans-serif" font-size="13" font-weight="bold" lengthAdjust="spacing" textLength="9" x="603.5" y="232.0591">4</text><text fill="#000000" font-family="sans-serif" font-size="13" lengthAdjust="spacing" textLength="130" x="616.5" y="232.0591">Create Appointment</text><polygon fill="#181818" points="607.5,262.2578,597.5,266.2578,607.5,270.2578,603.5,266.2578" style="stroke:#181818;stroke-width:1.0;"/><line style="stroke:#181818;stroke-width:1.0;" x1="601.5" x2="773.5" y1="266.2578" y2="266.2578"/><text fill="#000000" font-family="sans-serif" font-size="13" font-weight="bold" lengthAdjust="spacing" textLength="9" x="613.5" y="261.1919">5</text><text fill="#000000" font-family="sans-serif" font-size="13" lengthAdjust="spacing" textLength="136" x="626.5" y="261.1919">Appointment created</text><polygon fill="#181818" points="424.5,291.3906,414.5,295.3906,424.5,299.3906,420.5,295.3906" style="stroke:#181818;stroke-width:1.0;"/><line style="stroke:#181818;stroke-width:1.0;" x1="418.5" x2="590.5" y1="295.3906" y2="295.3906"/><text fill="#000000" font-family="sans-serif" font-size="13" font-weight="bold" lengthAdjust="spacing" textLength="9" x="430.5" y="290.3247">6</text><text fill="#000000" font-family="sans-serif" font-size="13" lengthAdjust="spacing" textLength="136" x="443.5" y="290.3247">Appointment created</text><polygon fill="#181818" points="241.5,320.5234,231.5,324.5234,241.5,328.5234,237.5,324.5234" style="stroke:#181818;stroke-width:1.0;"/><line style="stroke:#181818;stroke-width:1.0;" x1="235.5" x2="407.5" y1="324.5234" y2="324.5234"/><text fill="#000000" font-family="sans-serif" font-size="13" font-weight="bold" lengthAdjust="spacing" textLength="9" x="247.5" y="319.4575">7</text><text fill="#000000" font-family="sans-serif" font-size="13" lengthAdjust="spacing" textLength="136" x="260.5" y="319.4575">Appointment created</text><polygon fill="#181818" points="919.5,349.6563,929.5,353.6563,919.5,357.6563,923.5,353.6563" style="stroke:#181818;stroke-width:1.0;"/><line style="stroke:#181818;stroke-width:1.0;" x1="230.5" x2="925.5" y1="353.6563" y2="353.6563"/><text fill="#000000" font-family="sans-serif" font-size="13" font-weight="bold" lengthAdjust="spacing" textLength="9" x="237.5" y="348.5903">8</text><text fill="#000000" font-family="sans-serif" font-size="13" lengthAdjust="spacing" textLength="141" x="250.5" y="348.5903">Mint Appointment NFT</text><polygon fill="#181818" points="241.5,378.7891,231.5,382.7891,241.5,386.7891,237.5,382.7891" style="stroke:#181818;stroke-width:1.0;"/><line style="stroke:#181818;stroke-width:1.0;" x1="235.5" x2="930.5" y1="382.7891" y2="382.7891"/><text fill="#000000" font-family="sans-serif" font-size="13" font-weight="bold" lengthAdjust="spacing" textLength="9" x="247.5" y="377.7231">9</text><text fill="#000000" font-family="sans-serif" font-size="13" lengthAdjust="spacing" textLength="70" x="260.5" y="377.7231">Emit Event</text><polygon fill="#181818" points="48.5,407.9219,38.5,411.9219,48.5,415.9219,44.5,411.9219" style="stroke:#181818;stroke-width:1.0;"/><line style="stroke:#181818;stroke-width:1.0;" x1="42.5" x2="224.5" y1="411.9219" y2="411.9219"/><text fill="#000000" font-family="sans-serif" font-size="13" font-weight="bold" lengthAdjust="spacing" textLength="19" x="54.5" y="406.856">10</text><text fill="#000000" font-family="sans-serif" font-size="13" lengthAdjust="spacing" textLength="136" x="77.5" y="406.856">Appointment created</text><!--SRC=[ZLD13e8m4BplA_Pk-0074uCQBneJ_S02ZMa2j2cB2R-tWc9RQ8GBtUdCjDDkMN8by2mRnftMolvhOSUNunseOzLqTIuCKC7AuFYTLAibK_KfgPqGo5NNb6JwD-wuNUaXFjG0XK8rRDJevSnb8rm9WtFXRn9i9Rd7K8uBAYY9AQTssCdU6LlQjuGfMxAT1TXiCCNC26A1vFY6F5_g98aO82pJVPyroxybKpANxnx3H0ZyayJoNQ0Oj6MuG6IpAzJHREEnnHm0D1cMXTJaD-cjjlXWQjipk6rlxiyL-JxfycE8yXUYf7Ye9UFX6McFNvT5Chy0]--></g></svg>