<?xml version="1.0" encoding="us-ascii" standalone="no"?><svg xmlns="http://www.w3.org/2000/svg" xmlns:xlink="http://www.w3.org/1999/xlink" contentStyleType="text/css" height="510px" preserveAspectRatio="none" style="width:1001px;height:510px;background:#FFFFFF;" version="1.1" viewBox="0 0 1001 510" width="1001px" zoomAndPan="magnify"><defs/><g><text fill="#000000" font-family="sans-serif" font-size="14" font-weight="bold" lengthAdjust="spacing" textLength="177" x="411" y="27.9951">Mint Prescription NFT</text><rect fill="#FFFFFF" height="262.1953" style="stroke:#181818;stroke-width:1.0;" width="10" x="208" y="149.7266"/><rect fill="#FFFFFF" height="145.6641" style="stroke:#181818;stroke-width:1.0;" width="10" x="383" y="178.8594"/><rect fill="#FFFFFF" height="87.3984" style="stroke:#181818;stroke-width:1.0;" width="10" x="558" y="207.9922"/><rect fill="#FFFFFF" height="29.1328" style="stroke:#181818;stroke-width:1.0;" width="10" x="733" y="237.125"/><line style="stroke:#181818;stroke-width:0.5;stroke-dasharray:5.0,5.0;" x1="33" x2="33" y1="118.5938" y2="429.9219"/><line style="stroke:#181818;stroke-width:0.5;stroke-dasharray:5.0,5.0;" x1="212.5" x2="212.5" y1="118.5938" y2="429.9219"/><line style="stroke:#181818;stroke-width:0.5;stroke-dasharray:5.0,5.0;" x1="387.5" x2="387.5" y1="118.5938" y2="429.9219"/><line style="stroke:#181818;stroke-width:0.5;stroke-dasharray:5.0,5.0;" x1="563" x2="563" y1="118.5938" y2="429.9219"/><line style="stroke:#181818;stroke-width:0.5;stroke-dasharray:5.0,5.0;" x1="738" x2="738" y1="118.5938" y2="429.9219"/><line style="stroke:#181818;stroke-width:0.5;stroke-dasharray:5.0,5.0;" x1="890" x2="890" y1="118.5938" y2="429.9219"/><text fill="#000000" font-family="sans-serif" font-size="14" lengthAdjust="spacing" textLength="50" x="5" y="115.292">Doctor</text><ellipse cx="33" cy="50.7969" fill="#E2E2F0" rx="8" ry="8" style="stroke:#181818;stroke-width:0.5;"/><path d="M33,58.7969 L33,85.7969 M20,66.7969 L46,66.7969 M33,85.7969 L20,100.7969 M33,85.7969 L46,100.7969 " fill="none" style="stroke:#181818;stroke-width:0.5;"/><text fill="#000000" font-family="sans-serif" font-size="14" lengthAdjust="spacing" textLength="50" x="5" y="441.917">Doctor</text><ellipse cx="33" cy="453.7188" fill="#E2E2F0" rx="8" ry="8" style="stroke:#181818;stroke-width:0.5;"/><path d="M33,461.7188 L33,488.7188 M20,469.7188 L46,469.7188 M33,488.7188 L20,503.7188 M33,488.7188 L46,503.7188 " fill="none" style="stroke:#181818;stroke-width:0.5;"/><text fill="#000000" font-family="sans-serif" font-size="14" lengthAdjust="spacing" textLength="123" x="148.5" y="115.292">PrescriptionPage</text><path d="M192.5,74.2969 L192.5,98.2969 M192.5,86.2969 L209.5,86.2969 " fill="none" style="stroke:#181818;stroke-width:0.5;"/><ellipse cx="221.5" cy="86.2969" fill="#E2E2F0" rx="12" ry="12" style="stroke:#181818;stroke-width:0.5;"/><text fill="#000000" font-family="sans-serif" font-size="14" lengthAdjust="spacing" textLength="123" x="148.5" y="441.917">PrescriptionPage</text><path d="M192.5,449.2188 L192.5,473.2188 M192.5,461.2188 L209.5,461.2188 " fill="none" style="stroke:#181818;stroke-width:0.5;"/><ellipse cx="221.5" cy="461.2188" fill="#E2E2F0" rx="12" ry="12" style="stroke:#181818;stroke-width:0.5;"/><text fill="#000000" font-family="sans-serif" font-size="14" lengthAdjust="spacing" textLength="161" x="304.5" y="115.292">PrescriptionController</text><ellipse cx="388" cy="86.2969" fill="#E2E2F0" rx="12" ry="12" style="stroke:#181818;stroke-width:0.5;"/><polygon fill="#181818" points="384,74.2969,390,69.2969,388,74.2969,390,79.2969,384,74.2969" style="stroke:#181818;stroke-width:1.0;"/><text fill="#000000" font-family="sans-serif" font-size="14" lengthAdjust="spacing" textLength="161" x="304.5" y="441.917">PrescriptionController</text><ellipse cx="388" cy="461.2188" fill="#E2E2F0" rx="12" ry="12" style="stroke:#181818;stroke-width:0.5;"/><polygon fill="#181818" points="384,449.2188,390,444.2188,388,449.2188,390,454.2188,384,449.2188" style="stroke:#181818;stroke-width:1.0;"/><text fill="#000000" font-family="sans-serif" font-size="14" lengthAdjust="spacing" textLength="88" x="516" y="115.292">Prescription</text><ellipse cx="563" cy="86.2969" fill="#E2E2F0" rx="12" ry="12" style="stroke:#181818;stroke-width:0.5;"/><line style="stroke:#181818;stroke-width:0.5;" x1="551" x2="575" y1="100.2969" y2="100.2969"/><text fill="#000000" font-family="sans-serif" font-size="14" lengthAdjust="spacing" textLength="88" x="516" y="441.917">Prescription</text><ellipse cx="563" cy="461.2188" fill="#E2E2F0" rx="12" ry="12" style="stroke:#181818;stroke-width:0.5;"/><line style="stroke:#181818;stroke-width:0.5;" x1="551" x2="575" y1="475.2188" y2="475.2188"/><text fill="#000000" font-family="sans-serif" font-size="14" lengthAdjust="spacing" textLength="68" x="701" y="115.292">Database</text><path d="M720,66.2969 C720,56.2969 738,56.2969 738,56.2969 C738,56.2969 756,56.2969 756,66.2969 L756,92.2969 C756,102.2969 738,102.2969 738,102.2969 C738,102.2969 720,102.2969 720,92.2969 L720,66.2969 " fill="#E2E2F0" style="stroke:#181818;stroke-width:1.5;"/><path d="M720,66.2969 C720,76.2969 738,76.2969 738,76.2969 C738,76.2969 756,76.2969 756,66.2969 " fill="none" style="stroke:#181818;stroke-width:1.5;"/><text fill="#000000" font-family="sans-serif" font-size="14" lengthAdjust="spacing" textLength="68" x="701" y="441.917">Database</text><path d="M720,455.2188 C720,445.2188 738,445.2188 738,445.2188 C738,445.2188 756,445.2188 756,455.2188 L756,481.2188 C756,491.2188 738,491.2188 738,491.2188 C738,491.2188 720,491.2188 720,481.2188 L720,455.2188 " fill="#E2E2F0" style="stroke:#181818;stroke-width:1.5;"/><path d="M720,455.2188 C720,465.2188 738,465.2188 738,465.2188 C738,465.2188 756,465.2188 756,455.2188 " fill="none" style="stroke:#181818;stroke-width:1.5;"/><rect fill="#E2E2F0" height="30.2969" rx="2.5" ry="2.5" style="stroke:#181818;stroke-width:0.5;" width="210" x="785" y="87.2969"/><text fill="#000000" font-family="sans-serif" font-size="14" lengthAdjust="spacing" textLength="196" x="792" y="107.292">PrescriptionSmartContract</text><rect fill="#E2E2F0" height="30.2969" rx="2.5" ry="2.5" style="stroke:#181818;stroke-width:0.5;" width="210" x="785" y="428.9219"/><text fill="#000000" font-family="sans-serif" font-size="14" lengthAdjust="spacing" textLength="196" x="792" y="448.917">PrescriptionSmartContract</text><rect fill="#FFFFFF" height="262.1953" style="stroke:#181818;stroke-width:1.0;" width="10" x="208" y="149.7266"/><rect fill="#FFFFFF" height="145.6641" style="stroke:#181818;stroke-width:1.0;" width="10" x="383" y="178.8594"/><rect fill="#FFFFFF" height="87.3984" style="stroke:#181818;stroke-width:1.0;" width="10" x="558" y="207.9922"/><rect fill="#FFFFFF" height="29.1328" style="stroke:#181818;stroke-width:1.0;" width="10" x="733" y="237.125"/><polygon fill="#181818" points="196,145.7266,206,149.7266,196,153.7266,200,149.7266" style="stroke:#181818;stroke-width:1.0;"/><line style="stroke:#181818;stroke-width:1.0;" x1="33" x2="202" y1="149.7266" y2="149.7266"/><text fill="#000000" font-family="sans-serif" font-size="13" font-weight="bold" lengthAdjust="spacing" textLength="9" x="40" y="144.6606">1</text><text fill="#000000" font-family="sans-serif" font-size="13" lengthAdjust="spacing" textLength="122" x="53" y="144.6606">Create prescription</text><polygon fill="#181818" points="371,174.8594,381,178.8594,371,182.8594,375,178.8594" style="stroke:#181818;stroke-width:1.0;"/><line style="stroke:#181818;stroke-width:1.0;" x1="218" x2="377" y1="178.8594" y2="178.8594"/><text fill="#000000" font-family="sans-serif" font-size="13" font-weight="bold" lengthAdjust="spacing" textLength="9" x="225" y="173.7935">2</text><text fill="#000000" font-family="sans-serif" font-size="13" lengthAdjust="spacing" textLength="122" x="238" y="173.7935">Create prescription</text><polygon fill="#181818" points="546,203.9922,556,207.9922,546,211.9922,550,207.9922" style="stroke:#181818;stroke-width:1.0;"/><line style="stroke:#181818;stroke-width:1.0;" x1="393" x2="552" y1="207.9922" y2="207.9922"/><text fill="#000000" font-family="sans-serif" font-size="13" font-weight="bold" lengthAdjust="spacing" textLength="8" x="400" y="202.9263">3</text><text fill="#000000" font-family="sans-serif" font-size="13" lengthAdjust="spacing" textLength="122" x="412" y="202.9263">Create prescription</text><polygon fill="#181818" points="721,233.125,731,237.125,721,241.125,725,237.125" style="stroke:#181818;stroke-width:1.0;"/><line style="stroke:#181818;stroke-width:1.0;" x1="568" x2="727" y1="237.125" y2="237.125"/><text fill="#000000" font-family="sans-serif" font-size="13" font-weight="bold" lengthAdjust="spacing" textLength="9" x="575" y="232.0591">4</text><text fill="#000000" font-family="sans-serif" font-size="13" lengthAdjust="spacing" textLength="122" x="588" y="232.0591">Create Prescription</text><polygon fill="#181818" points="579,262.2578,569,266.2578,579,270.2578,575,266.2578" style="stroke:#181818;stroke-width:1.0;"/><line style="stroke:#181818;stroke-width:1.0;" x1="573" x2="737" y1="266.2578" y2="266.2578"/><text fill="#000000" font-family="sans-serif" font-size="13" font-weight="bold" lengthAdjust="spacing" textLength="9" x="585" y="261.1919">5</text><text fill="#000000" font-family="sans-serif" font-size="13" lengthAdjust="spacing" textLength="128" x="598" y="261.1919">Prescription created</text><polygon fill="#181818" points="404,291.3906,394,295.3906,404,299.3906,400,295.3906" style="stroke:#181818;stroke-width:1.0;"/><line style="stroke:#181818;stroke-width:1.0;" x1="398" x2="562" y1="295.3906" y2="295.3906"/><text fill="#000000" font-family="sans-serif" font-size="13" font-weight="bold" lengthAdjust="spacing" textLength="9" x="410" y="290.3247">6</text><text fill="#000000" font-family="sans-serif" font-size="13" lengthAdjust="spacing" textLength="128" x="423" y="290.3247">Prescription created</text><polygon fill="#181818" points="229,320.5234,219,324.5234,229,328.5234,225,324.5234" style="stroke:#181818;stroke-width:1.0;"/><line style="stroke:#181818;stroke-width:1.0;" x1="223" x2="387" y1="324.5234" y2="324.5234"/><text fill="#000000" font-family="sans-serif" font-size="13" font-weight="bold" lengthAdjust="spacing" textLength="9" x="235" y="319.4575">7</text><text fill="#000000" font-family="sans-serif" font-size="13" lengthAdjust="spacing" textLength="128" x="248" y="319.4575">Prescription created</text><polygon fill="#181818" points="878,349.6563,888,353.6563,878,357.6563,882,353.6563" style="stroke:#181818;stroke-width:1.0;"/><line style="stroke:#181818;stroke-width:1.0;" x1="218" x2="884" y1="353.6563" y2="353.6563"/><text fill="#000000" font-family="sans-serif" font-size="13" font-weight="bold" lengthAdjust="spacing" textLength="9" x="225" y="348.5903">8</text><text fill="#000000" font-family="sans-serif" font-size="13" lengthAdjust="spacing" textLength="133" x="238" y="348.5903">Mint Prescription NFT</text><polygon fill="#181818" points="229,378.7891,219,382.7891,229,386.7891,225,382.7891" style="stroke:#181818;stroke-width:1.0;"/><line style="stroke:#181818;stroke-width:1.0;" x1="223" x2="889" y1="382.7891" y2="382.7891"/><text fill="#000000" font-family="sans-serif" font-size="13" font-weight="bold" lengthAdjust="spacing" textLength="9" x="235" y="377.7231">9</text><text fill="#000000" font-family="sans-serif" font-size="13" lengthAdjust="spacing" textLength="70" x="248" y="377.7231">Emit Event</text><polygon fill="#181818" points="44,407.9219,34,411.9219,44,415.9219,40,411.9219" style="stroke:#181818;stroke-width:1.0;"/><line style="stroke:#181818;stroke-width:1.0;" x1="38" x2="212" y1="411.9219" y2="411.9219"/><text fill="#000000" font-family="sans-serif" font-size="13" font-weight="bold" lengthAdjust="spacing" textLength="19" x="50" y="406.856">10</text><text fill="#000000" font-family="sans-serif" font-size="13" lengthAdjust="spacing" textLength="128" x="73" y="406.856">Prescription created</text><!--SRC=[ZPCx3eCm38Ptdy9xnGKOklInjK9gBs12L4M211bJgRSlhxOX41McnFRtntzYn4YfyMAiOCQwKMngCSxYzNm7QiNPjier0obnZEDtTDw6ccaFkMjjGVpgexvKHWyzLOPXKCuAkn93vZ36IysuWlwoeAqOUU520DSuA4WefsPev-YjUnFJ5YPtoNvfOhV350-iIJJMlkwYCg0zEp4DX0WGI6rhegU-1drYTXtVYl2C9Ec8MKGDUB4u9DRq9e6uo_4Ieo80DR4OPMeAvlPMTOb1jvlOyFrdoR-FDfTA8_z8d5YpbEAfCeAdPpUtgmryfYzc_Gq0]--></g></svg>