<?xml version="1.0" encoding="us-ascii" standalone="no"?><svg xmlns="http://www.w3.org/2000/svg" xmlns:xlink="http://www.w3.org/1999/xlink" contentStyleType="text/css" height="1326px" preserveAspectRatio="none" style="width:2231px;height:1326px;background:#FFFFFF;" version="1.1" viewBox="0 0 2231 1326" width="2231px" zoomAndPan="magnify"><defs/><g><text fill="#000000" font-family="sans-serif" font-size="14" font-weight="bold" lengthAdjust="spacing" textLength="97" x="1068.5" y="27.9951">Reservation</text><rect fill="#FFFFFF" height="262.1953" style="stroke:#181818;stroke-width:1.0;" width="10" x="486.5" y="149.7266"/><rect fill="#FFFFFF" height="203.9297" style="stroke:#181818;stroke-width:1.0;" width="10" x="486.5" y="441.0547"/><rect fill="#FFFFFF" height="203.9297" style="stroke:#181818;stroke-width:1.0;" width="10" x="486.5" y="674.1172"/><rect fill="#FFFFFF" height="320.4609" style="stroke:#181818;stroke-width:1.0;" width="10" x="486.5" y="907.1797"/><rect fill="#FFFFFF" height="29.1328" style="stroke:#181818;stroke-width:1.0;" width="10" x="744.5" y="178.8594"/><rect fill="#FFFFFF" height="87.3984" style="stroke:#181818;stroke-width:1.0;" width="10" x="744.5" y="936.3125"/><rect fill="#FFFFFF" height="29.1328" style="stroke:#181818;stroke-width:1.0;" width="10" x="1034.5" y="965.4453"/><rect fill="#FFFFFF" height="145.6641" style="stroke:#181818;stroke-width:1.0;" width="10" x="1237" y="237.125"/><rect fill="#FFFFFF" height="145.6641" style="stroke:#181818;stroke-width:1.0;" width="10" x="1237" y="470.1875"/><rect fill="#FFFFFF" height="145.6641" style="stroke:#181818;stroke-width:1.0;" width="10" x="1237" y="703.25"/><rect fill="#FFFFFF" height="145.6641" style="stroke:#181818;stroke-width:1.0;" width="10" x="1237" y="1052.8438"/><rect fill="#FFFFFF" height="87.3984" style="stroke:#181818;stroke-width:1.0;" width="10" x="1513" y="266.2578"/><rect fill="#FFFFFF" height="87.3984" style="stroke:#181818;stroke-width:1.0;" width="10" x="1712" y="499.3203"/><rect fill="#FFFFFF" height="87.3984" style="stroke:#181818;stroke-width:1.0;" width="10" x="1712" y="732.3828"/><rect fill="#FFFFFF" height="87.3984" style="stroke:#181818;stroke-width:1.0;" width="10" x="1712" y="1081.9766"/><rect fill="#FFFFFF" height="29.1328" style="stroke:#181818;stroke-width:1.0;" width="10" x="2188" y="295.3906"/><rect fill="#FFFFFF" height="29.1328" style="stroke:#181818;stroke-width:1.0;" width="10" x="2188" y="528.4531"/><rect fill="#FFFFFF" height="29.1328" style="stroke:#181818;stroke-width:1.0;" width="10" x="2188" y="761.5156"/><rect fill="#FFFFFF" height="29.1328" style="stroke:#181818;stroke-width:1.0;" width="10" x="2188" y="1111.1094"/><line style="stroke:#181818;stroke-width:0.5;stroke-dasharray:5.0,5.0;" x1="34" x2="34" y1="118.5938" y2="1245.6406"/><line style="stroke:#181818;stroke-width:0.5;stroke-dasharray:5.0,5.0;" x1="491" x2="491" y1="118.5938" y2="1245.6406"/><line style="stroke:#181818;stroke-width:0.5;stroke-dasharray:5.0,5.0;" x1="749.5" x2="749.5" y1="118.5938" y2="1245.6406"/><line style="stroke:#181818;stroke-width:0.5;stroke-dasharray:5.0,5.0;" x1="1039.5" x2="1039.5" y1="118.5938" y2="1245.6406"/><line style="stroke:#181818;stroke-width:0.5;stroke-dasharray:5.0,5.0;" x1="1241.5" x2="1241.5" y1="118.5938" y2="1245.6406"/><line style="stroke:#181818;stroke-width:0.5;stroke-dasharray:5.0,5.0;" x1="1518" x2="1518" y1="118.5938" y2="1245.6406"/><line style="stroke:#181818;stroke-width:0.5;stroke-dasharray:5.0,5.0;" x1="1717" x2="1717" y1="118.5938" y2="1245.6406"/><line style="stroke:#181818;stroke-width:0.5;stroke-dasharray:5.0,5.0;" x1="2193" x2="2193" y1="118.5938" y2="1245.6406"/><text fill="#000000" font-family="sans-serif" font-size="14" lengthAdjust="spacing" textLength="53" x="5" y="115.292">Patient</text><ellipse cx="34.5" cy="50.7969" fill="#E2E2F0" rx="8" ry="8" style="stroke:#181818;stroke-width:0.5;"/><path d="M34.5,58.7969 L34.5,85.7969 M21.5,66.7969 L47.5,66.7969 M34.5,85.7969 L21.5,100.7969 M34.5,85.7969 L47.5,100.7969 " fill="none" style="stroke:#181818;stroke-width:0.5;"/><text fill="#000000" font-family="sans-serif" font-size="14" lengthAdjust="spacing" textLength="53" x="5" y="1257.6357">Patient</text><ellipse cx="34.5" cy="1269.4375" fill="#E2E2F0" rx="8" ry="8" style="stroke:#181818;stroke-width:0.5;"/><path d="M34.5,1277.4375 L34.5,1304.4375 M21.5,1285.4375 L47.5,1285.4375 M34.5,1304.4375 L21.5,1319.4375 M34.5,1304.4375 L47.5,1319.4375 " fill="none" style="stroke:#181818;stroke-width:0.5;"/><text fill="#000000" font-family="sans-serif" font-size="14" lengthAdjust="spacing" textLength="121" x="428" y="115.292">ReservationPage</text><path d="M471,74.2969 L471,98.2969 M471,86.2969 L488,86.2969 " fill="none" style="stroke:#181818;stroke-width:0.5;"/><ellipse cx="500" cy="86.2969" fill="#E2E2F0" rx="12" ry="12" style="stroke:#181818;stroke-width:0.5;"/><text fill="#000000" font-family="sans-serif" font-size="14" lengthAdjust="spacing" textLength="121" x="428" y="1257.6357">ReservationPage</text><path d="M471,1264.9375 L471,1288.9375 M471,1276.9375 L488,1276.9375 " fill="none" style="stroke:#181818;stroke-width:0.5;"/><ellipse cx="500" cy="1276.9375" fill="#E2E2F0" rx="12" ry="12" style="stroke:#181818;stroke-width:0.5;"/><rect fill="#E2E2F0" height="30.2969" rx="2.5" ry="2.5" style="stroke:#181818;stroke-width:0.5;" width="210" x="644.5" y="87.2969"/><text fill="#000000" font-family="sans-serif" font-size="14" lengthAdjust="spacing" textLength="196" x="651.5" y="107.292">PrescriptionSmartContract</text><rect fill="#E2E2F0" height="30.2969" rx="2.5" ry="2.5" style="stroke:#181818;stroke-width:0.5;" width="210" x="644.5" y="1244.6406"/><text fill="#000000" font-family="sans-serif" font-size="14" lengthAdjust="spacing" textLength="196" x="651.5" y="1264.6357">PrescriptionSmartContract</text><rect fill="#E2E2F0" height="30.2969" rx="2.5" ry="2.5" style="stroke:#181818;stroke-width:0.5;" width="220" x="929.5" y="87.2969"/><text fill="#000000" font-family="sans-serif" font-size="14" lengthAdjust="spacing" textLength="206" x="936.5" y="107.292">AppointmentSmartContract</text><rect fill="#E2E2F0" height="30.2969" rx="2.5" ry="2.5" style="stroke:#181818;stroke-width:0.5;" width="220" x="929.5" y="1244.6406"/><text fill="#000000" font-family="sans-serif" font-size="14" lengthAdjust="spacing" textLength="206" x="936.5" y="1264.6357">AppointmentSmartContract</text><text fill="#000000" font-family="sans-serif" font-size="14" lengthAdjust="spacing" textLength="159" x="1159.5" y="115.292">ReservationController</text><ellipse cx="1242" cy="86.2969" fill="#E2E2F0" rx="12" ry="12" style="stroke:#181818;stroke-width:0.5;"/><polygon fill="#181818" points="1238,74.2969,1244,69.2969,1242,74.2969,1244,79.2969,1238,74.2969" style="stroke:#181818;stroke-width:1.0;"/><text fill="#000000" font-family="sans-serif" font-size="14" lengthAdjust="spacing" textLength="159" x="1159.5" y="1257.6357">ReservationController</text><ellipse cx="1242" cy="1276.9375" fill="#E2E2F0" rx="12" ry="12" style="stroke:#181818;stroke-width:0.5;"/><polygon fill="#181818" points="1238,1264.9375,1244,1259.9375,1242,1264.9375,1244,1269.9375,1238,1264.9375" style="stroke:#181818;stroke-width:1.0;"/><text fill="#000000" font-family="sans-serif" font-size="14" lengthAdjust="spacing" textLength="88" x="1471" y="115.292">Prescription</text><ellipse cx="1518" cy="86.2969" fill="#E2E2F0" rx="12" ry="12" style="stroke:#181818;stroke-width:0.5;"/><line style="stroke:#181818;stroke-width:0.5;" x1="1506" x2="1530" y1="100.2969" y2="100.2969"/><text fill="#000000" font-family="sans-serif" font-size="14" lengthAdjust="spacing" textLength="88" x="1471" y="1257.6357">Prescription</text><ellipse cx="1518" cy="1276.9375" fill="#E2E2F0" rx="12" ry="12" style="stroke:#181818;stroke-width:0.5;"/><line style="stroke:#181818;stroke-width:0.5;" x1="1506" x2="1530" y1="1290.9375" y2="1290.9375"/><text fill="#000000" font-family="sans-serif" font-size="14" lengthAdjust="spacing" textLength="98" x="1665" y="115.292">Appointment</text><ellipse cx="1717" cy="86.2969" fill="#E2E2F0" rx="12" ry="12" style="stroke:#181818;stroke-width:0.5;"/><line style="stroke:#181818;stroke-width:0.5;" x1="1705" x2="1729" y1="100.2969" y2="100.2969"/><text fill="#000000" font-family="sans-serif" font-size="14" lengthAdjust="spacing" textLength="98" x="1665" y="1257.6357">Appointment</text><ellipse cx="1717" cy="1276.9375" fill="#E2E2F0" rx="12" ry="12" style="stroke:#181818;stroke-width:0.5;"/><line style="stroke:#181818;stroke-width:0.5;" x1="1705" x2="1729" y1="1290.9375" y2="1290.9375"/><text fill="#000000" font-family="sans-serif" font-size="14" lengthAdjust="spacing" textLength="68" x="2156" y="115.292">Database</text><path d="M2175,66.2969 C2175,56.2969 2193,56.2969 2193,56.2969 C2193,56.2969 2211,56.2969 2211,66.2969 L2211,92.2969 C2211,102.2969 2193,102.2969 2193,102.2969 C2193,102.2969 2175,102.2969 2175,92.2969 L2175,66.2969 " fill="#E2E2F0" style="stroke:#181818;stroke-width:1.5;"/><path d="M2175,66.2969 C2175,76.2969 2193,76.2969 2193,76.2969 C2193,76.2969 2211,76.2969 2211,66.2969 " fill="none" style="stroke:#181818;stroke-width:1.5;"/><text fill="#000000" font-family="sans-serif" font-size="14" lengthAdjust="spacing" textLength="68" x="2156" y="1257.6357">Database</text><path d="M2175,1270.9375 C2175,1260.9375 2193,1260.9375 2193,1260.9375 C2193,1260.9375 2211,1260.9375 2211,1270.9375 L2211,1296.9375 C2211,1306.9375 2193,1306.9375 2193,1306.9375 C2193,1306.9375 2175,1306.9375 2175,1296.9375 L2175,1270.9375 " fill="#E2E2F0" style="stroke:#181818;stroke-width:1.5;"/><path d="M2175,1270.9375 C2175,1280.9375 2193,1280.9375 2193,1280.9375 C2193,1280.9375 2211,1280.9375 2211,1270.9375 " fill="none" style="stroke:#181818;stroke-width:1.5;"/><rect fill="#FFFFFF" height="262.1953" style="stroke:#181818;stroke-width:1.0;" width="10" x="486.5" y="149.7266"/><rect fill="#FFFFFF" height="203.9297" style="stroke:#181818;stroke-width:1.0;" width="10" x="486.5" y="441.0547"/><rect fill="#FFFFFF" height="203.9297" style="stroke:#181818;stroke-width:1.0;" width="10" x="486.5" y="674.1172"/><rect fill="#FFFFFF" height="320.4609" style="stroke:#181818;stroke-width:1.0;" width="10" x="486.5" y="907.1797"/><rect fill="#FFFFFF" height="29.1328" style="stroke:#181818;stroke-width:1.0;" width="10" x="744.5" y="178.8594"/><rect fill="#FFFFFF" height="87.3984" style="stroke:#181818;stroke-width:1.0;" width="10" x="744.5" y="936.3125"/><rect fill="#FFFFFF" height="29.1328" style="stroke:#181818;stroke-width:1.0;" width="10" x="1034.5" y="965.4453"/><rect fill="#FFFFFF" height="145.6641" style="stroke:#181818;stroke-width:1.0;" width="10" x="1237" y="237.125"/><rect fill="#FFFFFF" height="145.6641" style="stroke:#181818;stroke-width:1.0;" width="10" x="1237" y="470.1875"/><rect fill="#FFFFFF" height="145.6641" style="stroke:#181818;stroke-width:1.0;" width="10" x="1237" y="703.25"/><rect fill="#FFFFFF" height="145.6641" style="stroke:#181818;stroke-width:1.0;" width="10" x="1237" y="1052.8438"/><rect fill="#FFFFFF" height="87.3984" style="stroke:#181818;stroke-width:1.0;" width="10" x="1513" y="266.2578"/><rect fill="#FFFFFF" height="87.3984" style="stroke:#181818;stroke-width:1.0;" width="10" x="1712" y="499.3203"/><rect fill="#FFFFFF" height="87.3984" style="stroke:#181818;stroke-width:1.0;" width="10" x="1712" y="732.3828"/><rect fill="#FFFFFF" height="87.3984" style="stroke:#181818;stroke-width:1.0;" width="10" x="1712" y="1081.9766"/><rect fill="#FFFFFF" height="29.1328" style="stroke:#181818;stroke-width:1.0;" width="10" x="2188" y="295.3906"/><rect fill="#FFFFFF" height="29.1328" style="stroke:#181818;stroke-width:1.0;" width="10" x="2188" y="528.4531"/><rect fill="#FFFFFF" height="29.1328" style="stroke:#181818;stroke-width:1.0;" width="10" x="2188" y="761.5156"/><rect fill="#FFFFFF" height="29.1328" style="stroke:#181818;stroke-width:1.0;" width="10" x="2188" y="1111.1094"/><polygon fill="#181818" points="474.5,145.7266,484.5,149.7266,474.5,153.7266,478.5,149.7266" style="stroke:#181818;stroke-width:1.0;"/><line style="stroke:#181818;stroke-width:1.0;" x1="34.5" x2="480.5" y1="149.7266" y2="149.7266"/><text fill="#000000" font-family="sans-serif" font-size="13" font-weight="bold" lengthAdjust="spacing" textLength="9" x="41.5" y="144.6606">1</text><text fill="#000000" font-family="sans-serif" font-size="13" lengthAdjust="spacing" textLength="162" x="54.5" y="144.6606">Get my prescription NFTs</text><polygon fill="#181818" points="732.5,174.8594,742.5,178.8594,732.5,182.8594,736.5,178.8594" style="stroke:#181818;stroke-width:1.0;"/><line style="stroke:#181818;stroke-width:1.0;" x1="496.5" x2="738.5" y1="178.8594" y2="178.8594"/><text fill="#000000" font-family="sans-serif" font-size="13" font-weight="bold" lengthAdjust="spacing" textLength="9" x="503.5" y="173.7935">2</text><text fill="#000000" font-family="sans-serif" font-size="13" lengthAdjust="spacing" textLength="162" x="516.5" y="173.7935">Get my prescription NFTs</text><polygon fill="#181818" points="507.5,203.9922,497.5,207.9922,507.5,211.9922,503.5,207.9922" style="stroke:#181818;stroke-width:1.0;"/><line style="stroke:#181818;stroke-width:1.0;" x1="501.5" x2="748.5" y1="207.9922" y2="207.9922"/><text fill="#000000" font-family="sans-serif" font-size="13" font-weight="bold" lengthAdjust="spacing" textLength="8" x="513.5" y="202.9263">3</text><text fill="#000000" font-family="sans-serif" font-size="13" lengthAdjust="spacing" textLength="110" x="525.5" y="202.9263">Prescription NFTs</text><polygon fill="#181818" points="1225,233.125,1235,237.125,1225,241.125,1229,237.125" style="stroke:#181818;stroke-width:1.0;"/><line style="stroke:#181818;stroke-width:1.0;" x1="496.5" x2="1231" y1="237.125" y2="237.125"/><text fill="#000000" font-family="sans-serif" font-size="13" font-weight="bold" lengthAdjust="spacing" textLength="9" x="503.5" y="232.0591">4</text><text fill="#000000" font-family="sans-serif" font-size="13" lengthAdjust="spacing" textLength="234" x="516.5" y="232.0591">Retrieve additional data for NFTs IDs</text><polygon fill="#181818" points="1501,262.2578,1511,266.2578,1501,270.2578,1505,266.2578" style="stroke:#181818;stroke-width:1.0;"/><line style="stroke:#181818;stroke-width:1.0;" x1="1247" x2="1507" y1="266.2578" y2="266.2578"/><text fill="#000000" font-family="sans-serif" font-size="13" font-weight="bold" lengthAdjust="spacing" textLength="9" x="1254" y="261.1919">5</text><text fill="#000000" font-family="sans-serif" font-size="13" lengthAdjust="spacing" textLength="234" x="1267" y="261.1919">Retrieve additional data for NFTs IDs</text><polygon fill="#181818" points="2176,291.3906,2186,295.3906,2176,299.3906,2180,295.3906" style="stroke:#181818;stroke-width:1.0;"/><line style="stroke:#181818;stroke-width:1.0;" x1="1523" x2="2182" y1="295.3906" y2="295.3906"/><text fill="#000000" font-family="sans-serif" font-size="13" font-weight="bold" lengthAdjust="spacing" textLength="9" x="1530" y="290.3247">6</text><text fill="#000000" font-family="sans-serif" font-size="13" lengthAdjust="spacing" textLength="234" x="1543" y="290.3247">Retrieve additional data for NFTs IDs</text><polygon fill="#181818" points="1534,320.5234,1524,324.5234,1534,328.5234,1530,324.5234" style="stroke:#181818;stroke-width:1.0;"/><line style="stroke:#181818;stroke-width:1.0;" x1="1528" x2="2192" y1="324.5234" y2="324.5234"/><text fill="#000000" font-family="sans-serif" font-size="13" font-weight="bold" lengthAdjust="spacing" textLength="9" x="1540" y="319.4575">7</text><text fill="#000000" font-family="sans-serif" font-size="13" lengthAdjust="spacing" textLength="212" x="1553" y="319.4575">Prescriptions with additional data</text><polygon fill="#181818" points="1258,349.6563,1248,353.6563,1258,357.6563,1254,353.6563" style="stroke:#181818;stroke-width:1.0;"/><line style="stroke:#181818;stroke-width:1.0;" x1="1252" x2="1517" y1="353.6563" y2="353.6563"/><text fill="#000000" font-family="sans-serif" font-size="13" font-weight="bold" lengthAdjust="spacing" textLength="9" x="1264" y="348.5903">8</text><text fill="#000000" font-family="sans-serif" font-size="13" lengthAdjust="spacing" textLength="212" x="1277" y="348.5903">Prescriptions with additional data</text><polygon fill="#181818" points="507.5,378.7891,497.5,382.7891,507.5,386.7891,503.5,382.7891" style="stroke:#181818;stroke-width:1.0;"/><line style="stroke:#181818;stroke-width:1.0;" x1="501.5" x2="1241" y1="382.7891" y2="382.7891"/><text fill="#000000" font-family="sans-serif" font-size="13" font-weight="bold" lengthAdjust="spacing" textLength="9" x="513.5" y="377.7231">9</text><text fill="#000000" font-family="sans-serif" font-size="13" lengthAdjust="spacing" textLength="212" x="526.5" y="377.7231">Prescriptions with additional data</text><polygon fill="#181818" points="45.5,407.9219,35.5,411.9219,45.5,415.9219,41.5,411.9219" style="stroke:#181818;stroke-width:1.0;"/><line style="stroke:#181818;stroke-width:1.0;" x1="39.5" x2="490.5" y1="411.9219" y2="411.9219"/><text fill="#000000" font-family="sans-serif" font-size="13" font-weight="bold" lengthAdjust="spacing" textLength="19" x="51.5" y="406.856">10</text><text fill="#000000" font-family="sans-serif" font-size="13" lengthAdjust="spacing" textLength="256" x="74.5" y="406.856">Show my prescription NFTs with all data</text><polygon fill="#181818" points="474.5,437.0547,484.5,441.0547,474.5,445.0547,478.5,441.0547" style="stroke:#181818;stroke-width:1.0;"/><line style="stroke:#181818;stroke-width:1.0;" x1="34.5" x2="480.5" y1="441.0547" y2="441.0547"/><text fill="#000000" font-family="sans-serif" font-size="13" font-weight="bold" lengthAdjust="spacing" textLength="18" x="41.5" y="435.9888">11</text><text fill="#000000" font-family="sans-serif" font-size="13" lengthAdjust="spacing" textLength="168" x="63.5" y="435.9888">Click on a prescription NFT</text><polygon fill="#181818" points="1225,466.1875,1235,470.1875,1225,474.1875,1229,470.1875" style="stroke:#181818;stroke-width:1.0;"/><line style="stroke:#181818;stroke-width:1.0;" x1="496.5" x2="1231" y1="470.1875" y2="470.1875"/><text fill="#000000" font-family="sans-serif" font-size="13" font-weight="bold" lengthAdjust="spacing" textLength="18" x="503.5" y="465.1216">12</text><text fill="#000000" font-family="sans-serif" font-size="13" lengthAdjust="spacing" textLength="425" x="525.5" y="465.1216">Retrieve nearby appointments for the category of the prescription</text><polygon fill="#181818" points="1700,495.3203,1710,499.3203,1700,503.3203,1704,499.3203" style="stroke:#181818;stroke-width:1.0;"/><line style="stroke:#181818;stroke-width:1.0;" x1="1247" x2="1706" y1="499.3203" y2="499.3203"/><text fill="#000000" font-family="sans-serif" font-size="13" font-weight="bold" lengthAdjust="spacing" textLength="17" x="1254" y="494.2544">13</text><text fill="#000000" font-family="sans-serif" font-size="13" lengthAdjust="spacing" textLength="425" x="1275" y="494.2544">Retrieve nearby appointments for the category of the prescription</text><polygon fill="#181818" points="2176,524.4531,2186,528.4531,2176,532.4531,2180,528.4531" style="stroke:#181818;stroke-width:1.0;"/><line style="stroke:#181818;stroke-width:1.0;" x1="1722" x2="2182" y1="528.4531" y2="528.4531"/><text fill="#000000" font-family="sans-serif" font-size="13" font-weight="bold" lengthAdjust="spacing" textLength="18" x="1729" y="523.3872">14</text><text fill="#000000" font-family="sans-serif" font-size="13" lengthAdjust="spacing" textLength="425" x="1751" y="523.3872">Retrieve nearby appointments for the category of the prescription</text><polygon fill="#181818" points="1733,553.5859,1723,557.5859,1733,561.5859,1729,557.5859" style="stroke:#181818;stroke-width:1.0;"/><line style="stroke:#181818;stroke-width:1.0;" x1="1727" x2="2192" y1="557.5859" y2="557.5859"/><text fill="#000000" font-family="sans-serif" font-size="13" font-weight="bold" lengthAdjust="spacing" textLength="18" x="1739" y="552.52">15</text><text fill="#000000" font-family="sans-serif" font-size="13" lengthAdjust="spacing" textLength="368" x="1761" y="552.52">Appointments nearby for the category of the prescription</text><polygon fill="#181818" points="1258,582.7188,1248,586.7188,1258,590.7188,1254,586.7188" style="stroke:#181818;stroke-width:1.0;"/><line style="stroke:#181818;stroke-width:1.0;" x1="1252" x2="1716" y1="586.7188" y2="586.7188"/><text fill="#000000" font-family="sans-serif" font-size="13" font-weight="bold" lengthAdjust="spacing" textLength="18" x="1264" y="581.6528">16</text><text fill="#000000" font-family="sans-serif" font-size="13" lengthAdjust="spacing" textLength="368" x="1286" y="581.6528">Appointments nearby for the category of the prescription</text><polygon fill="#181818" points="507.5,611.8516,497.5,615.8516,507.5,619.8516,503.5,615.8516" style="stroke:#181818;stroke-width:1.0;"/><line style="stroke:#181818;stroke-width:1.0;" x1="501.5" x2="1241" y1="615.8516" y2="615.8516"/><text fill="#000000" font-family="sans-serif" font-size="13" font-weight="bold" lengthAdjust="spacing" textLength="18" x="513.5" y="610.7856">17</text><text fill="#000000" font-family="sans-serif" font-size="13" lengthAdjust="spacing" textLength="368" x="535.5" y="610.7856">Appointments nearby for the category of the prescription</text><polygon fill="#181818" points="45.5,640.9844,35.5,644.9844,45.5,648.9844,41.5,644.9844" style="stroke:#181818;stroke-width:1.0;"/><line style="stroke:#181818;stroke-width:1.0;" x1="39.5" x2="490.5" y1="644.9844" y2="644.9844"/><text fill="#000000" font-family="sans-serif" font-size="13" font-weight="bold" lengthAdjust="spacing" textLength="18" x="51.5" y="639.9185">18</text><text fill="#000000" font-family="sans-serif" font-size="13" lengthAdjust="spacing" textLength="406" x="73.5" y="639.9185">Show nearby appointments for the category of the prescription</text><polygon fill="#181818" points="474.5,670.1172,484.5,674.1172,474.5,678.1172,478.5,674.1172" style="stroke:#181818;stroke-width:1.0;"/><line style="stroke:#181818;stroke-width:1.0;" x1="34.5" x2="480.5" y1="674.1172" y2="674.1172"/><text fill="#000000" font-family="sans-serif" font-size="13" font-weight="bold" lengthAdjust="spacing" textLength="18" x="41.5" y="669.0513">19</text><text fill="#000000" font-family="sans-serif" font-size="13" lengthAdjust="spacing" textLength="155" x="63.5" y="669.0513">Click on an appointment</text><polygon fill="#181818" points="1225,699.25,1235,703.25,1225,707.25,1229,703.25" style="stroke:#181818;stroke-width:1.0;"/><line style="stroke:#181818;stroke-width:1.0;" x1="496.5" x2="1231" y1="703.25" y2="703.25"/><text fill="#000000" font-family="sans-serif" font-size="13" font-weight="bold" lengthAdjust="spacing" textLength="19" x="503.5" y="698.1841">20</text><text fill="#000000" font-family="sans-serif" font-size="13" lengthAdjust="spacing" textLength="203" x="526.5" y="698.1841">Retrieve appointment ID details</text><polygon fill="#181818" points="1700,728.3828,1710,732.3828,1700,736.3828,1704,732.3828" style="stroke:#181818;stroke-width:1.0;"/><line style="stroke:#181818;stroke-width:1.0;" x1="1247" x2="1706" y1="732.3828" y2="732.3828"/><text fill="#000000" font-family="sans-serif" font-size="13" font-weight="bold" lengthAdjust="spacing" textLength="18" x="1254" y="727.3169">21</text><text fill="#000000" font-family="sans-serif" font-size="13" lengthAdjust="spacing" textLength="203" x="1276" y="727.3169">Retrieve appointment ID details</text><polygon fill="#181818" points="2176,757.5156,2186,761.5156,2176,765.5156,2180,761.5156" style="stroke:#181818;stroke-width:1.0;"/><line style="stroke:#181818;stroke-width:1.0;" x1="1722" x2="2182" y1="761.5156" y2="761.5156"/><text fill="#000000" font-family="sans-serif" font-size="13" font-weight="bold" lengthAdjust="spacing" textLength="18" x="1729" y="756.4497">22</text><text fill="#000000" font-family="sans-serif" font-size="13" lengthAdjust="spacing" textLength="203" x="1751" y="756.4497">Retrieve appointment ID details</text><polygon fill="#181818" points="1733,786.6484,1723,790.6484,1733,794.6484,1729,790.6484" style="stroke:#181818;stroke-width:1.0;"/><line style="stroke:#181818;stroke-width:1.0;" x1="1727" x2="2192" y1="790.6484" y2="790.6484"/><text fill="#000000" font-family="sans-serif" font-size="13" font-weight="bold" lengthAdjust="spacing" textLength="17" x="1739" y="785.5825">23</text><text fill="#000000" font-family="sans-serif" font-size="13" lengthAdjust="spacing" textLength="83" x="1760" y="785.5825">Appointment</text><polygon fill="#181818" points="1258,815.7813,1248,819.7813,1258,823.7813,1254,819.7813" style="stroke:#181818;stroke-width:1.0;"/><line style="stroke:#181818;stroke-width:1.0;" x1="1252" x2="1716" y1="819.7813" y2="819.7813"/><text fill="#000000" font-family="sans-serif" font-size="13" font-weight="bold" lengthAdjust="spacing" textLength="18" x="1264" y="814.7153">24</text><text fill="#000000" font-family="sans-serif" font-size="13" lengthAdjust="spacing" textLength="83" x="1286" y="814.7153">Appointment</text><polygon fill="#181818" points="507.5,844.9141,497.5,848.9141,507.5,852.9141,503.5,848.9141" style="stroke:#181818;stroke-width:1.0;"/><line style="stroke:#181818;stroke-width:1.0;" x1="501.5" x2="1241" y1="848.9141" y2="848.9141"/><text fill="#000000" font-family="sans-serif" font-size="13" font-weight="bold" lengthAdjust="spacing" textLength="18" x="513.5" y="843.8481">25</text><text fill="#000000" font-family="sans-serif" font-size="13" lengthAdjust="spacing" textLength="83" x="535.5" y="843.8481">Appointment</text><polygon fill="#181818" points="45.5,874.0469,35.5,878.0469,45.5,882.0469,41.5,878.0469" style="stroke:#181818;stroke-width:1.0;"/><line style="stroke:#181818;stroke-width:1.0;" x1="39.5" x2="490.5" y1="878.0469" y2="878.0469"/><text fill="#000000" font-family="sans-serif" font-size="13" font-weight="bold" lengthAdjust="spacing" textLength="18" x="51.5" y="872.981">26</text><text fill="#000000" font-family="sans-serif" font-size="13" lengthAdjust="spacing" textLength="216" x="73.5" y="872.981">Show appointment with all details</text><polygon fill="#181818" points="474.5,903.1797,484.5,907.1797,474.5,911.1797,478.5,907.1797" style="stroke:#181818;stroke-width:1.0;"/><line style="stroke:#181818;stroke-width:1.0;" x1="34.5" x2="480.5" y1="907.1797" y2="907.1797"/><text fill="#000000" font-family="sans-serif" font-size="13" font-weight="bold" lengthAdjust="spacing" textLength="18" x="41.5" y="902.1138">27</text><text fill="#000000" font-family="sans-serif" font-size="13" lengthAdjust="spacing" textLength="203" x="63.5" y="902.1138">Click on "Reserve Appointment"</text><polygon fill="#181818" points="732.5,932.3125,742.5,936.3125,732.5,940.3125,736.5,936.3125" style="stroke:#181818;stroke-width:1.0;"/><line style="stroke:#181818;stroke-width:1.0;" x1="496.5" x2="738.5" y1="936.3125" y2="936.3125"/><text fill="#000000" font-family="sans-serif" font-size="13" font-weight="bold" lengthAdjust="spacing" textLength="18" x="503.5" y="931.2466">28</text><text fill="#000000" font-family="sans-serif" font-size="13" lengthAdjust="spacing" textLength="207" x="525.5" y="931.2466">Give prescription NFT to hospital</text><polygon fill="#181818" points="1022.5,961.4453,1032.5,965.4453,1022.5,969.4453,1026.5,965.4453" style="stroke:#181818;stroke-width:1.0;"/><line style="stroke:#181818;stroke-width:1.0;" x1="754.5" x2="1028.5" y1="965.4453" y2="965.4453"/><text fill="#000000" font-family="sans-serif" font-size="13" font-weight="bold" lengthAdjust="spacing" textLength="18" x="761.5" y="960.3794">29</text><text fill="#000000" font-family="sans-serif" font-size="13" lengthAdjust="spacing" textLength="209" x="783.5" y="960.3794">Give appointment NFT to patient</text><polygon fill="#181818" points="765.5,990.5781,755.5,994.5781,765.5,998.5781,761.5,994.5781" style="stroke:#181818;stroke-width:1.0;"/><line style="stroke:#181818;stroke-width:1.0;" x1="759.5" x2="1038.5" y1="994.5781" y2="994.5781"/><text fill="#000000" font-family="sans-serif" font-size="13" font-weight="bold" lengthAdjust="spacing" textLength="18" x="771.5" y="989.5122">30</text><text fill="#000000" font-family="sans-serif" font-size="13" lengthAdjust="spacing" textLength="234" x="793.5" y="989.5122">Transfer appointment NFT to patient</text><polygon fill="#181818" points="507.5,1019.7109,497.5,1023.7109,507.5,1027.7109,503.5,1023.7109" style="stroke:#181818;stroke-width:1.0;"/><line style="stroke:#181818;stroke-width:1.0;" x1="501.5" x2="748.5" y1="1023.7109" y2="1023.7109"/><text fill="#000000" font-family="sans-serif" font-size="13" font-weight="bold" lengthAdjust="spacing" textLength="17" x="513.5" y="1018.645">31</text><text fill="#000000" font-family="sans-serif" font-size="13" lengthAdjust="spacing" textLength="70" x="534.5" y="1018.645">Emit event</text><polygon fill="#181818" points="1225,1048.8438,1235,1052.8438,1225,1056.8438,1229,1052.8438" style="stroke:#181818;stroke-width:1.0;"/><line style="stroke:#181818;stroke-width:1.0;" x1="496.5" x2="1231" y1="1052.8438" y2="1052.8438"/><text fill="#000000" font-family="sans-serif" font-size="13" font-weight="bold" lengthAdjust="spacing" textLength="17" x="503.5" y="1047.7778">32</text><text fill="#000000" font-family="sans-serif" font-size="13" lengthAdjust="spacing" textLength="164" x="524.5" y="1047.7778">Reserve the appointment</text><polygon fill="#181818" points="1700,1077.9766,1710,1081.9766,1700,1085.9766,1704,1081.9766" style="stroke:#181818;stroke-width:1.0;"/><line style="stroke:#181818;stroke-width:1.0;" x1="1247" x2="1706" y1="1081.9766" y2="1081.9766"/><text fill="#000000" font-family="sans-serif" font-size="13" font-weight="bold" lengthAdjust="spacing" textLength="16" x="1254" y="1076.9106">33</text><text fill="#000000" font-family="sans-serif" font-size="13" lengthAdjust="spacing" textLength="139" x="1274" y="1076.9106">Reserve appointment</text><polygon fill="#181818" points="2176,1107.1094,2186,1111.1094,2176,1115.1094,2180,1111.1094" style="stroke:#181818;stroke-width:1.0;"/><line style="stroke:#181818;stroke-width:1.0;" x1="1722" x2="2182" y1="1111.1094" y2="1111.1094"/><text fill="#000000" font-family="sans-serif" font-size="13" font-weight="bold" lengthAdjust="spacing" textLength="17" x="1729" y="1106.0435">34</text><text fill="#000000" font-family="sans-serif" font-size="13" lengthAdjust="spacing" textLength="139" x="1750" y="1106.0435">Reserve appointment</text><polygon fill="#181818" points="1733,1136.2422,1723,1140.2422,1733,1144.2422,1729,1140.2422" style="stroke:#181818;stroke-width:1.0;"/><line style="stroke:#181818;stroke-width:1.0;" x1="1727" x2="2192" y1="1140.2422" y2="1140.2422"/><text fill="#000000" font-family="sans-serif" font-size="13" font-weight="bold" lengthAdjust="spacing" textLength="17" x="1739" y="1135.1763">35</text><text fill="#000000" font-family="sans-serif" font-size="13" lengthAdjust="spacing" textLength="144" x="1760" y="1135.1763">Appointment reserved</text><polygon fill="#181818" points="1258,1165.375,1248,1169.375,1258,1173.375,1254,1169.375" style="stroke:#181818;stroke-width:1.0;"/><line style="stroke:#181818;stroke-width:1.0;" x1="1252" x2="1716" y1="1169.375" y2="1169.375"/><text fill="#000000" font-family="sans-serif" font-size="13" font-weight="bold" lengthAdjust="spacing" textLength="17" x="1264" y="1164.3091">36</text><text fill="#000000" font-family="sans-serif" font-size="13" lengthAdjust="spacing" textLength="144" x="1285" y="1164.3091">Appointment reserved</text><polygon fill="#181818" points="507.5,1194.5078,497.5,1198.5078,507.5,1202.5078,503.5,1198.5078" style="stroke:#181818;stroke-width:1.0;"/><line style="stroke:#181818;stroke-width:1.0;" x1="501.5" x2="1241" y1="1198.5078" y2="1198.5078"/><text fill="#000000" font-family="sans-serif" font-size="13" font-weight="bold" lengthAdjust="spacing" textLength="17" x="513.5" y="1193.4419">37</text><text fill="#000000" font-family="sans-serif" font-size="13" lengthAdjust="spacing" textLength="144" x="534.5" y="1193.4419">Appointment reserved</text><polygon fill="#181818" points="45.5,1223.6406,35.5,1227.6406,45.5,1231.6406,41.5,1227.6406" style="stroke:#181818;stroke-width:1.0;"/><line style="stroke:#181818;stroke-width:1.0;" x1="39.5" x2="490.5" y1="1227.6406" y2="1227.6406"/><text fill="#000000" font-family="sans-serif" font-size="13" font-weight="bold" lengthAdjust="spacing" textLength="17" x="51.5" y="1222.5747">38</text><text fill="#000000" font-family="sans-serif" font-size="13" lengthAdjust="spacing" textLength="112" x="72.5" y="1222.5747">Show reservation</text><!--SRC=[hPR1JiCm38RlUGgBAzeBS4126o0kQ09Um6iz5j4cLU8DxUr9rdPDssLh8sxP4d_-u_nEmv8BWW-oP0x8KYk1UzPgNsx8284PQmDhDq6A0Mqx51kzLpcQOnYvnc_oQmP_YGeDoqnMw11hGpOpilAJdwMRM6h5ngKvmMEJFSHJLMcfk7GoHeJedCZyI1UXk6NzLq5ceBgR40ua-TXJDbJQhWbo3wI871atQ0bMxS0jQCT2jFLTF8xAUNyF3_1A3EKHgb34-ykN5SFL3X0ly7LKFEw2giN2eTPJv5mkzqdA1x6HT72ro7Ff5s01lb2mTPRpF7XRzPW1OB3HES1UdEESZsG6unmpr34gZ8LVoRiXRIGYiik9j6YDRfxRRU3PLwr7FU9pftylsgZ15GtdfhENXSn-mFVKY9Ng9aLeDaV0hltiwV1uHv0XqxTsjvRUddw7EUDL31lxdtA5oBW7a_6XFtkf_E4zXRWcHOheAvvDJZ7FoV-H9kxlvEhFSBqAySdtPt0kRol8YL4MDiNF4T8qjqQ2fteHqloLRfbfBWXtrLrkpTvc7FLTFKsXWZkHyWMN1nfTbi0QTjfMah6u_YcFlf0wUBZbXbqrpxvez5NThfmFy6LGsQr_QyNnynyXpwLaSEvpmRFRfpuFtxuunKyNsgOcXD4tMcKSCBazJ1sSfxL95vxSBnq2fhMEwHRz0G00]--></g></svg>