<?xml version="1.0" encoding="us-ascii" standalone="no"?><svg xmlns="http://www.w3.org/2000/svg" xmlns:xlink="http://www.w3.org/1999/xlink" contentStyleType="text/css" height="452px" preserveAspectRatio="none" style="width:1222px;height:452px;background:#FFFFFF;" version="1.1" viewBox="0 0 1222 452" width="1222px" zoomAndPan="magnify"><defs/><g><text fill="#000000" font-family="sans-serif" font-size="14" font-weight="bold" lengthAdjust="spacing" textLength="97" x="564.25" y="27.9951">Reservation</text><rect fill="#FFFFFF" height="203.9297" style="stroke:#181818;stroke-width:1.0;" width="10" x="375.5" y="149.7266"/><rect fill="#FFFFFF" height="29.1328" style="stroke:#181818;stroke-width:1.0;" width="10" x="629.5" y="178.8594"/><rect fill="#FFFFFF" height="87.3984" style="stroke:#181818;stroke-width:1.0;" width="10" x="778.5" y="237.125"/><rect fill="#FFFFFF" height="29.1328" style="stroke:#181818;stroke-width:1.0;" width="10" x="1179.5" y="266.2578"/><line style="stroke:#181818;stroke-width:0.5;stroke-dasharray:5.0,5.0;" x1="34" x2="34" y1="118.5938" y2="371.6563"/><line style="stroke:#181818;stroke-width:0.5;stroke-dasharray:5.0,5.0;" x1="380" x2="380" y1="118.5938" y2="371.6563"/><line style="stroke:#181818;stroke-width:0.5;stroke-dasharray:5.0,5.0;" x1="634" x2="634" y1="118.5938" y2="371.6563"/><line style="stroke:#181818;stroke-width:0.5;stroke-dasharray:5.0,5.0;" x1="783" x2="783" y1="118.5938" y2="371.6563"/><line style="stroke:#181818;stroke-width:0.5;stroke-dasharray:5.0,5.0;" x1="1184.5" x2="1184.5" y1="118.5938" y2="371.6563"/><text fill="#000000" font-family="sans-serif" font-size="14" lengthAdjust="spacing" textLength="53" x="5" y="115.292">Patient</text><ellipse cx="34.5" cy="50.7969" fill="#E2E2F0" rx="8" ry="8" style="stroke:#181818;stroke-width:0.5;"/><path d="M34.5,58.7969 L34.5,85.7969 M21.5,66.7969 L47.5,66.7969 M34.5,85.7969 L21.5,100.7969 M34.5,85.7969 L47.5,100.7969 " fill="none" style="stroke:#181818;stroke-width:0.5;"/><text fill="#000000" font-family="sans-serif" font-size="14" lengthAdjust="spacing" textLength="53" x="5" y="383.6514">Patient</text><ellipse cx="34.5" cy="395.4531" fill="#E2E2F0" rx="8" ry="8" style="stroke:#181818;stroke-width:0.5;"/><path d="M34.5,403.4531 L34.5,430.4531 M21.5,411.4531 L47.5,411.4531 M34.5,430.4531 L21.5,445.4531 M34.5,430.4531 L47.5,445.4531 " fill="none" style="stroke:#181818;stroke-width:0.5;"/><text fill="#000000" font-family="sans-serif" font-size="14" lengthAdjust="spacing" textLength="121" x="317" y="115.292">ReservationPage</text><path d="M360,74.2969 L360,98.2969 M360,86.2969 L377,86.2969 " fill="none" style="stroke:#181818;stroke-width:0.5;"/><ellipse cx="389" cy="86.2969" fill="#E2E2F0" rx="12" ry="12" style="stroke:#181818;stroke-width:0.5;"/><text fill="#000000" font-family="sans-serif" font-size="14" lengthAdjust="spacing" textLength="121" x="317" y="383.6514">ReservationPage</text><path d="M360,390.9531 L360,414.9531 M360,402.9531 L377,402.9531 " fill="none" style="stroke:#181818;stroke-width:0.5;"/><ellipse cx="389" cy="402.9531" fill="#E2E2F0" rx="12" ry="12" style="stroke:#181818;stroke-width:0.5;"/><rect fill="#E2E2F0" height="30.2969" rx="2.5" ry="2.5" style="stroke:#181818;stroke-width:0.5;" width="113" x="578" y="87.2969"/><text fill="#000000" font-family="sans-serif" font-size="14" lengthAdjust="spacing" textLength="99" x="585" y="107.292">PatientWallet</text><rect fill="#E2E2F0" height="30.2969" rx="2.5" ry="2.5" style="stroke:#181818;stroke-width:0.5;" width="113" x="578" y="370.6563"/><text fill="#000000" font-family="sans-serif" font-size="14" lengthAdjust="spacing" textLength="99" x="585" y="390.6514">PatientWallet</text><text fill="#000000" font-family="sans-serif" font-size="14" lengthAdjust="spacing" textLength="159" x="701" y="115.292">ReservationController</text><ellipse cx="783.5" cy="86.2969" fill="#E2E2F0" rx="12" ry="12" style="stroke:#181818;stroke-width:0.5;"/><polygon fill="#181818" points="779.5,74.2969,785.5,69.2969,783.5,74.2969,785.5,79.2969,779.5,74.2969" style="stroke:#181818;stroke-width:1.0;"/><text fill="#000000" font-family="sans-serif" font-size="14" lengthAdjust="spacing" textLength="159" x="701" y="383.6514">ReservationController</text><ellipse cx="783.5" cy="402.9531" fill="#E2E2F0" rx="12" ry="12" style="stroke:#181818;stroke-width:0.5;"/><polygon fill="#181818" points="779.5,390.9531,785.5,385.9531,783.5,390.9531,785.5,395.9531,779.5,390.9531" style="stroke:#181818;stroke-width:1.0;"/><text fill="#000000" font-family="sans-serif" font-size="14" lengthAdjust="spacing" textLength="68" x="1147.5" y="115.292">Database</text><path d="M1166.5,66.2969 C1166.5,56.2969 1184.5,56.2969 1184.5,56.2969 C1184.5,56.2969 1202.5,56.2969 1202.5,66.2969 L1202.5,92.2969 C1202.5,102.2969 1184.5,102.2969 1184.5,102.2969 C1184.5,102.2969 1166.5,102.2969 1166.5,92.2969 L1166.5,66.2969 " fill="#E2E2F0" style="stroke:#181818;stroke-width:1.5;"/><path d="M1166.5,66.2969 C1166.5,76.2969 1184.5,76.2969 1184.5,76.2969 C1184.5,76.2969 1202.5,76.2969 1202.5,66.2969 " fill="none" style="stroke:#181818;stroke-width:1.5;"/><text fill="#000000" font-family="sans-serif" font-size="14" lengthAdjust="spacing" textLength="68" x="1147.5" y="383.6514">Database</text><path d="M1166.5,396.9531 C1166.5,386.9531 1184.5,386.9531 1184.5,386.9531 C1184.5,386.9531 1202.5,386.9531 1202.5,396.9531 L1202.5,422.9531 C1202.5,432.9531 1184.5,432.9531 1184.5,432.9531 C1184.5,432.9531 1166.5,432.9531 1166.5,422.9531 L1166.5,396.9531 " fill="#E2E2F0" style="stroke:#181818;stroke-width:1.5;"/><path d="M1166.5,396.9531 C1166.5,406.9531 1184.5,406.9531 1184.5,406.9531 C1184.5,406.9531 1202.5,406.9531 1202.5,396.9531 " fill="none" style="stroke:#181818;stroke-width:1.5;"/><rect fill="#FFFFFF" height="203.9297" style="stroke:#181818;stroke-width:1.0;" width="10" x="375.5" y="149.7266"/><rect fill="#FFFFFF" height="29.1328" style="stroke:#181818;stroke-width:1.0;" width="10" x="629.5" y="178.8594"/><rect fill="#FFFFFF" height="87.3984" style="stroke:#181818;stroke-width:1.0;" width="10" x="778.5" y="237.125"/><rect fill="#FFFFFF" height="29.1328" style="stroke:#181818;stroke-width:1.0;" width="10" x="1179.5" y="266.2578"/><polygon fill="#181818" points="363.5,145.7266,373.5,149.7266,363.5,153.7266,367.5,149.7266" style="stroke:#181818;stroke-width:1.0;"/><line style="stroke:#181818;stroke-width:1.0;" x1="34.5" x2="369.5" y1="149.7266" y2="149.7266"/><text fill="#000000" font-family="sans-serif" font-size="13" font-weight="bold" lengthAdjust="spacing" textLength="9" x="41.5" y="144.6606">1</text><text fill="#000000" font-family="sans-serif" font-size="13" lengthAdjust="spacing" textLength="162" x="54.5" y="144.6606">Get my prescription NFTs</text><polygon fill="#181818" points="617.5,174.8594,627.5,178.8594,617.5,182.8594,621.5,178.8594" style="stroke:#181818;stroke-width:1.0;"/><line style="stroke:#181818;stroke-width:1.0;" x1="385.5" x2="623.5" y1="178.8594" y2="178.8594"/><text fill="#000000" font-family="sans-serif" font-size="13" font-weight="bold" lengthAdjust="spacing" textLength="9" x="392.5" y="173.7935">2</text><text fill="#000000" font-family="sans-serif" font-size="13" lengthAdjust="spacing" textLength="162" x="405.5" y="173.7935">Get my prescription NFTs</text><polygon fill="#181818" points="396.5,203.9922,386.5,207.9922,396.5,211.9922,392.5,207.9922" style="stroke:#181818;stroke-width:1.0;"/><line style="stroke:#181818;stroke-width:1.0;" x1="390.5" x2="633.5" y1="207.9922" y2="207.9922"/><text fill="#000000" font-family="sans-serif" font-size="13" font-weight="bold" lengthAdjust="spacing" textLength="8" x="402.5" y="202.9263">3</text><text fill="#000000" font-family="sans-serif" font-size="13" lengthAdjust="spacing" textLength="208" x="414.5" y="202.9263">Response with prescription NFTs</text><polygon fill="#181818" points="766.5,233.125,776.5,237.125,766.5,241.125,770.5,237.125" style="stroke:#181818;stroke-width:1.0;"/><line style="stroke:#181818;stroke-width:1.0;" x1="385.5" x2="772.5" y1="237.125" y2="237.125"/><text fill="#000000" font-family="sans-serif" font-size="13" font-weight="bold" lengthAdjust="spacing" textLength="9" x="392.5" y="232.0591">4</text><text fill="#000000" font-family="sans-serif" font-size="13" lengthAdjust="spacing" textLength="314" x="405.5" y="232.0591">Retrieve additional data for my prescription NFTs</text><polygon fill="#181818" points="1167.5,262.2578,1177.5,266.2578,1167.5,270.2578,1171.5,266.2578" style="stroke:#181818;stroke-width:1.0;"/><line style="stroke:#181818;stroke-width:1.0;" x1="788.5" x2="1173.5" y1="266.2578" y2="266.2578"/><text fill="#000000" font-family="sans-serif" font-size="13" font-weight="bold" lengthAdjust="spacing" textLength="9" x="795.5" y="261.1919">5</text><text fill="#000000" font-family="sans-serif" font-size="13" lengthAdjust="spacing" textLength="314" x="808.5" y="261.1919">Retrieve additional data for my prescription NFTs</text><polygon fill="#181818" points="799.5,291.3906,789.5,295.3906,799.5,299.3906,795.5,295.3906" style="stroke:#181818;stroke-width:1.0;"/><line style="stroke:#181818;stroke-width:1.0;" x1="793.5" x2="1183.5" y1="295.3906" y2="295.3906"/><text fill="#000000" font-family="sans-serif" font-size="13" font-weight="bold" lengthAdjust="spacing" textLength="9" x="805.5" y="290.3247">6</text><text fill="#000000" font-family="sans-serif" font-size="13" lengthAdjust="spacing" textLength="354" x="818.5" y="290.3247">Response with additional data for my prescription NFTs</text><polygon fill="#181818" points="396.5,320.5234,386.5,324.5234,396.5,328.5234,392.5,324.5234" style="stroke:#181818;stroke-width:1.0;"/><line style="stroke:#181818;stroke-width:1.0;" x1="390.5" x2="782.5" y1="324.5234" y2="324.5234"/><text fill="#000000" font-family="sans-serif" font-size="13" font-weight="bold" lengthAdjust="spacing" textLength="9" x="402.5" y="319.4575">7</text><text fill="#000000" font-family="sans-serif" font-size="13" lengthAdjust="spacing" textLength="354" x="415.5" y="319.4575">Response with additional data for my prescription NFTs</text><polygon fill="#181818" points="45.5,349.6563,35.5,353.6563,45.5,357.6563,41.5,353.6563" style="stroke:#181818;stroke-width:1.0;"/><line style="stroke:#181818;stroke-width:1.0;" x1="39.5" x2="379.5" y1="353.6563" y2="353.6563"/><text fill="#000000" font-family="sans-serif" font-size="13" font-weight="bold" lengthAdjust="spacing" textLength="9" x="51.5" y="348.5903">8</text><text fill="#000000" font-family="sans-serif" font-size="13" lengthAdjust="spacing" textLength="304" x="64.5" y="348.5903">Show my prescription NFTs with additional data</text><!--SRC=[fLB1JiCm3BtxAtoV-WCSk8363Kq3QMUtDInIbaIEksb_ZxlIqPK0qxXPzdlFpozHfvvnpPbbJ-fY0EeqXcvNim1Ger5mPGCEYfJ74khOXPRaE6Mkw9rxpAm5YKHTunAPn2T_GzxpL71eG1E3IlHJYOUXvLbcsby3Q4cffipuE1O67Mk0qNzr_ytkOe5t-6HMTaTCmhaHb_eXFYzVCypH9d1vmE_qIsnXUrKPtPef1lDySBgzpaGvdfEPDQiutbi2RUjw07diuy4tUyY_Zfo8sPPpc3SAd_a_EYxS_t_RLuHyovBP1nXaNxRnK6GMztm0]--></g></svg>