<?xml version="1.0" encoding="us-ascii" standalone="no"?><svg xmlns="http://www.w3.org/2000/svg" xmlns:xlink="http://www.w3.org/1999/xlink" contentStyleType="text/css" height="1035px" preserveAspectRatio="none" style="width:1585px;height:1035px;background:#FFFFFF;" version="1.1" viewBox="0 0 1585 1035" width="1585px" zoomAndPan="magnify"><defs/><g><text fill="#000000" font-family="sans-serif" font-size="14" font-weight="bold" lengthAdjust="spacing" textLength="97" x="745.75" y="27.9951">Reservation</text><rect fill="#FFFFFF" height="203.9297" style="stroke:#181818;stroke-width:1.0;" width="10" x="486.5" y="149.7266"/><rect fill="#FFFFFF" height="145.6641" style="stroke:#181818;stroke-width:1.0;" width="10" x="486.5" y="382.7891"/><rect fill="#FFFFFF" height="145.6641" style="stroke:#181818;stroke-width:1.0;" width="10" x="486.5" y="557.5859"/><rect fill="#FFFFFF" height="203.9297" style="stroke:#181818;stroke-width:1.0;" width="10" x="486.5" y="732.3828"/><rect fill="#FFFFFF" height="29.1328" style="stroke:#181818;stroke-width:1.0;" width="10" x="740.5" y="178.8594"/><rect fill="#FFFFFF" height="29.1328" style="stroke:#181818;stroke-width:1.0;" width="10" x="868" y="878.0469"/><rect fill="#FFFFFF" height="87.3984" style="stroke:#181818;stroke-width:1.0;" width="10" x="1021.5" y="237.125"/><rect fill="#FFFFFF" height="87.3984" style="stroke:#181818;stroke-width:1.0;" width="10" x="1021.5" y="411.9219"/><rect fill="#FFFFFF" height="87.3984" style="stroke:#181818;stroke-width:1.0;" width="10" x="1021.5" y="586.7188"/><rect fill="#FFFFFF" height="87.3984" style="stroke:#181818;stroke-width:1.0;" width="10" x="1021.5" y="761.5156"/><rect fill="#FFFFFF" height="29.1328" style="stroke:#181818;stroke-width:1.0;" width="10" x="1542.5" y="266.2578"/><rect fill="#FFFFFF" height="29.1328" style="stroke:#181818;stroke-width:1.0;" width="10" x="1542.5" y="441.0547"/><rect fill="#FFFFFF" height="29.1328" style="stroke:#181818;stroke-width:1.0;" width="10" x="1542.5" y="615.8516"/><rect fill="#FFFFFF" height="29.1328" style="stroke:#181818;stroke-width:1.0;" width="10" x="1542.5" y="790.6484"/><line style="stroke:#181818;stroke-width:0.5;stroke-dasharray:5.0,5.0;" x1="34" x2="34" y1="118.5938" y2="954.3125"/><line style="stroke:#181818;stroke-width:0.5;stroke-dasharray:5.0,5.0;" x1="491" x2="491" y1="118.5938" y2="954.3125"/><line style="stroke:#181818;stroke-width:0.5;stroke-dasharray:5.0,5.0;" x1="745" x2="745" y1="118.5938" y2="954.3125"/><line style="stroke:#181818;stroke-width:0.5;stroke-dasharray:5.0,5.0;" x1="873" x2="873" y1="118.5938" y2="954.3125"/><line style="stroke:#181818;stroke-width:0.5;stroke-dasharray:5.0,5.0;" x1="1026" x2="1026" y1="118.5938" y2="954.3125"/><line style="stroke:#181818;stroke-width:0.5;stroke-dasharray:5.0,5.0;" x1="1547.5" x2="1547.5" y1="118.5938" y2="954.3125"/><text fill="#000000" font-family="sans-serif" font-size="14" lengthAdjust="spacing" textLength="53" x="5" y="115.292">Patient</text><ellipse cx="34.5" cy="50.7969" fill="#E2E2F0" rx="8" ry="8" style="stroke:#181818;stroke-width:0.5;"/><path d="M34.5,58.7969 L34.5,85.7969 M21.5,66.7969 L47.5,66.7969 M34.5,85.7969 L21.5,100.7969 M34.5,85.7969 L47.5,100.7969 " fill="none" style="stroke:#181818;stroke-width:0.5;"/><text fill="#000000" font-family="sans-serif" font-size="14" lengthAdjust="spacing" textLength="53" x="5" y="966.3076">Patient</text><ellipse cx="34.5" cy="978.1094" fill="#E2E2F0" rx="8" ry="8" style="stroke:#181818;stroke-width:0.5;"/><path d="M34.5,986.1094 L34.5,1013.1094 M21.5,994.1094 L47.5,994.1094 M34.5,1013.1094 L21.5,1028.1094 M34.5,1013.1094 L47.5,1028.1094 " fill="none" style="stroke:#181818;stroke-width:0.5;"/><text fill="#000000" font-family="sans-serif" font-size="14" lengthAdjust="spacing" textLength="121" x="428" y="115.292">ReservationPage</text><path d="M471,74.2969 L471,98.2969 M471,86.2969 L488,86.2969 " fill="none" style="stroke:#181818;stroke-width:0.5;"/><ellipse cx="500" cy="86.2969" fill="#E2E2F0" rx="12" ry="12" style="stroke:#181818;stroke-width:0.5;"/><text fill="#000000" font-family="sans-serif" font-size="14" lengthAdjust="spacing" textLength="121" x="428" y="966.3076">ReservationPage</text><path d="M471,973.6094 L471,997.6094 M471,985.6094 L488,985.6094 " fill="none" style="stroke:#181818;stroke-width:0.5;"/><ellipse cx="500" cy="985.6094" fill="#E2E2F0" rx="12" ry="12" style="stroke:#181818;stroke-width:0.5;"/><rect fill="#E2E2F0" height="30.2969" rx="2.5" ry="2.5" style="stroke:#181818;stroke-width:0.5;" width="113" x="689" y="87.2969"/><text fill="#000000" font-family="sans-serif" font-size="14" lengthAdjust="spacing" textLength="99" x="696" y="107.292">PatientWallet</text><rect fill="#E2E2F0" height="30.2969" rx="2.5" ry="2.5" style="stroke:#181818;stroke-width:0.5;" width="113" x="689" y="953.3125"/><text fill="#000000" font-family="sans-serif" font-size="14" lengthAdjust="spacing" textLength="99" x="696" y="973.3076">PatientWallet</text><rect fill="#E2E2F0" height="30.2969" rx="2.5" ry="2.5" style="stroke:#181818;stroke-width:0.5;" width="122" x="812" y="87.2969"/><text fill="#000000" font-family="sans-serif" font-size="14" lengthAdjust="spacing" textLength="108" x="819" y="107.292">SmartContract</text><rect fill="#E2E2F0" height="30.2969" rx="2.5" ry="2.5" style="stroke:#181818;stroke-width:0.5;" width="122" x="812" y="953.3125"/><text fill="#000000" font-family="sans-serif" font-size="14" lengthAdjust="spacing" textLength="108" x="819" y="973.3076">SmartContract</text><text fill="#000000" font-family="sans-serif" font-size="14" lengthAdjust="spacing" textLength="159" x="944" y="115.292">ReservationController</text><ellipse cx="1026.5" cy="86.2969" fill="#E2E2F0" rx="12" ry="12" style="stroke:#181818;stroke-width:0.5;"/><polygon fill="#181818" points="1022.5,74.2969,1028.5,69.2969,1026.5,74.2969,1028.5,79.2969,1022.5,74.2969" style="stroke:#181818;stroke-width:1.0;"/><text fill="#000000" font-family="sans-serif" font-size="14" lengthAdjust="spacing" textLength="159" x="944" y="966.3076">ReservationController</text><ellipse cx="1026.5" cy="985.6094" fill="#E2E2F0" rx="12" ry="12" style="stroke:#181818;stroke-width:0.5;"/><polygon fill="#181818" points="1022.5,973.6094,1028.5,968.6094,1026.5,973.6094,1028.5,978.6094,1022.5,973.6094" style="stroke:#181818;stroke-width:1.0;"/><text fill="#000000" font-family="sans-serif" font-size="14" lengthAdjust="spacing" textLength="68" x="1510.5" y="115.292">Database</text><path d="M1529.5,66.2969 C1529.5,56.2969 1547.5,56.2969 1547.5,56.2969 C1547.5,56.2969 1565.5,56.2969 1565.5,66.2969 L1565.5,92.2969 C1565.5,102.2969 1547.5,102.2969 1547.5,102.2969 C1547.5,102.2969 1529.5,102.2969 1529.5,92.2969 L1529.5,66.2969 " fill="#E2E2F0" style="stroke:#181818;stroke-width:1.5;"/><path d="M1529.5,66.2969 C1529.5,76.2969 1547.5,76.2969 1547.5,76.2969 C1547.5,76.2969 1565.5,76.2969 1565.5,66.2969 " fill="none" style="stroke:#181818;stroke-width:1.5;"/><text fill="#000000" font-family="sans-serif" font-size="14" lengthAdjust="spacing" textLength="68" x="1510.5" y="966.3076">Database</text><path d="M1529.5,979.6094 C1529.5,969.6094 1547.5,969.6094 1547.5,969.6094 C1547.5,969.6094 1565.5,969.6094 1565.5,979.6094 L1565.5,1005.6094 C1565.5,1015.6094 1547.5,1015.6094 1547.5,1015.6094 C1547.5,1015.6094 1529.5,1015.6094 1529.5,1005.6094 L1529.5,979.6094 " fill="#E2E2F0" style="stroke:#181818;stroke-width:1.5;"/><path d="M1529.5,979.6094 C1529.5,989.6094 1547.5,989.6094 1547.5,989.6094 C1547.5,989.6094 1565.5,989.6094 1565.5,979.6094 " fill="none" style="stroke:#181818;stroke-width:1.5;"/><rect fill="#FFFFFF" height="203.9297" style="stroke:#181818;stroke-width:1.0;" width="10" x="486.5" y="149.7266"/><rect fill="#FFFFFF" height="145.6641" style="stroke:#181818;stroke-width:1.0;" width="10" x="486.5" y="382.7891"/><rect fill="#FFFFFF" height="145.6641" style="stroke:#181818;stroke-width:1.0;" width="10" x="486.5" y="557.5859"/><rect fill="#FFFFFF" height="203.9297" style="stroke:#181818;stroke-width:1.0;" width="10" x="486.5" y="732.3828"/><rect fill="#FFFFFF" height="29.1328" style="stroke:#181818;stroke-width:1.0;" width="10" x="740.5" y="178.8594"/><rect fill="#FFFFFF" height="29.1328" style="stroke:#181818;stroke-width:1.0;" width="10" x="868" y="878.0469"/><rect fill="#FFFFFF" height="87.3984" style="stroke:#181818;stroke-width:1.0;" width="10" x="1021.5" y="237.125"/><rect fill="#FFFFFF" height="87.3984" style="stroke:#181818;stroke-width:1.0;" width="10" x="1021.5" y="411.9219"/><rect fill="#FFFFFF" height="87.3984" style="stroke:#181818;stroke-width:1.0;" width="10" x="1021.5" y="586.7188"/><rect fill="#FFFFFF" height="87.3984" style="stroke:#181818;stroke-width:1.0;" width="10" x="1021.5" y="761.5156"/><rect fill="#FFFFFF" height="29.1328" style="stroke:#181818;stroke-width:1.0;" width="10" x="1542.5" y="266.2578"/><rect fill="#FFFFFF" height="29.1328" style="stroke:#181818;stroke-width:1.0;" width="10" x="1542.5" y="441.0547"/><rect fill="#FFFFFF" height="29.1328" style="stroke:#181818;stroke-width:1.0;" width="10" x="1542.5" y="615.8516"/><rect fill="#FFFFFF" height="29.1328" style="stroke:#181818;stroke-width:1.0;" width="10" x="1542.5" y="790.6484"/><polygon fill="#181818" points="474.5,145.7266,484.5,149.7266,474.5,153.7266,478.5,149.7266" style="stroke:#181818;stroke-width:1.0;"/><line style="stroke:#181818;stroke-width:1.0;" x1="34.5" x2="480.5" y1="149.7266" y2="149.7266"/><text fill="#000000" font-family="sans-serif" font-size="13" font-weight="bold" lengthAdjust="spacing" textLength="9" x="41.5" y="144.6606">1</text><text fill="#000000" font-family="sans-serif" font-size="13" lengthAdjust="spacing" textLength="162" x="54.5" y="144.6606">Get my prescription NFTs</text><polygon fill="#181818" points="728.5,174.8594,738.5,178.8594,728.5,182.8594,732.5,178.8594" style="stroke:#181818;stroke-width:1.0;"/><line style="stroke:#181818;stroke-width:1.0;" x1="496.5" x2="734.5" y1="178.8594" y2="178.8594"/><text fill="#000000" font-family="sans-serif" font-size="13" font-weight="bold" lengthAdjust="spacing" textLength="9" x="503.5" y="173.7935">2</text><text fill="#000000" font-family="sans-serif" font-size="13" lengthAdjust="spacing" textLength="162" x="516.5" y="173.7935">Get my prescription NFTs</text><polygon fill="#181818" points="507.5,203.9922,497.5,207.9922,507.5,211.9922,503.5,207.9922" style="stroke:#181818;stroke-width:1.0;"/><line style="stroke:#181818;stroke-width:1.0;" x1="501.5" x2="744.5" y1="207.9922" y2="207.9922"/><text fill="#000000" font-family="sans-serif" font-size="13" font-weight="bold" lengthAdjust="spacing" textLength="8" x="513.5" y="202.9263">3</text><text fill="#000000" font-family="sans-serif" font-size="13" lengthAdjust="spacing" textLength="208" x="525.5" y="202.9263">Response with prescription NFTs</text><polygon fill="#181818" points="1009.5,233.125,1019.5,237.125,1009.5,241.125,1013.5,237.125" style="stroke:#181818;stroke-width:1.0;"/><line style="stroke:#181818;stroke-width:1.0;" x1="496.5" x2="1015.5" y1="237.125" y2="237.125"/><text fill="#000000" font-family="sans-serif" font-size="13" font-weight="bold" lengthAdjust="spacing" textLength="9" x="503.5" y="232.0591">4</text><text fill="#000000" font-family="sans-serif" font-size="13" lengthAdjust="spacing" textLength="314" x="516.5" y="232.0591">Retrieve additional data for my prescription NFTs</text><polygon fill="#181818" points="1530.5,262.2578,1540.5,266.2578,1530.5,270.2578,1534.5,266.2578" style="stroke:#181818;stroke-width:1.0;"/><line style="stroke:#181818;stroke-width:1.0;" x1="1031.5" x2="1536.5" y1="266.2578" y2="266.2578"/><text fill="#000000" font-family="sans-serif" font-size="13" font-weight="bold" lengthAdjust="spacing" textLength="9" x="1038.5" y="261.1919">5</text><text fill="#000000" font-family="sans-serif" font-size="13" lengthAdjust="spacing" textLength="314" x="1051.5" y="261.1919">Retrieve additional data for my prescription NFTs</text><polygon fill="#181818" points="1042.5,291.3906,1032.5,295.3906,1042.5,299.3906,1038.5,295.3906" style="stroke:#181818;stroke-width:1.0;"/><line style="stroke:#181818;stroke-width:1.0;" x1="1036.5" x2="1546.5" y1="295.3906" y2="295.3906"/><text fill="#000000" font-family="sans-serif" font-size="13" font-weight="bold" lengthAdjust="spacing" textLength="9" x="1048.5" y="290.3247">6</text><text fill="#000000" font-family="sans-serif" font-size="13" lengthAdjust="spacing" textLength="354" x="1061.5" y="290.3247">Response with additional data for my prescription NFTs</text><polygon fill="#181818" points="507.5,320.5234,497.5,324.5234,507.5,328.5234,503.5,324.5234" style="stroke:#181818;stroke-width:1.0;"/><line style="stroke:#181818;stroke-width:1.0;" x1="501.5" x2="1025.5" y1="324.5234" y2="324.5234"/><text fill="#000000" font-family="sans-serif" font-size="13" font-weight="bold" lengthAdjust="spacing" textLength="9" x="513.5" y="319.4575">7</text><text fill="#000000" font-family="sans-serif" font-size="13" lengthAdjust="spacing" textLength="354" x="526.5" y="319.4575">Response with additional data for my prescription NFTs</text><polygon fill="#181818" points="45.5,349.6563,35.5,353.6563,45.5,357.6563,41.5,353.6563" style="stroke:#181818;stroke-width:1.0;"/><line style="stroke:#181818;stroke-width:1.0;" x1="39.5" x2="490.5" y1="353.6563" y2="353.6563"/><text fill="#000000" font-family="sans-serif" font-size="13" font-weight="bold" lengthAdjust="spacing" textLength="9" x="51.5" y="348.5903">8</text><text fill="#000000" font-family="sans-serif" font-size="13" lengthAdjust="spacing" textLength="304" x="64.5" y="348.5903">Show my prescription NFTs with additional data</text><polygon fill="#181818" points="474.5,378.7891,484.5,382.7891,474.5,386.7891,478.5,382.7891" style="stroke:#181818;stroke-width:1.0;"/><line style="stroke:#181818;stroke-width:1.0;" x1="34.5" x2="480.5" y1="382.7891" y2="382.7891"/><text fill="#000000" font-family="sans-serif" font-size="13" font-weight="bold" lengthAdjust="spacing" textLength="9" x="41.5" y="377.7231">9</text><text fill="#000000" font-family="sans-serif" font-size="13" lengthAdjust="spacing" textLength="168" x="54.5" y="377.7231">Click on a prescription NFT</text><polygon fill="#181818" points="1009.5,407.9219,1019.5,411.9219,1009.5,415.9219,1013.5,411.9219" style="stroke:#181818;stroke-width:1.0;"/><line style="stroke:#181818;stroke-width:1.0;" x1="496.5" x2="1015.5" y1="411.9219" y2="411.9219"/><text fill="#000000" font-family="sans-serif" font-size="13" font-weight="bold" lengthAdjust="spacing" textLength="19" x="503.5" y="406.856">10</text><text fill="#000000" font-family="sans-serif" font-size="13" lengthAdjust="spacing" textLength="425" x="526.5" y="406.856">Retrieve nearby appointments for the category of the prescription</text><polygon fill="#181818" points="1530.5,437.0547,1540.5,441.0547,1530.5,445.0547,1534.5,441.0547" style="stroke:#181818;stroke-width:1.0;"/><line style="stroke:#181818;stroke-width:1.0;" x1="1031.5" x2="1536.5" y1="441.0547" y2="441.0547"/><text fill="#000000" font-family="sans-serif" font-size="13" font-weight="bold" lengthAdjust="spacing" textLength="18" x="1038.5" y="435.9888">11</text><text fill="#000000" font-family="sans-serif" font-size="13" lengthAdjust="spacing" textLength="425" x="1060.5" y="435.9888">Retrieve nearby appointments for the category of the prescription</text><polygon fill="#181818" points="1042.5,466.1875,1032.5,470.1875,1042.5,474.1875,1038.5,470.1875" style="stroke:#181818;stroke-width:1.0;"/><line style="stroke:#181818;stroke-width:1.0;" x1="1036.5" x2="1546.5" y1="470.1875" y2="470.1875"/><text fill="#000000" font-family="sans-serif" font-size="13" font-weight="bold" lengthAdjust="spacing" textLength="18" x="1048.5" y="465.1216">12</text><text fill="#000000" font-family="sans-serif" font-size="13" lengthAdjust="spacing" textLength="465" x="1070.5" y="465.1216">Response with nearby appointments for the category of the prescription</text><polygon fill="#181818" points="507.5,495.3203,497.5,499.3203,507.5,503.3203,503.5,499.3203" style="stroke:#181818;stroke-width:1.0;"/><line style="stroke:#181818;stroke-width:1.0;" x1="501.5" x2="1025.5" y1="499.3203" y2="499.3203"/><text fill="#000000" font-family="sans-serif" font-size="13" font-weight="bold" lengthAdjust="spacing" textLength="17" x="513.5" y="494.2544">13</text><text fill="#000000" font-family="sans-serif" font-size="13" lengthAdjust="spacing" textLength="465" x="534.5" y="494.2544">Response with nearby appointments for the category of the prescription</text><polygon fill="#181818" points="45.5,524.4531,35.5,528.4531,45.5,532.4531,41.5,528.4531" style="stroke:#181818;stroke-width:1.0;"/><line style="stroke:#181818;stroke-width:1.0;" x1="39.5" x2="490.5" y1="528.4531" y2="528.4531"/><text fill="#000000" font-family="sans-serif" font-size="13" font-weight="bold" lengthAdjust="spacing" textLength="18" x="51.5" y="523.3872">14</text><text fill="#000000" font-family="sans-serif" font-size="13" lengthAdjust="spacing" textLength="406" x="73.5" y="523.3872">Show nearby appointments for the category of the prescription</text><polygon fill="#181818" points="474.5,553.5859,484.5,557.5859,474.5,561.5859,478.5,557.5859" style="stroke:#181818;stroke-width:1.0;"/><line style="stroke:#181818;stroke-width:1.0;" x1="34.5" x2="480.5" y1="557.5859" y2="557.5859"/><text fill="#000000" font-family="sans-serif" font-size="13" font-weight="bold" lengthAdjust="spacing" textLength="18" x="41.5" y="552.52">15</text><text fill="#000000" font-family="sans-serif" font-size="13" lengthAdjust="spacing" textLength="155" x="63.5" y="552.52">Click on an appointment</text><polygon fill="#181818" points="1009.5,582.7188,1019.5,586.7188,1009.5,590.7188,1013.5,586.7188" style="stroke:#181818;stroke-width:1.0;"/><line style="stroke:#181818;stroke-width:1.0;" x1="496.5" x2="1015.5" y1="586.7188" y2="586.7188"/><text fill="#000000" font-family="sans-serif" font-size="13" font-weight="bold" lengthAdjust="spacing" textLength="18" x="503.5" y="581.6528">16</text><text fill="#000000" font-family="sans-serif" font-size="13" lengthAdjust="spacing" textLength="186" x="525.5" y="581.6528">Retrieve appointment details</text><polygon fill="#181818" points="1530.5,611.8516,1540.5,615.8516,1530.5,619.8516,1534.5,615.8516" style="stroke:#181818;stroke-width:1.0;"/><line style="stroke:#181818;stroke-width:1.0;" x1="1031.5" x2="1536.5" y1="615.8516" y2="615.8516"/><text fill="#000000" font-family="sans-serif" font-size="13" font-weight="bold" lengthAdjust="spacing" textLength="18" x="1038.5" y="610.7856">17</text><text fill="#000000" font-family="sans-serif" font-size="13" lengthAdjust="spacing" textLength="186" x="1060.5" y="610.7856">Retrieve appointment details</text><polygon fill="#181818" points="1042.5,640.9844,1032.5,644.9844,1042.5,648.9844,1038.5,644.9844" style="stroke:#181818;stroke-width:1.0;"/><line style="stroke:#181818;stroke-width:1.0;" x1="1036.5" x2="1546.5" y1="644.9844" y2="644.9844"/><text fill="#000000" font-family="sans-serif" font-size="13" font-weight="bold" lengthAdjust="spacing" textLength="18" x="1048.5" y="639.9185">18</text><text fill="#000000" font-family="sans-serif" font-size="13" lengthAdjust="spacing" textLength="226" x="1070.5" y="639.9185">Response with appointment details</text><polygon fill="#181818" points="507.5,670.1172,497.5,674.1172,507.5,678.1172,503.5,674.1172" style="stroke:#181818;stroke-width:1.0;"/><line style="stroke:#181818;stroke-width:1.0;" x1="501.5" x2="1025.5" y1="674.1172" y2="674.1172"/><text fill="#000000" font-family="sans-serif" font-size="13" font-weight="bold" lengthAdjust="spacing" textLength="18" x="513.5" y="669.0513">19</text><text fill="#000000" font-family="sans-serif" font-size="13" lengthAdjust="spacing" textLength="226" x="535.5" y="669.0513">Response with appointment details</text><polygon fill="#181818" points="45.5,699.25,35.5,703.25,45.5,707.25,41.5,703.25" style="stroke:#181818;stroke-width:1.0;"/><line style="stroke:#181818;stroke-width:1.0;" x1="39.5" x2="490.5" y1="703.25" y2="703.25"/><text fill="#000000" font-family="sans-serif" font-size="13" font-weight="bold" lengthAdjust="spacing" textLength="19" x="51.5" y="698.1841">20</text><text fill="#000000" font-family="sans-serif" font-size="13" lengthAdjust="spacing" textLength="167" x="74.5" y="698.1841">Show appointment details</text><polygon fill="#181818" points="474.5,728.3828,484.5,732.3828,474.5,736.3828,478.5,732.3828" style="stroke:#181818;stroke-width:1.0;"/><line style="stroke:#181818;stroke-width:1.0;" x1="34.5" x2="480.5" y1="732.3828" y2="732.3828"/><text fill="#000000" font-family="sans-serif" font-size="13" font-weight="bold" lengthAdjust="spacing" textLength="18" x="41.5" y="727.3169">21</text><text fill="#000000" font-family="sans-serif" font-size="13" lengthAdjust="spacing" textLength="203" x="63.5" y="727.3169">Click on "Reserve Appointment"</text><polygon fill="#181818" points="1009.5,757.5156,1019.5,761.5156,1009.5,765.5156,1013.5,761.5156" style="stroke:#181818;stroke-width:1.0;"/><line style="stroke:#181818;stroke-width:1.0;" x1="496.5" x2="1015.5" y1="761.5156" y2="761.5156"/><text fill="#000000" font-family="sans-serif" font-size="13" font-weight="bold" lengthAdjust="spacing" textLength="18" x="503.5" y="756.4497">22</text><text fill="#000000" font-family="sans-serif" font-size="13" lengthAdjust="spacing" textLength="164" x="525.5" y="756.4497">Reserve the appointment</text><polygon fill="#181818" points="1530.5,786.6484,1540.5,790.6484,1530.5,794.6484,1534.5,790.6484" style="stroke:#181818;stroke-width:1.0;"/><line style="stroke:#181818;stroke-width:1.0;" x1="1031.5" x2="1536.5" y1="790.6484" y2="790.6484"/><text fill="#000000" font-family="sans-serif" font-size="13" font-weight="bold" lengthAdjust="spacing" textLength="17" x="1038.5" y="785.5825">23</text><text fill="#000000" font-family="sans-serif" font-size="13" lengthAdjust="spacing" textLength="164" x="1059.5" y="785.5825">Reserve the appointment</text><polygon fill="#181818" points="1042.5,815.7813,1032.5,819.7813,1042.5,823.7813,1038.5,819.7813" style="stroke:#181818;stroke-width:1.0;"/><line style="stroke:#181818;stroke-width:1.0;" x1="1036.5" x2="1546.5" y1="819.7813" y2="819.7813"/><text fill="#000000" font-family="sans-serif" font-size="13" font-weight="bold" lengthAdjust="spacing" textLength="18" x="1048.5" y="814.7153">24</text><text fill="#000000" font-family="sans-serif" font-size="13" lengthAdjust="spacing" textLength="215" x="1070.5" y="814.7153">Response with reservation status</text><polygon fill="#181818" points="507.5,844.9141,497.5,848.9141,507.5,852.9141,503.5,848.9141" style="stroke:#181818;stroke-width:1.0;"/><line style="stroke:#181818;stroke-width:1.0;" x1="501.5" x2="1025.5" y1="848.9141" y2="848.9141"/><text fill="#000000" font-family="sans-serif" font-size="13" font-weight="bold" lengthAdjust="spacing" textLength="18" x="513.5" y="843.8481">25</text><text fill="#000000" font-family="sans-serif" font-size="13" lengthAdjust="spacing" textLength="215" x="535.5" y="843.8481">Response with reservation status</text><polygon fill="#181818" points="856,874.0469,866,878.0469,856,882.0469,860,878.0469" style="stroke:#181818;stroke-width:1.0;"/><line style="stroke:#181818;stroke-width:1.0;" x1="496.5" x2="862" y1="878.0469" y2="878.0469"/><text fill="#000000" font-family="sans-serif" font-size="13" font-weight="bold" lengthAdjust="spacing" textLength="18" x="503.5" y="872.981">26</text><text fill="#000000" font-family="sans-serif" font-size="13" lengthAdjust="spacing" textLength="306" x="525.5" y="872.981">Exchange prescription NFT for appointment NFT</text><polygon fill="#181818" points="507.5,903.1797,497.5,907.1797,507.5,911.1797,503.5,907.1797" style="stroke:#181818;stroke-width:1.0;"/><line style="stroke:#181818;stroke-width:1.0;" x1="501.5" x2="872" y1="907.1797" y2="907.1797"/><text fill="#000000" font-family="sans-serif" font-size="13" font-weight="bold" lengthAdjust="spacing" textLength="18" x="513.5" y="902.1138">27</text><text fill="#000000" font-family="sans-serif" font-size="13" lengthAdjust="spacing" textLength="70" x="535.5" y="902.1138">Emit event</text><polygon fill="#181818" points="45.5,932.3125,35.5,936.3125,45.5,940.3125,41.5,936.3125" style="stroke:#181818;stroke-width:1.0;"/><line style="stroke:#181818;stroke-width:1.0;" x1="39.5" x2="490.5" y1="936.3125" y2="936.3125"/><text fill="#000000" font-family="sans-serif" font-size="13" font-weight="bold" lengthAdjust="spacing" textLength="18" x="51.5" y="931.2466">28</text><text fill="#000000" font-family="sans-serif" font-size="13" lengthAdjust="spacing" textLength="156" x="73.5" y="931.2466">Show reservation status</text><!--SRC=[hLR1Ri8m3BtdAookY1_OOTB4s6xJ19DsTbi3qTgaIbqOVp-tNQ4jBPJ0BN7ivsVxrIfhZWcMb97R8Mjh5EPiJPu4v9J2aAs3JtaWmu1PVLI1pKs4xj2C_CGD5JuTaqhHiGvrYWBn7_-DSKnDmChGSbqbSfbRmqvO5AvjWmgBausRwUQLAIRNuN5wK14o1fWHlDO7SQtFIjMrpfxFIfjEuGdUXNPoWDHH5ZgT5e_myVQLgQwt0BIBlHpUzkt9Ffj9k1XJQuJpNlDs78d-zfHabiHEqquw44MwSC0OYlR0MeP-hSW6c6GvDjCJ-1W_oBYd_ljfZsYoJvAE02hOrTRkUoDxyrnNuZpMuGy81fv1-kh04BhW09YcLXjE97jMrijRWX2PDbQ-UBikxysSD-l2Ev6NJXvVrWZTF2Bfi8wyqM-GbMd2Uw-M4mH4nAXZZotIW-6tC6uXCsOtNCOR7bzVuFZ9JAfdWfSJpEJc0LKGXK06ndnvDltXNcDn9qV863c_RogNuUhUjFycog8Ml-4MpOREzcdvQJLdLkpODi0GjKMY6KJ44ZHE6kVi_m00]--></g></svg>