<?xml version="1.0" encoding="us-ascii" standalone="no"?><svg xmlns="http://www.w3.org/2000/svg" xmlns:xlink="http://www.w3.org/1999/xlink" contentStyleType="text/css" height="511px" preserveAspectRatio="none" style="width:978px;height:511px;background:#FFFFFF;" version="1.1" viewBox="0 0 978 511" width="978px" zoomAndPan="magnify"><defs/><g><text fill="#000000" font-family="sans-serif" font-size="14" font-weight="bold" lengthAdjust="spacing" textLength="157" x="410" y="27.9951">Revoke Doctor Role</text><rect fill="#90EE90" height="177.6016" style="stroke:#000000;stroke-width:1.5;" width="825.5" x="10" y="235.9922"/><rect fill="#F08080" height="73.0703" style="stroke:none;stroke-width:1.0;" width="825.5" x="10" y="340.5234"/><line style="stroke:#181818;stroke-width:0.5;stroke-dasharray:5.0,5.0;" x1="68" x2="68" y1="118.5938" y2="430.5938"/><line style="stroke:#181818;stroke-width:0.5;stroke-dasharray:5.0,5.0;" x1="155" x2="155" y1="118.5938" y2="430.5938"/><line style="stroke:#181818;stroke-width:0.5;stroke-dasharray:5.0,5.0;" x1="493" x2="493" y1="118.5938" y2="430.5938"/><line style="stroke:#181818;stroke-width:0.5;stroke-dasharray:5.0,5.0;" x1="766.5" x2="766.5" y1="118.5938" y2="430.5938"/><text fill="#000000" font-family="sans-serif" font-size="14" lengthAdjust="spacing" textLength="91" x="20" y="115.292">Government</text><ellipse cx="68.5" cy="50.7969" fill="#E2E2F0" rx="8" ry="8" style="stroke:#181818;stroke-width:0.5;"/><path d="M68.5,58.7969 L68.5,85.7969 M55.5,66.7969 L81.5,66.7969 M68.5,85.7969 L55.5,100.7969 M68.5,85.7969 L81.5,100.7969 " fill="none" style="stroke:#181818;stroke-width:0.5;"/><text fill="#000000" font-family="sans-serif" font-size="14" lengthAdjust="spacing" textLength="91" x="20" y="442.5889">Government</text><ellipse cx="68.5" cy="454.3906" fill="#E2E2F0" rx="8" ry="8" style="stroke:#181818;stroke-width:0.5;"/><path d="M68.5,462.3906 L68.5,489.3906 M55.5,470.3906 L81.5,470.3906 M68.5,489.3906 L55.5,504.3906 M68.5,489.3906 L81.5,504.3906 " fill="none" style="stroke:#181818;stroke-width:0.5;"/><text fill="#000000" font-family="sans-serif" font-size="14" lengthAdjust="spacing" textLength="50" x="127" y="115.292">Doctor</text><ellipse cx="155" cy="50.7969" fill="#E2E2F0" rx="8" ry="8" style="stroke:#181818;stroke-width:0.5;"/><path d="M155,58.7969 L155,85.7969 M142,66.7969 L168,66.7969 M155,85.7969 L142,100.7969 M155,85.7969 L168,100.7969 " fill="none" style="stroke:#181818;stroke-width:0.5;"/><text fill="#000000" font-family="sans-serif" font-size="14" lengthAdjust="spacing" textLength="50" x="127" y="442.5889">Doctor</text><ellipse cx="155" cy="454.3906" fill="#E2E2F0" rx="8" ry="8" style="stroke:#181818;stroke-width:0.5;"/><path d="M155,462.3906 L155,489.3906 M142,470.3906 L168,470.3906 M155,489.3906 L142,504.3906 M155,489.3906 L168,504.3906 " fill="none" style="stroke:#181818;stroke-width:0.5;"/><rect fill="#E2E2F0" height="30.2969" rx="2.5" ry="2.5" style="stroke:#181818;stroke-width:0.5;" width="210" x="388" y="87.2969"/><text fill="#000000" font-family="sans-serif" font-size="14" lengthAdjust="spacing" textLength="196" x="395" y="107.292">PrescriptionSmartContract</text><rect fill="#E2E2F0" height="30.2969" rx="2.5" ry="2.5" style="stroke:#181818;stroke-width:0.5;" width="210" x="388" y="429.5938"/><text fill="#000000" font-family="sans-serif" font-size="14" lengthAdjust="spacing" textLength="196" x="395" y="449.5889">PrescriptionSmartContract</text><rect fill="#E2E2F0" height="30.2969" rx="2.5" ry="2.5" style="stroke:#181818;stroke-width:0.5;" width="117" x="708.5" y="87.2969"/><text fill="#000000" font-family="sans-serif" font-size="14" lengthAdjust="spacing" textLength="103" x="715.5" y="107.292">AccessControl</text><rect fill="#E2E2F0" height="30.2969" rx="2.5" ry="2.5" style="stroke:#181818;stroke-width:0.5;" width="117" x="708.5" y="429.5938"/><text fill="#000000" font-family="sans-serif" font-size="14" lengthAdjust="spacing" textLength="103" x="715.5" y="449.5889">AccessControl</text><polygon fill="#181818" points="481,145.7266,491,149.7266,481,153.7266,485,149.7266" style="stroke:#181818;stroke-width:1.0;"/><line style="stroke:#181818;stroke-width:1.0;" x1="68.5" x2="487" y1="149.7266" y2="149.7266"/><text fill="#000000" font-family="sans-serif" font-size="13" font-weight="bold" lengthAdjust="spacing" textLength="9" x="75.5" y="144.6606">1</text><text fill="#000000" font-family="sans-serif" font-size="13" lengthAdjust="spacing" textLength="140" x="88.5" y="144.6606">Revoke role to Doctor</text><polygon fill="#181818" points="755,174.8594,765,178.8594,755,182.8594,759,178.8594" style="stroke:#181818;stroke-width:1.0;"/><line style="stroke:#181818;stroke-width:1.0;" x1="493" x2="761" y1="178.8594" y2="178.8594"/><text fill="#000000" font-family="sans-serif" font-size="13" font-weight="bold" lengthAdjust="spacing" textLength="9" x="500" y="173.7935">2</text><text fill="#000000" font-family="sans-serif" font-size="13" lengthAdjust="spacing" textLength="140" x="513" y="173.7935">Revoke role to Doctor</text><line style="stroke:#181818;stroke-width:1.0;" x1="767" x2="809" y1="207.9922" y2="207.9922"/><line style="stroke:#181818;stroke-width:1.0;" x1="809" x2="809" y1="207.9922" y2="220.9922"/><line style="stroke:#181818;stroke-width:1.0;" x1="768" x2="809" y1="220.9922" y2="220.9922"/><polygon fill="#181818" points="778,216.9922,768,220.9922,778,224.9922,774,220.9922" style="stroke:#181818;stroke-width:1.0;"/><text fill="#000000" font-family="sans-serif" font-size="13" font-weight="bold" lengthAdjust="spacing" textLength="8" x="774" y="202.9263">3</text><text fill="#000000" font-family="sans-serif" font-size="13" lengthAdjust="spacing" textLength="185" x="786" y="202.9263">Check if sender is authorized</text><path d="M10,235.9922 L76,235.9922 L76,243.125 L66,253.125 L10,253.125 L10,235.9922 " fill="#EEEEEE" style="stroke:#000000;stroke-width:1.5;"/><rect fill="none" height="177.6016" style="stroke:#000000;stroke-width:1.5;" width="825.5" x="10" y="235.9922"/><text fill="#000000" font-family="sans-serif" font-size="13" font-weight="bold" lengthAdjust="spacing" textLength="21" x="25" y="249.0591">alt</text><text fill="#000000" font-family="sans-serif" font-size="11" font-weight="bold" lengthAdjust="spacing" textLength="144" x="91" y="248.2026">[Valid Public Address]</text><polygon fill="#181818" points="504,270.2578,494,274.2578,504,278.2578,500,274.2578" style="stroke:#181818;stroke-width:1.0;"/><line style="stroke:#181818;stroke-width:1.0;" x1="498" x2="766" y1="274.2578" y2="274.2578"/><text fill="#000000" font-family="sans-serif" font-size="13" font-weight="bold" lengthAdjust="spacing" textLength="9" x="510" y="269.1919">4</text><text fill="#000000" font-family="sans-serif" font-size="13" lengthAdjust="spacing" textLength="127" x="523" y="269.1919">Doctor role revoked</text><polygon fill="#181818" points="79.5,299.3906,69.5,303.3906,79.5,307.3906,75.5,303.3906" style="stroke:#181818;stroke-width:1.0;"/><line style="stroke:#181818;stroke-width:1.0;" x1="73.5" x2="766" y1="303.3906" y2="303.3906"/><text fill="#000000" font-family="sans-serif" font-size="13" font-weight="bold" lengthAdjust="spacing" textLength="9" x="85.5" y="298.3247">5</text><text fill="#000000" font-family="sans-serif" font-size="13" lengthAdjust="spacing" textLength="158" x="98.5" y="298.3247">Emit RoleRevoked event</text><polygon fill="#181818" points="166,328.5234,156,332.5234,166,336.5234,162,332.5234" style="stroke:#181818;stroke-width:1.0;"/><line style="stroke:#181818;stroke-width:1.0;" x1="160" x2="492" y1="332.5234" y2="332.5234"/><text fill="#000000" font-family="sans-serif" font-size="13" font-weight="bold" lengthAdjust="spacing" textLength="9" x="172" y="327.4575">6</text><text fill="#000000" font-family="sans-serif" font-size="13" lengthAdjust="spacing" textLength="276" x="185" y="327.4575">Doctor disabled to mint prescription tokens</text><line style="stroke:#000000;stroke-width:1.0;stroke-dasharray:2.0,2.0;" x1="10" x2="835.5" y1="341.5234" y2="341.5234"/><text fill="#000000" font-family="sans-serif" font-size="11" font-weight="bold" lengthAdjust="spacing" textLength="154" x="15" y="351.7339">[Invalid Public Address]</text><polygon fill="#181818" points="504,372.4609,494,376.4609,504,380.4609,500,376.4609" style="stroke:#181818;stroke-width:1.0;"/><line style="stroke:#181818;stroke-width:1.0;" x1="498" x2="766" y1="376.4609" y2="376.4609"/><text fill="#000000" font-family="sans-serif" font-size="13" font-weight="bold" lengthAdjust="spacing" textLength="9" x="510" y="371.395">7</text><text fill="#000000" font-family="sans-serif" font-size="13" lengthAdjust="spacing" textLength="237" x="523" y="371.395">Revert and do not revoke doctor role</text><polygon fill="#181818" points="166,401.5938,156,405.5938,166,409.5938,162,405.5938" style="stroke:#181818;stroke-width:1.0;"/><line style="stroke:#181818;stroke-width:1.0;" x1="160" x2="492" y1="405.5938" y2="405.5938"/><text fill="#000000" font-family="sans-serif" font-size="13" font-weight="bold" lengthAdjust="spacing" textLength="9" x="172" y="400.5278">8</text><text fill="#000000" font-family="sans-serif" font-size="13" lengthAdjust="spacing" textLength="301" x="185" y="400.5278">Doctor not disabled to mint prescription tokens</text><!--SRC=[hL71IWD13BtFLmGy-mCz2ALA4JoK2jvdPw8DdKsMJBe7lzxiTbjRR8k2Sviax-Mz5oCh26liPOlmACb4OIq5GzoPyAvjK4E8OtafFIgto3OLzkEXYsgKg8jii5AiIQap4dvjlR4GDlNniwbvIbZhs98IGlXcXlk7wnmmEmXr68B9GS5rXDETBRjASJvr0RROODe2lKD5pgX05JoYZIXzOlQ8Yi7T2triRAc836-nK8RLhYcKO9wpAwmXWByVcsxvdIuoYjLHUBvCSXBX39vQil6AUwyPi1-kDW1lHZLjEwxDL6DJ7EyvjUJKtGdQYrjaDuMbukHz8HeBF7F_F-vTFgf1v0nPWCMc3FntZENlhWQUNphZ_0K0]--></g></svg>