<?xml version="1.0" encoding="us-ascii" standalone="no"?><svg xmlns="http://www.w3.org/2000/svg" xmlns:xlink="http://www.w3.org/1999/xlink" contentStyleType="text/css" height="511px" preserveAspectRatio="none" style="width:1007px;height:511px;background:#FFFFFF;" version="1.1" viewBox="0 0 1007 511" width="1007px" zoomAndPan="magnify"><defs/><g><text fill="#000000" font-family="sans-serif" font-size="14" font-weight="bold" lengthAdjust="spacing" textLength="170" x="418.25" y="27.9951">Revoke Hospital Role</text><rect fill="#90EE90" height="177.6016" style="stroke:#000000;stroke-width:1.5;" width="855" x="10" y="235.9922"/><rect fill="#F08080" height="73.0703" style="stroke:none;stroke-width:1.0;" width="855" x="10" y="340.5234"/><line style="stroke:#181818;stroke-width:0.5;stroke-dasharray:5.0,5.0;" x1="68" x2="68" y1="118.5938" y2="430.5938"/><line style="stroke:#181818;stroke-width:0.5;stroke-dasharray:5.0,5.0;" x1="159" x2="159" y1="118.5938" y2="430.5938"/><line style="stroke:#181818;stroke-width:0.5;stroke-dasharray:5.0,5.0;" x1="512.5" x2="512.5" y1="118.5938" y2="430.5938"/><line style="stroke:#181818;stroke-width:0.5;stroke-dasharray:5.0,5.0;" x1="796" x2="796" y1="118.5938" y2="430.5938"/><text fill="#000000" font-family="sans-serif" font-size="14" lengthAdjust="spacing" textLength="91" x="20" y="115.292">Government</text><ellipse cx="68.5" cy="50.7969" fill="#E2E2F0" rx="8" ry="8" style="stroke:#181818;stroke-width:0.5;"/><path d="M68.5,58.7969 L68.5,85.7969 M55.5,66.7969 L81.5,66.7969 M68.5,85.7969 L55.5,100.7969 M68.5,85.7969 L81.5,100.7969 " fill="none" style="stroke:#181818;stroke-width:0.5;"/><text fill="#000000" font-family="sans-serif" font-size="14" lengthAdjust="spacing" textLength="91" x="20" y="442.5889">Government</text><ellipse cx="68.5" cy="454.3906" fill="#E2E2F0" rx="8" ry="8" style="stroke:#181818;stroke-width:0.5;"/><path d="M68.5,462.3906 L68.5,489.3906 M55.5,470.3906 L81.5,470.3906 M68.5,489.3906 L55.5,504.3906 M68.5,489.3906 L81.5,504.3906 " fill="none" style="stroke:#181818;stroke-width:0.5;"/><text fill="#000000" font-family="sans-serif" font-size="14" lengthAdjust="spacing" textLength="59" x="127" y="115.292">Hospital</text><ellipse cx="159.5" cy="50.7969" fill="#E2E2F0" rx="8" ry="8" style="stroke:#181818;stroke-width:0.5;"/><path d="M159.5,58.7969 L159.5,85.7969 M146.5,66.7969 L172.5,66.7969 M159.5,85.7969 L146.5,100.7969 M159.5,85.7969 L172.5,100.7969 " fill="none" style="stroke:#181818;stroke-width:0.5;"/><text fill="#000000" font-family="sans-serif" font-size="14" lengthAdjust="spacing" textLength="59" x="127" y="442.5889">Hospital</text><ellipse cx="159.5" cy="454.3906" fill="#E2E2F0" rx="8" ry="8" style="stroke:#181818;stroke-width:0.5;"/><path d="M159.5,462.3906 L159.5,489.3906 M146.5,470.3906 L172.5,470.3906 M159.5,489.3906 L146.5,504.3906 M159.5,489.3906 L172.5,504.3906 " fill="none" style="stroke:#181818;stroke-width:0.5;"/><rect fill="#E2E2F0" height="30.2969" rx="2.5" ry="2.5" style="stroke:#181818;stroke-width:0.5;" width="220" x="402.5" y="87.2969"/><text fill="#000000" font-family="sans-serif" font-size="14" lengthAdjust="spacing" textLength="206" x="409.5" y="107.292">AppointmentSmartContract</text><rect fill="#E2E2F0" height="30.2969" rx="2.5" ry="2.5" style="stroke:#181818;stroke-width:0.5;" width="220" x="402.5" y="429.5938"/><text fill="#000000" font-family="sans-serif" font-size="14" lengthAdjust="spacing" textLength="206" x="409.5" y="449.5889">AppointmentSmartContract</text><rect fill="#E2E2F0" height="30.2969" rx="2.5" ry="2.5" style="stroke:#181818;stroke-width:0.5;" width="117" x="738" y="87.2969"/><text fill="#000000" font-family="sans-serif" font-size="14" lengthAdjust="spacing" textLength="103" x="745" y="107.292">AccessControl</text><rect fill="#E2E2F0" height="30.2969" rx="2.5" ry="2.5" style="stroke:#181818;stroke-width:0.5;" width="117" x="738" y="429.5938"/><text fill="#000000" font-family="sans-serif" font-size="14" lengthAdjust="spacing" textLength="103" x="745" y="449.5889">AccessControl</text><polygon fill="#181818" points="500.5,145.7266,510.5,149.7266,500.5,153.7266,504.5,149.7266" style="stroke:#181818;stroke-width:1.0;"/><line style="stroke:#181818;stroke-width:1.0;" x1="68.5" x2="506.5" y1="149.7266" y2="149.7266"/><text fill="#000000" font-family="sans-serif" font-size="13" font-weight="bold" lengthAdjust="spacing" textLength="9" x="75.5" y="144.6606">1</text><text fill="#000000" font-family="sans-serif" font-size="13" lengthAdjust="spacing" textLength="148" x="88.5" y="144.6606">Revoke role to Hospital</text><polygon fill="#181818" points="784.5,174.8594,794.5,178.8594,784.5,182.8594,788.5,178.8594" style="stroke:#181818;stroke-width:1.0;"/><line style="stroke:#181818;stroke-width:1.0;" x1="512.5" x2="790.5" y1="178.8594" y2="178.8594"/><text fill="#000000" font-family="sans-serif" font-size="13" font-weight="bold" lengthAdjust="spacing" textLength="9" x="519.5" y="173.7935">2</text><text fill="#000000" font-family="sans-serif" font-size="13" lengthAdjust="spacing" textLength="148" x="532.5" y="173.7935">Revoke role to Hospital</text><line style="stroke:#181818;stroke-width:1.0;" x1="796.5" x2="838.5" y1="207.9922" y2="207.9922"/><line style="stroke:#181818;stroke-width:1.0;" x1="838.5" x2="838.5" y1="207.9922" y2="220.9922"/><line style="stroke:#181818;stroke-width:1.0;" x1="797.5" x2="838.5" y1="220.9922" y2="220.9922"/><polygon fill="#181818" points="807.5,216.9922,797.5,220.9922,807.5,224.9922,803.5,220.9922" style="stroke:#181818;stroke-width:1.0;"/><text fill="#000000" font-family="sans-serif" font-size="13" font-weight="bold" lengthAdjust="spacing" textLength="8" x="803.5" y="202.9263">3</text><text fill="#000000" font-family="sans-serif" font-size="13" lengthAdjust="spacing" textLength="185" x="815.5" y="202.9263">Check if sender is authorized</text><path d="M10,235.9922 L76,235.9922 L76,243.125 L66,253.125 L10,253.125 L10,235.9922 " fill="#EEEEEE" style="stroke:#000000;stroke-width:1.5;"/><rect fill="none" height="177.6016" style="stroke:#000000;stroke-width:1.5;" width="855" x="10" y="235.9922"/><text fill="#000000" font-family="sans-serif" font-size="13" font-weight="bold" lengthAdjust="spacing" textLength="21" x="25" y="249.0591">alt</text><text fill="#000000" font-family="sans-serif" font-size="11" font-weight="bold" lengthAdjust="spacing" textLength="144" x="91" y="248.2026">[Valid Public Address]</text><polygon fill="#181818" points="523.5,270.2578,513.5,274.2578,523.5,278.2578,519.5,274.2578" style="stroke:#181818;stroke-width:1.0;"/><line style="stroke:#181818;stroke-width:1.0;" x1="517.5" x2="795.5" y1="274.2578" y2="274.2578"/><text fill="#000000" font-family="sans-serif" font-size="13" font-weight="bold" lengthAdjust="spacing" textLength="9" x="529.5" y="269.1919">4</text><text fill="#000000" font-family="sans-serif" font-size="13" lengthAdjust="spacing" textLength="135" x="542.5" y="269.1919">Hospital role revoked</text><polygon fill="#181818" points="79.5,299.3906,69.5,303.3906,79.5,307.3906,75.5,303.3906" style="stroke:#181818;stroke-width:1.0;"/><line style="stroke:#181818;stroke-width:1.0;" x1="73.5" x2="795.5" y1="303.3906" y2="303.3906"/><text fill="#000000" font-family="sans-serif" font-size="13" font-weight="bold" lengthAdjust="spacing" textLength="9" x="85.5" y="298.3247">5</text><text fill="#000000" font-family="sans-serif" font-size="13" lengthAdjust="spacing" textLength="158" x="98.5" y="298.3247">Emit RoleRevoked event</text><polygon fill="#181818" points="170.5,328.5234,160.5,332.5234,170.5,336.5234,166.5,332.5234" style="stroke:#181818;stroke-width:1.0;"/><line style="stroke:#181818;stroke-width:1.0;" x1="164.5" x2="511.5" y1="332.5234" y2="332.5234"/><text fill="#000000" font-family="sans-serif" font-size="13" font-weight="bold" lengthAdjust="spacing" textLength="9" x="176.5" y="327.4575">6</text><text fill="#000000" font-family="sans-serif" font-size="13" lengthAdjust="spacing" textLength="291" x="189.5" y="327.4575">Hospital disabled to mint appointment tokens</text><line style="stroke:#000000;stroke-width:1.0;stroke-dasharray:2.0,2.0;" x1="10" x2="865" y1="341.5234" y2="341.5234"/><text fill="#000000" font-family="sans-serif" font-size="11" font-weight="bold" lengthAdjust="spacing" textLength="154" x="15" y="351.7339">[Invalid Public Address]</text><polygon fill="#181818" points="523.5,372.4609,513.5,376.4609,523.5,380.4609,519.5,376.4609" style="stroke:#181818;stroke-width:1.0;"/><line style="stroke:#181818;stroke-width:1.0;" x1="517.5" x2="795.5" y1="376.4609" y2="376.4609"/><text fill="#000000" font-family="sans-serif" font-size="13" font-weight="bold" lengthAdjust="spacing" textLength="9" x="529.5" y="371.395">7</text><text fill="#000000" font-family="sans-serif" font-size="13" lengthAdjust="spacing" textLength="247" x="542.5" y="371.395">Revert and do not revoke Hospital role</text><polygon fill="#181818" points="170.5,401.5938,160.5,405.5938,170.5,409.5938,166.5,405.5938" style="stroke:#181818;stroke-width:1.0;"/><line style="stroke:#181818;stroke-width:1.0;" x1="164.5" x2="511.5" y1="405.5938" y2="405.5938"/><text fill="#000000" font-family="sans-serif" font-size="13" font-weight="bold" lengthAdjust="spacing" textLength="9" x="176.5" y="400.5278">8</text><text fill="#000000" font-family="sans-serif" font-size="13" lengthAdjust="spacing" textLength="316" x="189.5" y="400.5278">Hospital not disabled to mint appointment tokens</text><!--SRC=[hL7DIWD13BxFKmGy-m8z2AL85Jn82zvdTw8DdKsMJBe7dzxikkrkiIqYpZ6JxpT6bX4ssCaUuKbAInOpR2HZY0SJFZGLQWYnDb5OIuVA3RADWoCWj56DQceZ6opRLeYjNzisFby9c_h- -L9TOod3b-GGmaGDzmzNAM1njEee19F9mLL8JpSNkyLnjdS1kDfXlGTwXuASK84AU4ixKVh4v2rbWxiN-jZPMX4PtcAc1A-7AbCDovJKoK80Vp-LhYS-NMNmguFtT9bbrk827XkouPBVSHDWrrzk0DuewoGtKqvKOfMTmjjg70Xn8l3P7jbpOIuunb-9EkgPktyfmFsZkYOdI08iDfPmtioVWlLalml7wGi0]--></g></svg>