<?xml version="1.0" encoding="us-ascii" standalone="no"?><svg xmlns="http://www.w3.org/2000/svg" xmlns:xlink="http://www.w3.org/1999/xlink" contentStyleType="text/css" height="518px" preserveAspectRatio="none" style="width:1064px;height:518px;background:#FFFFFF;" version="1.1" viewBox="0 0 1064 518" width="1064px" zoomAndPan="magnify"><defs/><g><!--cluster Professional--><g id="cluster_Professional"><path d="M245.5,6 L347.5,6 A3.75,3.75 0 0 1 350,8.5 L357,28.2969 L363.5,28.2969 A2.5,2.5 0 0 1 366,30.7969 L366,463.5 A2.5,2.5 0 0 1 363.5,466 L245.5,466 A2.5,2.5 0 0 1 243,463.5 L243,8.5 A2.5,2.5 0 0 1 245.5,6 " fill="none" style="stroke:#000000;stroke-width:1.5;"/><line style="stroke:#000000;stroke-width:1.5;" x1="243" x2="357" y1="28.2969" y2="28.2969"/><text fill="#000000" font-family="sans-serif" font-size="14" font-weight="bold" lengthAdjust="spacing" textLength="101" x="247" y="20.9951">Professional</text></g><!--cluster Medical Services--><g id="cluster_Medical Services"><path d="M785.5,6 L920.5,6 A3.75,3.75 0 0 1 923,8.5 L930,28.2969 L1054.5,28.2969 A2.5,2.5 0 0 1 1057,30.7969 L1057,508.5 A2.5,2.5 0 0 1 1054.5,511 L785.5,511 A2.5,2.5 0 0 1 783,508.5 L783,8.5 A2.5,2.5 0 0 1 785.5,6 " fill="none" style="stroke:#000000;stroke-width:1.5;"/><line style="stroke:#000000;stroke-width:1.5;" x1="783" x2="930" y1="28.2969" y2="28.2969"/><text fill="#000000" font-family="sans-serif" font-size="14" font-weight="bold" lengthAdjust="spacing" textLength="134" x="787" y="20.9951">Medical Services</text></g><!--cluster Administrative Services--><g id="cluster_Administrative Services"><path d="M8.5,99 L202.5,99 A3.75,3.75 0 0 1 205,101.5 L212,121.2969 L212.5,121.2969 A2.5,2.5 0 0 1 215,123.7969 L215,259.5 A2.5,2.5 0 0 1 212.5,262 L8.5,262 A2.5,2.5 0 0 1 6,259.5 L6,101.5 A2.5,2.5 0 0 1 8.5,99 " fill="none" style="stroke:#000000;stroke-width:1.5;"/><line style="stroke:#000000;stroke-width:1.5;" x1="6" x2="212" y1="121.2969" y2="121.2969"/><text fill="#000000" font-family="sans-serif" font-size="14" font-weight="bold" lengthAdjust="spacing" textLength="193" x="10" y="113.9951">Administrative Services</text></g><!--cluster Blockchain Enabled--><g id="cluster_Blockchain Enabled"><path d="M396.5,41 L553.5,41 A3.75,3.75 0 0 1 556,43.5 L563,63.2969 L639.5,63.2969 A2.5,2.5 0 0 1 642,65.7969 L642,212.5 A2.5,2.5 0 0 1 639.5,215 L396.5,215 A2.5,2.5 0 0 1 394,212.5 L394,43.5 A2.5,2.5 0 0 1 396.5,41 " fill="none" style="stroke:#000000;stroke-width:1.5;"/><line style="stroke:#000000;stroke-width:1.5;" x1="394" x2="563" y1="63.2969" y2="63.2969"/><text fill="#000000" font-family="sans-serif" font-size="14" font-weight="bold" lengthAdjust="spacing" textLength="156" x="398" y="55.9951">Blockchain Enabled</text></g><!--entity g--><g id="elem_g"><ellipse cx="304.5" cy="160.5" fill="#F1F1F1" rx="8" ry="8" style="stroke:#181818;stroke-width:0.5;"/><path d="M304.5,168.5 L304.5,195.5 M291.5,176.5 L317.5,176.5 M304.5,195.5 L291.5,210.5 M304.5,195.5 L317.5,210.5 " fill="none" style="stroke:#181818;stroke-width:0.5;"/><text fill="#000000" font-family="sans-serif" font-size="14" lengthAdjust="spacing" textLength="91" x="259" y="224.9951">Government</text></g><!--entity d--><g id="elem_d"><ellipse cx="304.5" cy="271.5" fill="#F1F1F1" rx="8" ry="8" style="stroke:#181818;stroke-width:0.5;"/><path d="M304.5,279.5 L304.5,306.5 M291.5,287.5 L317.5,287.5 M304.5,306.5 L291.5,321.5 M304.5,306.5 L317.5,321.5 " fill="none" style="stroke:#181818;stroke-width:0.5;"/><text fill="#000000" font-family="sans-serif" font-size="14" lengthAdjust="spacing" textLength="50" x="279.5" y="335.9951">Doctor</text></g><!--entity h--><g id="elem_h"><ellipse cx="304.5" cy="382.5" fill="#F1F1F1" rx="8" ry="8" style="stroke:#181818;stroke-width:0.5;"/><path d="M304.5,390.5 L304.5,417.5 M291.5,398.5 L317.5,398.5 M304.5,417.5 L291.5,432.5 M304.5,417.5 L317.5,432.5 " fill="none" style="stroke:#181818;stroke-width:0.5;"/><text fill="#000000" font-family="sans-serif" font-size="14" lengthAdjust="spacing" textLength="59" x="275" y="446.9951">Hospital</text></g><!--entity s--><g id="elem_s"><ellipse cx="304.5" cy="49.5" fill="#F1F1F1" rx="8" ry="8" style="stroke:#181818;stroke-width:0.5;"/><path d="M304.5,57.5 L304.5,84.5 M291.5,65.5 L317.5,65.5 M304.5,84.5 L291.5,99.5 M304.5,84.5 L317.5,99.5 " fill="none" style="stroke:#181818;stroke-width:0.5;"/><text fill="#000000" font-family="sans-serif" font-size="14" lengthAdjust="spacing" textLength="82" x="263.5" y="113.9951">Statistician</text></g><g id="elem_MP"><ellipse cx="920.0751" cy="301.215" fill="#F1F1F1" rx="104.0751" ry="23.215" style="stroke:#181818;stroke-width:0.5;"/><text fill="#000000" font-family="sans-serif" font-size="14" lengthAdjust="spacing" textLength="173" x="833.5751" y="304.0617">Give Prescription Token</text></g><g id="elem_OP"><ellipse cx="919.9079" cy="65.7816" fill="#F1F1F1" rx="111.9079" ry="24.7816" style="stroke:#181818;stroke-width:0.5;"/><text fill="#000000" font-family="sans-serif" font-size="14" lengthAdjust="spacing" textLength="190" x="824.9079" y="68.6283">Obtain Prescription Token</text></g><g id="elem_BA"><ellipse cx="919.7915" cy="146.1583" fill="#F1F1F1" rx="88.7915" ry="20.1583" style="stroke:#181818;stroke-width:0.5;"/><text fill="#000000" font-family="sans-serif" font-size="14" lengthAdjust="spacing" textLength="139" x="850.2915" y="149.005">Book Appointment</text></g><g id="elem_AA"><ellipse cx="919.7717" cy="468.0543" fill="#F1F1F1" rx="120.7717" ry="26.5543" style="stroke:#181818;stroke-width:0.5;"/><text fill="#000000" font-family="sans-serif" font-size="14" lengthAdjust="spacing" textLength="209" x="815.2717" y="470.901">Produce Appointment Token</text></g><g id="elem_GTA"><ellipse cx="920.1144" cy="221.9229" fill="#F1F1F1" rx="90.1144" ry="20.4229" style="stroke:#181818;stroke-width:0.5;"/><text fill="#000000" font-family="sans-serif" font-size="14" lengthAdjust="spacing" textLength="142" x="849.1144" y="224.7696">Go to Appointment</text></g><g id="elem_BPT"><ellipse cx="920.0329" cy="382.8066" fill="#F1F1F1" rx="104.5329" ry="23.3066" style="stroke:#181818;stroke-width:0.5;"/><text fill="#000000" font-family="sans-serif" font-size="14" lengthAdjust="spacing" textLength="174" x="833.0329" y="385.6533">Burn Prescription Token</text></g><g id="elem_GDR"><ellipse cx="110.4455" cy="227.1891" fill="#F1F1F1" rx="81.4455" ry="18.6891" style="stroke:#181818;stroke-width:0.5;"/><text fill="#000000" font-family="sans-serif" font-size="14" lengthAdjust="spacing" textLength="122" x="48.3109" y="230.409">Give Doctor Role</text></g><g id="elem_GHR"><ellipse cx="110.2932" cy="153.9586" fill="#F1F1F1" rx="85.2932" ry="19.4586" style="stroke:#181818;stroke-width:0.5;"/><text fill="#000000" font-family="sans-serif" font-size="14" lengthAdjust="spacing" textLength="131" x="44.7932" y="156.8053">Give Hospital Role</text></g><g id="elem_PMS"><ellipse cx="518.209" cy="100.0418" fill="#F1F1F1" rx="108.209" ry="24.0418" style="stroke:#181818;stroke-width:0.5;"/><text fill="#000000" font-family="sans-serif" font-size="14" lengthAdjust="spacing" textLength="182" x="427.209" y="102.8885">Perform Medical Statistic</text></g><g id="elem_CV"><ellipse cx="518.1635" cy="179.1327" fill="#F1F1F1" rx="86.1635" ry="19.6327" style="stroke:#181818;stroke-width:0.5;"/><text fill="#000000" font-family="sans-serif" font-size="14" lengthAdjust="spacing" textLength="133" x="451.6635" y="181.9794">Check Verifiability</text></g><!--entity p--><g id="elem_p"><ellipse cx="712.5" cy="127.5" fill="#F1F1F1" rx="8" ry="8" style="stroke:#181818;stroke-width:0.5;"/><path d="M712.5,135.5 L712.5,162.5 M699.5,143.5 L725.5,143.5 M712.5,162.5 L699.5,177.5 M712.5,162.5 L725.5,177.5 " fill="none" style="stroke:#181818;stroke-width:0.5;"/><text fill="#000000" font-family="sans-serif" font-size="14" lengthAdjust="spacing" textLength="53" x="686" y="191.9951">Patient</text></g><!--reverse link CV to p--><g id="link_CV_p"><path d="M601.0422,169.6238 C633.2002,165.9488 662.542,162.595 685.745,159.943 " fill="none" id="CV-backto-p" style="stroke:#181818;stroke-width:1.0;"/><polygon fill="#181818" points="595.081,170.305,604.477,173.2573,600.0487,169.7373,603.5686,165.309,595.081,170.305" style="stroke:#181818;stroke-width:1.0;"/></g><!--link g to CV--><g id="link_g_CV"><path d="M350.095,187.681 C374.455,186.414 399.4201,185.1157 428.0391,183.6267 " fill="none" id="g-to-CV" style="stroke:#181818;stroke-width:1.0;"/><polygon fill="#181818" points="434.031,183.315,424.8353,179.788,429.0378,183.5748,425.251,187.7772,434.031,183.315" style="stroke:#181818;stroke-width:1.0;"/></g><!--link p to OP--><g id="link_p_OP"><path d="M739.166,132.853 C749.641,124.026 762.274,114.597 775,108 C794.883,97.692 811.8963,91.2441 833.3763,85.0031 " fill="none" id="p-to-OP" style="stroke:#181818;stroke-width:1.0;"/><polygon fill="#181818" points="839.138,83.329,829.3794,81.9989,834.3366,84.7241,831.6115,89.6813,839.138,83.329" style="stroke:#181818;stroke-width:1.0;"/></g><!--link p to BA--><g id="link_p_BA"><path d="M739.111,155.629 C762.782,154.362 793.3326,152.7267 827.3136,150.9077 " fill="none" id="p-to-BA" style="stroke:#181818;stroke-width:1.0;"/><polygon fill="#181818" points="833.305,150.587,824.1041,147.0738,828.3121,150.8543,824.5317,155.0624,833.305,150.587" style="stroke:#181818;stroke-width:1.0;"/></g><!--link p to GTA--><g id="link_p_GTA"><path d="M739.176,169.34 C750.069,174.294 763,179.811 775,184 C800.998,193.075 824.4679,199.714 849.8099,206.081 " fill="none" id="p-to-GTA" style="stroke:#181818;stroke-width:1.0;"/><polygon fill="#181818" points="855.629,207.543,847.875,201.4705,850.7797,206.3246,845.9256,209.2294,855.629,207.543" style="stroke:#181818;stroke-width:1.0;"/></g><!--link d to MP--><g id="link_d_MP"><path d="M329.55,301 C409.47,301 663.399,301 809.996,301 " fill="none" id="d-to-MP" style="stroke:#181818;stroke-width:1.0;"/><polygon fill="#181818" points="815.996,301,806.996,297,810.996,301,806.996,305,815.996,301" style="stroke:#181818;stroke-width:1.0;"/></g><!--link h to AA--><g id="link_h_AA"><path d="M334.268,414.626 C417.714,422.243 657.1358,444.0971 802.1448,457.3335 " fill="none" id="h-to-AA" style="stroke:#181818;stroke-width:1.0;"/><polygon fill="#181818" points="808.12,457.8789,799.5209,453.0773,803.1407,457.4244,798.7937,461.0442,808.12,457.8789" style="stroke:#181818;stroke-width:1.0;"/></g><!--link h to BPT--><g id="link_h_BPT"><path d="M334.268,410.64 C419.55,406.609 667.9937,394.8653 811.5487,388.0793 " fill="none" id="h-to-BPT" style="stroke:#181818;stroke-width:1.0;"/><polygon fill="#181818" points="817.542,387.796,808.3632,384.2254,812.5476,388.0321,808.7409,392.2165,817.542,387.796" style="stroke:#181818;stroke-width:1.0;"/></g><!--link h to CV--><g id="link_h_CV"><path d="M334.334,391.094 C347.037,381.329 361.812,369.185 374,357 C426.983,304.031 476.2176,237.1563 500.1706,203.2133 " fill="none" id="h-to-CV" style="stroke:#181818;stroke-width:1.0;"/><polygon fill="#181818" points="503.63,198.311,495.1727,203.3581,500.7471,202.3962,501.709,207.9707,503.63,198.311" style="stroke:#181818;stroke-width:1.0;"/></g><!--reverse link GDR to g--><g id="link_GDR_g"><path d="M179.1986,213.9536 C207.0426,208.5876 233.411,203.507 258.852,198.604 " fill="none" id="GDR-backto-g" style="stroke:#181818;stroke-width:1.0;"/><polygon fill="#181818" points="173.307,215.089,182.9013,217.3136,178.2167,214.1428,181.3874,209.4582,173.307,215.089" style="stroke:#181818;stroke-width:1.0;"/></g><!--reverse link GHR to g--><g id="link_GHR_g"><path d="M182.9362,167.3939 C209.8772,172.4459 234.492,177.061 258.795,181.618 " fill="none" id="GHR-backto-g" style="stroke:#181818;stroke-width:1.0;"/><polygon fill="#181818" points="177.039,166.288,185.1476,171.8782,181.9533,167.2095,186.622,164.0153,177.039,166.288" style="stroke:#181818;stroke-width:1.0;"/></g><!--link s to PMS--><g id="link_s_PMS"><path d="M345.779,82.999 C366.634,85.07 387.1183,87.1043 412.9583,89.6693 " fill="none" id="s-to-PMS" style="stroke:#181818;stroke-width:1.0;"/><polygon fill="#181818" points="418.929,90.262,410.3681,85.3925,413.9535,89.7681,409.5779,93.3534,418.929,90.262" style="stroke:#181818;stroke-width:1.0;"/></g><!--SRC=[VP71ReCm38RlF8N5lQym2Tg9NggYjkez3GOiQ18beT8qxTtd14fXqtRYn_dYF_xTO-t1Qx3Kj1ugiYWzQPK8wRM5KdX2vK4uC8aHiXCDGcbrZSun9NhuJ016jj0FjEe-uSrSt-duuLerr_RQ6V9ydQljN3rxjdEU90aLJbpobSokwG4hadpbZFP14bqQlGU7KZW-BkWHdePEMZ9X1BZe3bKQ6XtA9NcyUK7gB_POmXBEjUuWCqQJyc6soEJP4k4yga7YabhqorPieKFOF_iLbnMK3_RFv-NbPPLALjr9SMYMe-C0_WjdMiH9zpYwxaw_c7anBsf_OaDuEUQzbfriGuJlIjnwhDALLucsrlOEyxwUMutjoiDv2MzRb1rSqL9DuaOz-O-8RQznIjWCPlCM_XhOZC94SImdmQiOHSYmYegttKR1qOyYXDO-6pHJqp3-h7b85m5-tpS0]--></g></svg>