<?xml version="1.0" encoding="us-ascii" standalone="no"?><svg xmlns="http://www.w3.org/2000/svg" xmlns:xlink="http://www.w3.org/1999/xlink" contentStyleType="text/css" height="771px" preserveAspectRatio="none" style="width:654px;height:771px;background:#FFFFFF;" version="1.1" viewBox="0 0 654 771" width="654px" zoomAndPan="magnify"><defs/><g><!--cluster Professional--><g id="cluster_Professional"><path d="M224.5,284 L326.5,284 A3.75,3.75 0 0 1 329,286.5 L336,306.2969 L342.5,306.2969 A2.5,2.5 0 0 1 345,308.7969 L345,741.5 A2.5,2.5 0 0 1 342.5,744 L224.5,744 A2.5,2.5 0 0 1 222,741.5 L222,286.5 A2.5,2.5 0 0 1 224.5,284 " fill="none" style="stroke:#000000;stroke-width:1.5;"/><line style="stroke:#000000;stroke-width:1.5;" x1="222" x2="336" y1="306.2969" y2="306.2969"/><text fill="#000000" font-family="sans-serif" font-size="14" font-weight="bold" lengthAdjust="spacing" textLength="101" x="226" y="298.9951">Professional</text></g><!--cluster Medical Services--><g id="cluster_Medical Services"><path d="M375.5,6 L510.5,6 A3.75,3.75 0 0 1 513,8.5 L520,28.2969 L644.5,28.2969 A2.5,2.5 0 0 1 647,30.7969 L647,508.5 A2.5,2.5 0 0 1 644.5,511 L375.5,511 A2.5,2.5 0 0 1 373,508.5 L373,8.5 A2.5,2.5 0 0 1 375.5,6 " fill="none" style="stroke:#000000;stroke-width:1.5;"/><line style="stroke:#000000;stroke-width:1.5;" x1="373" x2="520" y1="28.2969" y2="28.2969"/><text fill="#000000" font-family="sans-serif" font-size="14" font-weight="bold" lengthAdjust="spacing" textLength="134" x="377" y="20.9951">Medical Services</text></g><!--cluster Administrative Services--><g id="cluster_Administrative Services"><path d="M408,535 L602,535 A3.75,3.75 0 0 1 604.5,537.5 L611.5,557.2969 L612,557.2969 A2.5,2.5 0 0 1 614.5,559.7969 L614.5,695.5 A2.5,2.5 0 0 1 612,698 L408,698 A2.5,2.5 0 0 1 405.5,695.5 L405.5,537.5 A2.5,2.5 0 0 1 408,535 " fill="none" style="stroke:#000000;stroke-width:1.5;"/><line style="stroke:#000000;stroke-width:1.5;" x1="405.5" x2="611.5" y1="557.2969" y2="557.2969"/><text fill="#000000" font-family="sans-serif" font-size="14" font-weight="bold" lengthAdjust="spacing" textLength="193" x="409.5" y="549.9951">Administrative Services</text></g><!--entity g--><g id="elem_g"><ellipse cx="283.5" cy="549.5" fill="#F1F1F1" rx="8" ry="8" style="stroke:#181818;stroke-width:0.5;"/><path d="M283.5,557.5 L283.5,584.5 M270.5,565.5 L296.5,565.5 M283.5,584.5 L270.5,599.5 M283.5,584.5 L296.5,599.5 " fill="none" style="stroke:#181818;stroke-width:0.5;"/><text fill="#000000" font-family="sans-serif" font-size="14" lengthAdjust="spacing" textLength="91" x="238" y="613.9951">Government</text></g><!--entity d--><g id="elem_d"><ellipse cx="283.5" cy="327.5" fill="#F1F1F1" rx="8" ry="8" style="stroke:#181818;stroke-width:0.5;"/><path d="M283.5,335.5 L283.5,362.5 M270.5,343.5 L296.5,343.5 M283.5,362.5 L270.5,377.5 M283.5,362.5 L296.5,377.5 " fill="none" style="stroke:#181818;stroke-width:0.5;"/><text fill="#000000" font-family="sans-serif" font-size="14" lengthAdjust="spacing" textLength="50" x="258.5" y="391.9951">Doctor</text></g><!--entity h--><g id="elem_h"><ellipse cx="283.5" cy="438.5" fill="#F1F1F1" rx="8" ry="8" style="stroke:#181818;stroke-width:0.5;"/><path d="M283.5,446.5 L283.5,473.5 M270.5,454.5 L296.5,454.5 M283.5,473.5 L270.5,488.5 M283.5,473.5 L296.5,488.5 " fill="none" style="stroke:#181818;stroke-width:0.5;"/><text fill="#000000" font-family="sans-serif" font-size="14" lengthAdjust="spacing" textLength="59" x="254" y="502.9951">Hospital</text></g><!--entity s--><g id="elem_s"><ellipse cx="283.5" cy="660.5" fill="#F1F1F1" rx="8" ry="8" style="stroke:#181818;stroke-width:0.5;"/><path d="M283.5,668.5 L283.5,695.5 M270.5,676.5 L296.5,676.5 M283.5,695.5 L270.5,710.5 M283.5,695.5 L296.5,710.5 " fill="none" style="stroke:#181818;stroke-width:0.5;"/><text fill="#000000" font-family="sans-serif" font-size="14" lengthAdjust="spacing" textLength="82" x="242.5" y="724.9951">Statistician</text></g><g id="elem_MP"><ellipse cx="510.0751" cy="301.215" fill="#F1F1F1" rx="104.0751" ry="23.215" style="stroke:#181818;stroke-width:0.5;"/><text fill="#000000" font-family="sans-serif" font-size="14" lengthAdjust="spacing" textLength="173" x="423.5751" y="304.0617">Give Prescription Token</text></g><g id="elem_OP"><ellipse cx="509.9079" cy="65.7816" fill="#F1F1F1" rx="111.9079" ry="24.7816" style="stroke:#181818;stroke-width:0.5;"/><text fill="#000000" font-family="sans-serif" font-size="14" lengthAdjust="spacing" textLength="190" x="414.9079" y="68.6283">Obtain Prescription Token</text></g><g id="elem_BA"><ellipse cx="509.7915" cy="146.1583" fill="#F1F1F1" rx="88.7915" ry="20.1583" style="stroke:#181818;stroke-width:0.5;"/><text fill="#000000" font-family="sans-serif" font-size="14" lengthAdjust="spacing" textLength="139" x="440.2915" y="149.005">Book Appointment</text></g><g id="elem_AA"><ellipse cx="509.7717" cy="468.0543" fill="#F1F1F1" rx="120.7717" ry="26.5543" style="stroke:#181818;stroke-width:0.5;"/><text fill="#000000" font-family="sans-serif" font-size="14" lengthAdjust="spacing" textLength="209" x="405.2717" y="470.901">Produce Appointment Token</text></g><g id="elem_GTA"><ellipse cx="510.1144" cy="221.9229" fill="#F1F1F1" rx="90.1144" ry="20.4229" style="stroke:#181818;stroke-width:0.5;"/><text fill="#000000" font-family="sans-serif" font-size="14" lengthAdjust="spacing" textLength="142" x="439.1144" y="224.7696">Go to Appointment</text></g><g id="elem_BPT"><ellipse cx="510.0329" cy="382.8066" fill="#F1F1F1" rx="104.5329" ry="23.3066" style="stroke:#181818;stroke-width:0.5;"/><text fill="#000000" font-family="sans-serif" font-size="14" lengthAdjust="spacing" textLength="174" x="423.0329" y="385.6533">Burn Prescription Token</text></g><g id="elem_GDR"><ellipse cx="509.9455" cy="589.1891" fill="#F1F1F1" rx="81.4455" ry="18.6891" style="stroke:#181818;stroke-width:0.5;"/><text fill="#000000" font-family="sans-serif" font-size="14" lengthAdjust="spacing" textLength="122" x="447.8109" y="592.409">Give Doctor Role</text></g><g id="elem_GHR"><ellipse cx="509.7932" cy="661.9586" fill="#F1F1F1" rx="85.2932" ry="19.4586" style="stroke:#181818;stroke-width:0.5;"/><text fill="#000000" font-family="sans-serif" font-size="14" lengthAdjust="spacing" textLength="131" x="444.2932" y="664.8053">Give Hospital Role</text></g><!--entity p--><g id="elem_p"><ellipse cx="283.5" cy="154.5" fill="#F1F1F1" rx="8" ry="8" style="stroke:#181818;stroke-width:0.5;"/><path d="M283.5,162.5 L283.5,189.5 M270.5,170.5 L296.5,170.5 M283.5,189.5 L270.5,204.5 M283.5,189.5 L296.5,204.5 " fill="none" style="stroke:#181818;stroke-width:0.5;"/><text fill="#000000" font-family="sans-serif" font-size="14" lengthAdjust="spacing" textLength="53" x="257" y="218.9951">Patient</text></g><g id="elem_PMS"><ellipse cx="510.209" cy="741.0418" fill="#F1F1F1" rx="108.209" ry="24.0418" style="stroke:#181818;stroke-width:0.5;"/><text fill="#000000" font-family="sans-serif" font-size="14" lengthAdjust="spacing" textLength="182" x="419.209" y="743.8885">Perform Medical Statistic</text></g><g id="elem_CV"><ellipse cx="92.1635" cy="382.1327" fill="#F1F1F1" rx="86.1635" ry="19.6327" style="stroke:#181818;stroke-width:0.5;"/><text fill="#000000" font-family="sans-serif" font-size="14" lengthAdjust="spacing" textLength="133" x="25.6635" y="384.9794">Check Verifiability</text></g><!--reverse link CV to p--><g id="link_CV_p"><path d="M115.6636,358.3194 C149.6566,322.8024 217.931,251.465 256.716,210.941 " fill="none" id="CV-backto-p" style="stroke:#181818;stroke-width:1.0;"/><polygon fill="#181818" points="111.515,362.654,120.6277,358.9178,114.9722,359.0418,114.8482,353.3863,111.515,362.654" style="stroke:#181818;stroke-width:1.0;"/></g><!--reverse link CV to g--><g id="link_CV_g"><path d="M111.2583,406.133 C133.0033,434.438 172.178,483.382 214,524 C221.44,531.226 229.76,538.493 237.969,545.271 " fill="none" id="CV-backto-g" style="stroke:#181818;stroke-width:1.0;"/><polygon fill="#181818" points="107.603,401.375,109.9139,410.9489,110.6491,405.34,116.258,406.0752,107.603,401.375" style="stroke:#181818;stroke-width:1.0;"/></g><!--link p to OP--><g id="link_p_OP"><path d="M310.142,153.668 C324.787,138.048 344.32,119.847 365,108 C383.868,97.191 399.9937,90.6644 420.9127,84.4864 " fill="none" id="p-to-OP" style="stroke:#181818;stroke-width:1.0;"/><polygon fill="#181818" points="426.667,82.787,416.9026,81.4999,421.8717,84.2032,419.1685,89.1723,426.667,82.787" style="stroke:#181818;stroke-width:1.0;"/></g><!--link p to BA--><g id="link_p_BA"><path d="M310.253,179.641 C341.235,174.397 388.6071,166.3783 432.2101,158.9983 " fill="none" id="p-to-BA" style="stroke:#181818;stroke-width:1.0;"/><polygon fill="#181818" points="438.126,157.997,428.5847,155.555,433.1961,158.8314,429.9197,163.4428,438.126,157.997" style="stroke:#181818;stroke-width:1.0;"/></g><!--link p to GTA--><g id="link_p_GTA"><path d="M310.253,188.359 C341.004,193.564 387.8152,201.4876 431.2362,208.8376 " fill="none" id="p-to-GTA" style="stroke:#181818;stroke-width:1.0;"/><polygon fill="#181818" points="437.152,209.839,428.9458,204.393,432.2221,209.0045,427.6106,212.2808,437.152,209.839" style="stroke:#181818;stroke-width:1.0;"/></g><!--link d to MP--><g id="link_d_MP"><path d="M308.525,351.007 C339.745,343.219 389.7404,330.7481 434.5634,319.5681 " fill="none" id="d-to-MP" style="stroke:#181818;stroke-width:1.0;"/><polygon fill="#181818" points="440.385,318.116,430.6845,316.413,435.5336,319.3261,432.6206,324.1752,440.385,318.116" style="stroke:#181818;stroke-width:1.0;"/></g><!--link h to AA--><g id="link_h_AA"><path d="M313.39,468 C333.108,468 354.687,468 382.93,468 " fill="none" id="h-to-AA" style="stroke:#181818;stroke-width:1.0;"/><polygon fill="#181818" points="388.93,468,379.93,464,383.93,468,379.93,472,388.93,468" style="stroke:#181818;stroke-width:1.0;"/></g><!--link h to BPT--><g id="link_h_BPT"><path d="M313.17,450.292 C328.207,441.535 347.167,431.306 365,424 C387.971,414.59 408.0586,408.0891 431.4706,401.6371 " fill="none" id="h-to-BPT" style="stroke:#181818;stroke-width:1.0;"/><polygon fill="#181818" points="437.255,400.043,427.5157,398.5779,432.4347,401.3714,429.6412,406.2904,437.255,400.043" style="stroke:#181818;stroke-width:1.0;"/></g><!--link g to GDR--><g id="link_g_GDR"><path d="M329.122,580.988 C357.894,582.269 390.1219,583.705 423.9319,585.211 " fill="none" id="g-to-GDR" style="stroke:#181818;stroke-width:1.0;"/><polygon fill="#181818" points="429.926,585.478,421.1129,581.0815,424.931,585.2555,420.7569,589.0735,429.926,585.478" style="stroke:#181818;stroke-width:1.0;"/></g><!--link g to GHR--><g id="link_g_GHR"><path d="M329.409,607.468 C340.731,613.853 353.067,620.16 365,625 C390.355,635.284 413.5612,642.0179 438.8952,647.9919 " fill="none" id="g-to-GHR" style="stroke:#181818;stroke-width:1.0;"/><polygon fill="#181818" points="444.735,649.369,436.8933,643.4101,439.8685,648.2214,435.0572,651.1966,444.735,649.369" style="stroke:#181818;stroke-width:1.0;"/></g><!--link s to PMS--><g id="link_s_PMS"><path d="M324.636,699.1178 C354.905,705.9941 391.4561,714.2974 427.9651,722.5911 " fill="none" id="s-to-PMS" style="stroke:#181818;stroke-width:1.0;"/><polygon fill="#181818" points="433.816,723.9202,425.9257,718.0259,428.9402,722.8126,424.1535,725.8271,433.816,723.9202" style="stroke:#181818;stroke-width:1.0;"/></g><!--SRC=[VP71QiCm38RlUGhHUrzXaBIGNafDMtft7IKHIMrZEuKnzkwJdIn9DxQJVtv_jgHVFTO1WW57JHkW8eSgaD6PLC4u438GwW3IWysiL9ri48GpDNhFbEpX8mCOsT8yqUd7X3UplpVfOA-QlOFnbW8_PxUTtKlWSZwG8gdZZSy-ixdgveWLANvoGVSaXNwJQWyUbVHyNT8pjePUER9n1BYQ3lKcVdGKQ_9q3vBqN-n9m1ekZEaWjzQG3d6sn1Jv6k4yga7Xcbhzbx-mfObX__ollBv0nU3-RAyGrvTKykf1caDp71q7y5yuqoBEfiUnwlxyYvaNir27CnU4R1aNNMtS0-PzV6yjuU9uMT1TYwg36pggITwff_2UeDsD9u3jOBTlKJUBP9V5IKo2Wnv5JAXAYdVP9i71ZY96qemKJpGfxjednGrz0G00]--></g></svg>